<svg class="animated" id="freepik_stories-japan" xmlns="http://www.w3.org/2000/svg" viewBox="0 0 500 500" version="1.1" xmlns:xlink="http://www.w3.org/1999/xlink" xmlns:svgjs="http://svgjs.com/svgjs"><style>svg#freepik_stories-japan:not(.animated) .animable {opacity: 0;}svg#freepik_stories-japan.animated #eliyljcizz78 {animation: 1s 1 forwards ease-in slideLeft;animation-delay: 0s;}svg#freepik_stories-japan.animated #elhaja6sfv59o {animation: 1s 1 forwards ease-in slideLeft;animation-delay: 0.034482758620689655s;opacity: 0}svg#freepik_stories-japan.animated #el78ootaq2aer {animation: 1s 1 forwards ease-in slideLeft;animation-delay: 0.06896551724137931s;opacity: 0}svg#freepik_stories-japan.animated #elks0qrujmq3 {animation: 1s 1 forwards ease-in slideLeft;animation-delay: 0.10344827586206896s;opacity: 0}svg#freepik_stories-japan.animated #elkpuwhdx161l {animation: 1s 1 forwards ease-in slideLeft;animation-delay: 0.13793103448275862s;opacity: 0}svg#freepik_stories-japan.animated #elyrs7revu4vk {animation: 1s 1 forwards ease-in slideLeft;animation-delay: 0.1724137931034483s;opacity: 0}svg#freepik_stories-japan.animated #el11ysrvw8qkjq {animation: 1s 1 forwards ease-in slideLeft;animation-delay: 0.20689655172413793s;opacity: 0}svg#freepik_stories-japan.animated #el4bo04n0pcy4 {animation: 1s 1 forwards ease-in slideLeft;animation-delay: 0.24137931034482757s;opacity: 0}svg#freepik_stories-japan.animated #elh53ii5glnst {animation: 1s 1 forwards ease-in slideLeft;animation-delay: 0.27586206896551724s;opacity: 0}svg#freepik_stories-japan.animated #eld0cwnr03p06 {animation: 1s 1 forwards ease-in slideLeft;animation-delay: 0.3103448275862069s;opacity: 0}svg#freepik_stories-japan.animated #el5qqzf7eye4n {animation: 1s 1 forwards ease-in slideLeft;animation-delay: 0.3448275862068966s;opacity: 0}svg#freepik_stories-japan.animated #elyfgtgqbzqhg {animation: 1s 1 forwards ease-in slideLeft;animation-delay: 0.3793103448275862s;opacity: 0}svg#freepik_stories-japan.animated #el64n2idgp34h {animation: 1s 1 forwards ease-in slideLeft;animation-delay: 0.41379310344827586s;opacity: 0}svg#freepik_stories-japan.animated #elde4ku7ubc {animation: 1s 1 forwards ease-in slideLeft;animation-delay: 0.4482758620689655s;opacity: 0}svg#freepik_stories-japan.animated #eldy141ucplp {animation: 1s 1 forwards ease-in slideLeft;animation-delay: 0.48275862068965514s;opacity: 0}svg#freepik_stories-japan.animated #el6a5fdtqwujv {animation: 1s 1 forwards ease-in slideLeft;animation-delay: 0.5172413793103449s;opacity: 0}svg#freepik_stories-japan.animated #eld4oijnjs7n {animation: 1s 1 forwards ease-in slideLeft;animation-delay: 0.5517241379310345s;opacity: 0}svg#freepik_stories-japan.animated #elk95mekmqw6 {animation: 1s 1 forwards ease-in slideLeft;animation-delay: 0.5862068965517241s;opacity: 0}svg#freepik_stories-japan.animated #ellcnku2ujsu9 {animation: 1s 1 forwards ease-in slideLeft;animation-delay: 0.6206896551724138s;opacity: 0}svg#freepik_stories-japan.animated #el4sozgluhmdv {animation: 1s 1 forwards ease-in slideLeft;animation-delay: 0.6551724137931034s;opacity: 0}svg#freepik_stories-japan.animated #el2dnwqvrwd8i {animation: 1s 1 forwards ease-in slideLeft;animation-delay: 0.6896551724137931s;opacity: 0}svg#freepik_stories-japan.animated #elmr9dg8mzxmh {animation: 1s 1 forwards ease-in slideLeft;animation-delay: 0.7241379310344828s;opacity: 0}svg#freepik_stories-japan.animated #eluztqipx0guk {animation: 1s 1 forwards ease-in slideLeft;animation-delay: 0.7586206896551724s;opacity: 0}svg#freepik_stories-japan.animated #el90sxmfbghg {animation: 1s 1 forwards ease-in slideLeft;animation-delay: 0.7931034482758621s;opacity: 0}svg#freepik_stories-japan.animated #el2vcz6vz4cl2 {animation: 1s 1 forwards ease-in slideLeft;animation-delay: 0.8275862068965517s;opacity: 0}svg#freepik_stories-japan.animated #elza18zcy364j {animation: 1s 1 forwards ease-in slideLeft;animation-delay: 0.8620689655172413s;opacity: 0}svg#freepik_stories-japan.animated #eld87m8a3psbi {animation: 1s 1 forwards ease-in slideLeft;animation-delay: 0.896551724137931s;opacity: 0}svg#freepik_stories-japan.animated #elhpuw57yi9iu {animation: 1s 1 forwards ease-in slideLeft;animation-delay: 0.9310344827586207s;opacity: 0}svg#freepik_stories-japan.animated #elcb9tu31oed {animation: 1s 1 forwards ease-in slideLeft;animation-delay: 0.9655172413793103s;opacity: 0}svg#freepik_stories-japan.animated #freepik--background-complete--inject-20 {animation: 1s 1 forwards ease-in slideLeft,1.5s Infinite  linear wind;animation-delay: 0s,1s;}svg#freepik_stories-japan.animated #freepik--Shadow--inject-20 {animation: 1.5s Infinite  linear floating;animation-delay: 0s;}svg#freepik_stories-japan.animated #freepik--Plants--inject-20 {animation: 1.5s Infinite  linear floating;animation-delay: 0s;}svg#freepik_stories-japan.animated #freepik--Character--inject-20 {animation: 1.5s Infinite  linear floating;animation-delay: 0s;}            @keyframes slideLeft {                0% {                    opacity: 0;                    transform: translateX(-30px);                }                100% {                    opacity: 1;                    transform: translateX(0);                }            }                    @keyframes wind {                0% {                    transform: rotate( 0deg );                }                25% {                    transform: rotate( 1deg );                }                75% {                    transform: rotate( -1deg );                }            }                    @keyframes floating {                0% {                    opacity: 1;                    transform: translateY(0px);                }                50% {                    transform: translateY(-10px);                }                100% {                    opacity: 1;                    transform: translateY(0px);                }            }        </style><g id="freepik--background-complete--inject-20" class="animable animator-active" style="transform-origin: 250px 228.23px;"><rect y="382.4" width="500" height="0.25" style="fill: rgb(235, 235, 235); transform-origin: 250px 382.525px;" id="eliyljcizz78" class="animable"></rect><rect x="416.78" y="398.49" width="33.12" height="0.25" style="fill: rgb(235, 235, 235); transform-origin: 433.34px 398.615px;" id="elhaja6sfv59o" class="animable"></rect><rect x="322.53" y="401.21" width="8.69" height="0.25" style="fill: rgb(235, 235, 235); transform-origin: 326.875px 401.335px;" id="el78ootaq2aer" class="animable"></rect><rect x="396.59" y="389.21" width="19.19" height="0.25" style="fill: rgb(235, 235, 235); transform-origin: 406.185px 389.335px;" id="elks0qrujmq3" class="animable"></rect><rect x="52.46" y="390.89" width="43.19" height="0.25" style="fill: rgb(235, 235, 235); transform-origin: 74.055px 391.015px;" id="elkpuwhdx161l" class="animable"></rect><rect x="104.56" y="390.89" width="6.33" height="0.25" style="fill: rgb(235, 235, 235); transform-origin: 107.725px 391.015px;" id="elyrs7revu4vk" class="animable"></rect><rect x="131.47" y="395.11" width="93.68" height="0.25" style="fill: rgb(235, 235, 235); transform-origin: 178.31px 395.235px;" id="el11ysrvw8qkjq" class="animable"></rect><path d="M237,337.8H43.91a5.71,5.71,0,0,1-5.7-5.71V60.66A5.71,5.71,0,0,1,43.91,55H237a5.71,5.71,0,0,1,5.71,5.71V332.09A5.71,5.71,0,0,1,237,337.8ZM43.91,55.2a5.46,5.46,0,0,0-5.45,5.46V332.09a5.46,5.46,0,0,0,5.45,5.46H237a5.47,5.47,0,0,0,5.46-5.46V60.66A5.47,5.47,0,0,0,237,55.2Z" style="fill: rgb(235, 235, 235); transform-origin: 140.46px 196.4px;" id="el4bo04n0pcy4" class="animable"></path><path d="M453.31,337.8H260.21a5.72,5.72,0,0,1-5.71-5.71V60.66A5.72,5.72,0,0,1,260.21,55h193.1A5.71,5.71,0,0,1,459,60.66V332.09A5.71,5.71,0,0,1,453.31,337.8ZM260.21,55.2a5.47,5.47,0,0,0-5.46,5.46V332.09a5.47,5.47,0,0,0,5.46,5.46h193.1a5.47,5.47,0,0,0,5.46-5.46V60.66a5.47,5.47,0,0,0-5.46-5.46Z" style="fill: rgb(235, 235, 235); transform-origin: 356.75px 196.4px;" id="elh53ii5glnst" class="animable"></path><rect x="51.37" y="175.65" width="175.28" height="8.22" style="fill: rgb(240, 240, 240); transform-origin: 139.01px 179.76px;" id="eld0cwnr03p06" class="animable"></rect><g id="el5qqzf7eye4n"><rect x="125.21" y="165.86" width="27.6" height="8.22" style="fill: rgb(240, 240, 240); transform-origin: 139.01px 169.97px; transform: rotate(90deg);" class="animable"></rect></g><rect x="70.07" y="175.65" width="17.37" height="8.18" style="fill: rgb(230, 230, 230); transform-origin: 78.755px 179.74px;" id="elyfgtgqbzqhg" class="animable"></rect><rect x="73.76" y="163" width="10" height="12.06" style="fill: rgb(230, 230, 230); transform-origin: 78.76px 169.03px;" id="el64n2idgp34h" class="animable"></rect><rect x="72.81" y="169.74" width="11.9" height="213.35" style="fill: rgb(240, 240, 240); transform-origin: 78.76px 276.415px;" id="elde4ku7ubc" class="animable"></rect><polygon points="86.08 166.74 71.44 166.74 68.23 155.77 89.29 155.77 86.08 166.74" style="fill: rgb(240, 240, 240); transform-origin: 78.76px 161.255px;" id="eldy141ucplp" class="animable"></polygon><rect x="72.81" y="349.72" width="11.9" height="33.37" style="fill: rgb(224, 224, 224); transform-origin: 78.76px 366.405px;" id="el6a5fdtqwujv" class="animable"></rect><rect x="190.58" y="175.65" width="17.37" height="8.18" style="fill: rgb(230, 230, 230); transform-origin: 199.265px 179.74px;" id="eld4oijnjs7n" class="animable"></rect><rect x="194.26" y="163" width="10" height="12.06" style="fill: rgb(230, 230, 230); transform-origin: 199.26px 169.03px;" id="elk95mekmqw6" class="animable"></rect><rect x="193.31" y="169.74" width="11.9" height="213.35" style="fill: rgb(240, 240, 240); transform-origin: 199.26px 276.415px;" id="ellcnku2ujsu9" class="animable"></rect><polygon points="206.58 166.74 191.95 166.74 188.73 155.77 209.79 155.77 206.58 166.74" style="fill: rgb(240, 240, 240); transform-origin: 199.26px 161.255px;" id="el4sozgluhmdv" class="animable"></polygon><rect x="193.31" y="353.74" width="11.9" height="29.35" style="fill: rgb(224, 224, 224); transform-origin: 199.26px 368.415px;" id="el2dnwqvrwd8i" class="animable"></rect><path d="M227.91,153.1a543.5,543.5,0,0,1-177.8,0c-.31,2.37-.63,4.75-.94,7.14C79,164.63,109,165.41,139,165.53c30-.12,60-.9,89.85-5.29C228.54,157.85,228.23,155.47,227.91,153.1Z" style="fill: rgb(230, 230, 230); transform-origin: 139.01px 159.315px;" id="elmr9dg8mzxmh" class="animable"></path><path d="M231.78,153.86c-30.74,6-61.75,7.38-92.77,7.52-31-.14-62-1.52-92.77-7.52q-3.35-6-6.54-12.62c32.78,9.7,66,12.41,99.31,12.6,33.27-.19,66.54-2.9,99.31-12.6Q235.13,147.81,231.78,153.86Z" style="fill: rgb(224, 224, 224); transform-origin: 139.01px 151.31px;" id="eluztqipx0guk" class="animable"></path><circle cx="170.91" cy="93.63" r="27.79" style="fill: rgb(250, 250, 250); transform-origin: 170.91px 93.63px;" id="el90sxmfbghg" class="animable"></circle><path d="M156.5,93.32a4.84,4.84,0,0,0-6.22-4.63A10.21,10.21,0,0,0,140.16,77a10.71,10.71,0,0,0-1.89.17,8.94,8.94,0,0,0-16.57,4.52h-.15a8.24,8.24,0,1,0,0,16.48H151.8A4.82,4.82,0,0,0,156.5,93.32Z" style="fill: rgb(240, 240, 240); transform-origin: 134.905px 85.5287px;" id="el2vcz6vz4cl2" class="animable"></path><path d="M443.73,150.37a4.83,4.83,0,0,0-4.83-4.83,4.92,4.92,0,0,0-1.39.21,10.45,10.45,0,0,0,.11-1.49A10.23,10.23,0,0,0,427.39,134a10.6,10.6,0,0,0-1.88.17,8.94,8.94,0,0,0-16.58,4.52h-.15a8.24,8.24,0,1,0,0,16.48H439A4.83,4.83,0,0,0,443.73,150.37Z" style="fill: rgb(240, 240, 240); transform-origin: 422.135px 142.521px;" id="elza18zcy364j" class="animable"></path><path d="M336.91,93.32a4.83,4.83,0,0,1,6.21-4.63A10.28,10.28,0,0,1,353.25,77a10.6,10.6,0,0,1,1.88.17,8.94,8.94,0,0,1,16.58,4.52h.15a8.24,8.24,0,1,1,0,16.48H341.6A4.82,4.82,0,0,1,336.91,93.32Z" style="fill: rgb(240, 240, 240); transform-origin: 358.505px 85.5206px;" id="eld87m8a3psbi" class="animable"></path><path d="M217.1,107.79a3,3,0,0,0-3.86-2.88,7,7,0,0,0,.07-.92A6.36,6.36,0,0,0,207,97.63a6.45,6.45,0,0,0-1.17.11,5.56,5.56,0,0,0-10.31,2.81h-.09a5.12,5.12,0,1,0,0,10.24h18.81A3,3,0,0,0,217.1,107.79Z" style="fill: rgb(240, 240, 240); transform-origin: 203.701px 102.929px;" id="elhpuw57yi9iu" class="animable"></path><path d="M307.52,170.86a3,3,0,0,1,3.86-2.88,7,7,0,0,1-.06-.92,6.36,6.36,0,0,1,6.36-6.36,6.45,6.45,0,0,1,1.17.11,5.55,5.55,0,0,1,10.3,2.81h.1a5.12,5.12,0,0,1,0,10.24H310.44A3,3,0,0,1,307.52,170.86Z" style="fill: rgb(240, 240, 240); transform-origin: 320.945px 165.995px;" id="elcb9tu31oed" class="animable"></path></g><g id="freepik--Shadow--inject-20" class="animable" style="transform-origin: 250px 416.24px;"><ellipse id="freepik--path--inject-20" cx="250" cy="416.24" rx="193.89" ry="11.32" style="fill: rgb(245, 245, 245); transform-origin: 250px 416.24px;" class="animable"></ellipse></g><g id="freepik--Plants--inject-20" class="animable" style="transform-origin: 266.881px 256.695px;"><path d="M341.07,413.15h4.82c2.05-27.31,10.38-156.58-5.19-279.91l-4.76.6C351.53,257.35,343.06,386.86,341.07,413.15Z" style="fill: rgb(64, 123, 255); transform-origin: 342.946px 273.195px;" id="elrmvv1dsyeue" class="animable"></path><path d="M356.77,413.15c3-38.68,15.13-175.66,45.46-287.76l-4.64-1.25C367.07,237,354.89,374.82,352,413.15Z" style="fill: rgb(64, 123, 255); transform-origin: 377.115px 268.645px;" id="el74vpm6vfr5n" class="animable"></path><path d="M366.73,411c4.52-31.37,23-142.71,64.78-198.82l-3.85-2.86c-25.86,34.77-42.66,89.92-52.2,130.06-7.59,31.94-11.91,59.7-13.68,72.28Z" style="fill: rgb(64, 123, 255); transform-origin: 396.645px 310.49px;" id="el4asynwh26lu" class="animable"></path><path d="M334.71,413.15c-.67-6-8.44-73.08-24.21-108.36l-4.39,1.95c14.92,33.36,22.81,98.19,23.76,106.41Z" style="fill: rgb(64, 123, 255); transform-origin: 320.41px 358.97px;" id="elov6sg11v0h" class="animable"></path><path d="M346.37,413.15c.22-2.82.5-6.7.81-11.53l-5.75-.37c-.33,5.06-.62,9.08-.84,11.9Z" style="fill: rgb(64, 123, 255); transform-origin: 343.885px 407.2px;" id="elph6boldjcz" class="animable"></path><path d="M343.3,365.56l5.76.23c-.49,12-1.1,23.77-1.81,34.84l-5.75-.37C342.21,389.24,342.81,377.56,343.3,365.56Zm1.09-35.74,5.76.12c-.23,11.64-.58,23.36-1,34.85l-5.76-.23C343.81,353.11,344.16,341.42,344.39,329.82Zm.33-35.74h5.76c0,11.5-.09,23.23-.31,34.87l-5.76-.11C344.63,317.23,344.74,305.54,344.72,294.08Zm-.45-35.73,5.76-.14c.28,11.43.43,23.16.45,34.87h-5.76C344.7,281.42,344.55,269.74,344.27,258.35ZM343,222.64l5.76-.28c.55,11.37,1,23.1,1.26,34.85l-5.76.14C344,245.65,343.54,234,343,222.64ZM340.78,187l5.74-.43c.87,11.3,1.6,23,2.18,34.81l-5.76.29C342.36,209.89,341.64,198.23,340.78,187Zm-3.27-35.55,5.73-.62c1.22,11.23,2.3,22.92,3.21,34.75l-5.75.44C339.8,174.23,338.72,162.6,337.51,151.43Z" style="fill: rgb(64, 123, 255); transform-origin: 343.995px 275.73px;" id="elgs4w6786lsm" class="animable"></path><path d="M337.42,150.55l5.73-.63c-.62-5.61-1.28-11.24-2-16.74l-5.72.72C336.15,139.37,336.81,145,337.42,150.55Z" style="fill: rgb(64, 123, 255); transform-origin: 339.29px 141.865px;" id="elaba57zjy7wp" class="animable"></path><path d="M381.92,219.22l-5.67-1c-2,10.74-3.87,21.91-5.68,33.19l5.69.92C378.06,241.05,380,229.92,381.92,219.22Z" style="fill: rgb(64, 123, 255); transform-origin: 376.245px 235.275px;" id="elnxh35oeqsf8" class="animable"></path><path d="M396,151.7l-5.6-1.35c-2.52,10.52-5,21.58-7.36,32.89l5.64,1.18C391.05,173.16,393.52,162.16,396,151.7Z" style="fill: rgb(64, 123, 255); transform-origin: 389.52px 167.385px;" id="elipibd7jzykq" class="animable"></path><path d="M388.51,185.36l-5.64-1.18c-2.22,10.64-4.38,21.76-6.45,33.07l5.67,1C384.15,207,386.3,195.94,388.51,185.36Z" style="fill: rgb(64, 123, 255); transform-origin: 382.465px 201.215px;" id="elgp7y4pwvrut" class="animable"></path><path d="M402.69,125.51l-5.56-1.5c-2.2,8.14-4.38,16.69-6.48,25.4l5.6,1.35C398.33,142.1,400.5,133.6,402.69,125.51Z" style="fill: rgb(64, 123, 255); transform-origin: 396.67px 137.385px;" id="elpd0droclgb" class="animable"></path><path d="M357.25,413.15c.43-5.66,1.05-13.41,1.9-22.83l-5.74-.52c-.87,9.69-1.51,17.63-1.94,23.35Z" style="fill: rgb(64, 123, 255); transform-origin: 355.31px 401.475px;" id="elmy16ifgevus" class="animable"></path><path d="M366.47,321.62l-5.72-.7c-1.36,11-2.66,22.29-3.85,33.45l5.73.61C363.82,343.85,365.11,332.63,366.47,321.62Z" style="fill: rgb(64, 123, 255); transform-origin: 361.685px 337.95px;" id="el21d220gp7u" class="animable"></path><path d="M362.53,355.94l-5.73-.61c-1.21,11.29-2.32,22.56-3.31,33.51l5.74.52C360.22,378.44,361.32,367.2,362.53,355.94Z" style="fill: rgb(64, 123, 255); transform-origin: 358.01px 372.345px;" id="eli58cvrxqlk" class="animable"></path><path d="M374.76,261.82c.44-2.84.89-5.71,1.35-8.58l-5.69-.91q-.69,4.32-1.36,8.61c-1.25,8.06-2.47,16.36-3.65,24.69l5.71.8C372.29,278.13,373.51,269.85,374.76,261.82Z" style="fill: rgb(64, 123, 255); transform-origin: 370.76px 269.38px;" id="elgmh0ed4wc3q" class="animable"></path><path d="M371,287.38l-5.7-.8c-1.54,10.93-3,22.16-4.41,33.38l5.72.71C368,309.48,369.45,298.28,371,287.38Z" style="fill: rgb(64, 123, 255); transform-origin: 365.945px 303.625px;" id="el2lglzsnqhro" class="animable"></path><path d="M377.89,352.4l-5.62-1.24c-2.4,10.83-4.62,22-6.6,33.13l5.67,1C373.31,374.23,375.52,363.16,377.89,352.4Z" style="fill: rgb(64, 123, 255); transform-origin: 371.78px 368.225px;" id="el961b1wa9fh5" class="animable"></path><path d="M408.53,253.94l-5.27-2.33c-4.26,9.64-8.39,20.27-12.27,31.59l5.45,1.87C400.27,273.9,404.33,263.43,408.53,253.94Z" style="fill: rgb(64, 123, 255); transform-origin: 399.76px 268.34px;" id="el04s393qihkrw" class="animable"></path><path d="M396.13,286l-5.45-1.86c-3.45,10.13-6.77,21-9.87,32.35l5.55,1.52C389.44,306.76,392.73,296,396.13,286Z" style="fill: rgb(64, 123, 255); transform-origin: 388.47px 301.075px;" id="el6s3jw7xrfvq" class="animable"></path><path d="M386.11,318.92l-5.56-1.52c-2.85,10.47-5.57,21.51-8.08,32.82l5.63,1.25C380.59,340.25,383.29,329.3,386.11,318.92Z" style="fill: rgb(64, 123, 255); transform-origin: 379.29px 334.435px;" id="eliqm7g56cga" class="animable"></path><path d="M367.21,410.91c.83-5.82,2.14-14.34,4-24.66l-5.67-1c-2,11.37-3.4,20.59-4.22,26.45Z" style="fill: rgb(64, 123, 255); transform-origin: 366.265px 398.475px;" id="elwwht2y05esp" class="animable"></path><path d="M427.28,209c-2.48,3.34-5,7-7.35,10.76l4.88,3.07c2.31-3.68,4.7-7.17,7.09-10.39Z" style="fill: rgb(64, 123, 255); transform-origin: 425.915px 215.915px;" id="elt8rssltx9ye" class="animable"></path><path d="M403.65,250.73l5.26,2.34a244,244,0,0,1,15.4-29.44l-4.9-3A249.07,249.07,0,0,0,403.65,250.73Z" style="fill: rgb(64, 123, 255); transform-origin: 413.98px 236.85px;" id="el0onogxcceqo" class="animable"></path><path d="M329.39,413.15h5.8c-.24-2.1-1.82-15.76-4.73-33.23l-5.68.95C327.45,396.94,329,409.72,329.39,413.15Z" style="fill: rgb(64, 123, 255); transform-origin: 329.985px 396.535px;" id="el2wjv78kk5ng" class="animable"></path><path d="M324.62,379.92l5.68-.95c-2-12-4.21-23.13-6.53-33.19l-5.62,1.29C320.45,357,322.63,368.08,324.62,379.92Z" style="fill: rgb(64, 123, 255); transform-origin: 324.225px 362.85px;" id="el601qnecetop" class="animable"></path><path d="M317.94,346.14l5.61-1.31A269.85,269.85,0,0,0,314,312.18l-5.39,2A264.78,264.78,0,0,1,317.94,346.14Z" style="fill: rgb(64, 123, 255); transform-origin: 316.08px 329.16px;" id="eler3gsb6fysv" class="animable"></path><path d="M313.69,311.27c-.9-2.36-1.83-4.61-2.75-6.68l-5.26,2.35c.88,2,1.76,4.12,2.63,6.38Z" style="fill: rgb(64, 123, 255); transform-origin: 309.685px 308.955px;" id="elj4y6m5a5jl" class="animable"></path><g id="eldyqpkpanrlv"><g style="opacity: 0.5; transform-origin: 342.955px 273.165px;" class="animable"><path d="M346.37,413.15c.22-2.82.5-6.7.81-11.53l-5.75-.37c-.33,5.06-.62,9.08-.84,11.9Z" style="fill: rgb(255, 255, 255); transform-origin: 343.885px 407.2px;" id="el56s9zpk9kk9" class="animable"></path><path d="M343.3,365.56l5.76.23c-.49,12-1.1,23.77-1.81,34.84l-5.75-.37C342.21,389.24,342.81,377.56,343.3,365.56Zm1.09-35.74,5.76.12c-.23,11.64-.58,23.36-1,34.85l-5.76-.23C343.81,353.11,344.16,341.42,344.39,329.82Zm.33-35.74h5.76c0,11.5-.09,23.23-.31,34.87l-5.76-.11C344.63,317.23,344.74,305.54,344.72,294.08Zm-.45-35.73,5.76-.14c.28,11.43.43,23.16.45,34.87h-5.76C344.7,281.42,344.55,269.74,344.27,258.35ZM343,222.64l5.76-.28c.55,11.37,1,23.1,1.26,34.85l-5.76.14C344,245.65,343.54,234,343,222.64ZM340.78,187l5.74-.43c.87,11.3,1.6,23,2.18,34.81l-5.76.29C342.36,209.89,341.64,198.23,340.78,187Zm-3.27-35.55,5.73-.62c1.22,11.23,2.3,22.92,3.21,34.75l-5.75.44C339.8,174.23,338.72,162.6,337.51,151.43Z" style="fill: rgb(255, 255, 255); transform-origin: 343.995px 275.73px;" id="eljnrix3eo2v" class="animable"></path><path d="M337.42,150.55l5.73-.63c-.62-5.61-1.28-11.24-2-16.74l-5.72.72C336.15,139.37,336.81,145,337.42,150.55Z" style="fill: rgb(255, 255, 255); transform-origin: 339.29px 141.865px;" id="elwhbooxog9y" class="animable"></path></g></g><g id="elxsczpn2q9n"><g style="opacity: 0.5; transform-origin: 377.08px 268.58px;" class="animable"><path d="M381.92,219.22l-5.67-1c-2,10.74-3.87,21.91-5.68,33.19l5.69.92C378.06,241.05,380,229.92,381.92,219.22Z" style="fill: rgb(255, 255, 255); transform-origin: 376.245px 235.275px;" id="elzfms0i2k5h9" class="animable"></path><path d="M396,151.7l-5.6-1.35c-2.52,10.52-5,21.58-7.36,32.89l5.64,1.18C391.05,173.16,393.52,162.16,396,151.7Z" style="fill: rgb(255, 255, 255); transform-origin: 389.52px 167.385px;" id="elesebwcbd7gb" class="animable"></path><path d="M374.76,261.82c.44-2.84.89-5.71,1.35-8.58l-5.69-.91q-.69,4.32-1.36,8.61c-1.25,8.06-2.47,16.36-3.65,24.69l5.71.8C372.29,278.13,373.51,269.85,374.76,261.82Z" style="fill: rgb(255, 255, 255); transform-origin: 370.76px 269.38px;" id="elhsgzdoy9cuw" class="animable"></path><path d="M402.69,125.51l-5.56-1.5c-2.2,8.14-4.38,16.69-6.48,25.4l5.6,1.35C398.33,142.1,400.5,133.6,402.69,125.51Z" style="fill: rgb(255, 255, 255); transform-origin: 396.67px 137.385px;" id="elf78nevn4jy6" class="animable"></path><path d="M388.51,185.36l-5.64-1.18c-2.22,10.64-4.38,21.76-6.45,33.07l5.67,1C384.15,207,386.3,195.94,388.51,185.36Z" style="fill: rgb(255, 255, 255); transform-origin: 382.465px 201.215px;" id="elf4j51veebu" class="animable"></path><path d="M371,287.38l-5.7-.8c-1.54,10.93-3,22.16-4.41,33.38l5.72.71C368,309.48,369.45,298.28,371,287.38Z" style="fill: rgb(255, 255, 255); transform-origin: 365.945px 303.625px;" id="el2qfdw1zy30e" class="animable"></path><path d="M357.25,413.15c.43-5.66,1.05-13.41,1.9-22.83l-5.74-.52c-.87,9.69-1.51,17.63-1.94,23.35Z" style="fill: rgb(255, 255, 255); transform-origin: 355.31px 401.475px;" id="elv0q9hewgogk" class="animable"></path><path d="M362.53,355.94l-5.73-.61c-1.21,11.29-2.32,22.56-3.31,33.51l5.74.52C360.22,378.44,361.32,367.2,362.53,355.94Z" style="fill: rgb(255, 255, 255); transform-origin: 358.01px 372.345px;" id="elm0qftslktok" class="animable"></path><path d="M366.47,321.62l-5.72-.7c-1.36,11-2.66,22.29-3.85,33.45l5.73.61C363.82,343.85,365.11,332.63,366.47,321.62Z" style="fill: rgb(255, 255, 255); transform-origin: 361.685px 337.95px;" id="elvhd5zx4lh0o" class="animable"></path></g></g><g id="elnnyhbblrbs"><g style="opacity: 0.5; transform-origin: 396.61px 310.35px;" class="animable"><path d="M386.11,318.92l-5.56-1.52c-2.85,10.47-5.57,21.51-8.08,32.82l5.63,1.25C380.59,340.25,383.29,329.3,386.11,318.92Z" style="fill: rgb(255, 255, 255); transform-origin: 379.29px 334.435px;" id="el16r6lgqdq3a" class="animable"></path><path d="M377.89,352.4l-5.62-1.24c-2.4,10.83-4.62,22-6.6,33.13l5.67,1C373.31,374.23,375.52,363.16,377.89,352.4Z" style="fill: rgb(255, 255, 255); transform-origin: 371.78px 368.225px;" id="ele8ir4bxkl3" class="animable"></path><path d="M396.13,286l-5.45-1.86c-3.45,10.13-6.77,21-9.87,32.35l5.55,1.52C389.44,306.76,392.73,296,396.13,286Z" style="fill: rgb(255, 255, 255); transform-origin: 388.47px 301.075px;" id="elypfk1van6gd" class="animable"></path><path d="M408.53,253.94l-5.27-2.33c-4.26,9.64-8.39,20.27-12.27,31.59l5.45,1.87C400.27,273.9,404.33,263.43,408.53,253.94Z" style="fill: rgb(255, 255, 255); transform-origin: 399.76px 268.34px;" id="eljpwsx76dcad" class="animable"></path><path d="M367.21,410.91c.83-5.82,2.14-14.34,4-24.66l-5.67-1c-2,11.37-3.4,20.59-4.22,26.45Z" style="fill: rgb(255, 255, 255); transform-origin: 366.265px 398.475px;" id="el0s4m0jqkywf" class="animable"></path><path d="M427.28,209c-2.48,3.34-5,7-7.35,10.76l4.88,3.07c2.31-3.68,4.7-7.17,7.09-10.39Z" style="fill: rgb(255, 255, 255); transform-origin: 425.915px 215.915px;" id="el7ppha6nakjj" class="animable"></path><path d="M403.65,250.73l5.26,2.34a244,244,0,0,1,15.4-29.44l-4.9-3A249.07,249.07,0,0,0,403.65,250.73Z" style="fill: rgb(255, 255, 255); transform-origin: 413.98px 236.85px;" id="elpsp3emc7ko8" class="animable"></path></g></g><g id="el62g81r7omlh"><g style="opacity: 0.5; transform-origin: 320.435px 358.87px;" class="animable"><path d="M324.62,379.92l5.68-.95c-2-12-4.21-23.13-6.53-33.19l-5.62,1.29C320.45,357,322.63,368.08,324.62,379.92Z" style="fill: rgb(255, 255, 255); transform-origin: 324.225px 362.85px;" id="el3b6ibhq6e09" class="animable"></path><path d="M329.39,413.15h5.8c-.24-2.1-1.82-15.76-4.73-33.23l-5.68.95C327.45,396.94,329,409.72,329.39,413.15Z" style="fill: rgb(255, 255, 255); transform-origin: 329.985px 396.535px;" id="elu3zsadk8vns" class="animable"></path><path d="M317.94,346.14l5.61-1.31A269.85,269.85,0,0,0,314,312.18l-5.39,2A264.78,264.78,0,0,1,317.94,346.14Z" style="fill: rgb(255, 255, 255); transform-origin: 316.08px 329.16px;" id="elwlhtczircmh" class="animable"></path><path d="M313.69,311.27c-.9-2.36-1.83-4.61-2.75-6.68l-5.26,2.35c.88,2,1.76,4.12,2.63,6.38Z" style="fill: rgb(255, 255, 255); transform-origin: 309.685px 308.955px;" id="elnmx5qhf1a17" class="animable"></path></g></g><path d="M382.4,415.75H314.33s8.39-10.5,32.93-10.5S382.4,415.75,382.4,415.75Z" style="fill: rgb(64, 123, 255); transform-origin: 348.365px 410.5px;" id="eliz97ahjyp" class="animable"></path><path d="M335.46,133.9a19.44,19.44,0,0,0-1.9-4.79,18.55,18.55,0,0,0,2.64,3,17.23,17.23,0,0,0,.1-2,19.85,19.85,0,0,0,1.28,2.49c6.48-10.31-1.24-21-1.24-21a19,19,0,0,0-2.13,8.33,31,31,0,0,0-2.34-4.82,20.91,20.91,0,0,0-3.8-4.79,20.92,20.92,0,0,0,.26,6.11,32.46,32.46,0,0,0,1.56,5.62,33,33,0,0,0,2.3,4.89,12.93,12.93,0,0,0-10.46-5.47S316.91,131.32,335.46,133.9Z" style="fill: rgb(64, 123, 255); transform-origin: 330.668px 122.11px;" id="elkpcynucqfa" class="animable"></path><path d="M341.18,133.18C353.65,130.34,351,121,351,121a13.38,13.38,0,0,0-3.77,1.53c.49-1.1,1-2.21,1.39-3.33a60,60,0,0,0,2.36-7.62,36.37,36.37,0,0,0,1.07-8.1,36.22,36.22,0,0,0-4.6,6.76,58.42,58.42,0,0,0-3.32,7.25,61.66,61.66,0,0,0-2.35,7.62,37,37,0,0,0-1.08,8.1c.18-.2.34-.42.52-.63C341.18,133,341.18,133.18,341.18,133.18Z" style="fill: rgb(64, 123, 255); transform-origin: 346.375px 118.345px;" id="el3vw23crw1tl" class="animable"></path><path d="M388.7,184.42l-.19.94c8.87,3.37,14.27-3.85,14.27-3.85C395.3,180.14,388.7,184.42,388.7,184.42Z" style="fill: rgb(64, 123, 255); transform-origin: 395.645px 183.748px;" id="eldchi3vs2k5j" class="animable"></path><path d="M328,219.14a32.45,32.45,0,0,0,15,3.5S333,217.8,328,219.14Z" style="fill: rgb(64, 123, 255); transform-origin: 335.5px 220.774px;" id="el86t7flyaxdg" class="animable"></path><path d="M308.85,289.07s-3.37,10.29,2.09,15.52C310.94,304.59,312.78,293.56,308.85,289.07Z" style="fill: rgb(64, 123, 255); transform-origin: 309.596px 296.83px;" id="el6u1gidawlan" class="animable"></path><path d="M292.15,304.14a15.55,15.55,0,0,0,13.53,2.8S297.72,301.54,292.15,304.14Z" style="fill: rgb(64, 123, 255); transform-origin: 298.915px 305.44px;" id="elv28dbi6eeg" class="animable"></path><path d="M308.07,347.5s2.58,4,10.08-.43C318.15,347.07,314.05,344.21,308.07,347.5Z" style="fill: rgb(64, 123, 255); transform-origin: 313.11px 347.537px;" id="ellgl1llqto4" class="animable"></path><path d="M378.34,352.4s3.08,3.62,9.93-1.75C388.27,350.65,383.83,348.36,378.34,352.4Z" style="fill: rgb(64, 123, 255); transform-origin: 383.305px 351.798px;" id="el4b7eqmnidl8" class="animable"></path><path d="M404.88,253s-2.72-4.2-9.49-3.41C395.39,249.6,396.26,254.28,404.88,253Z" style="fill: rgb(64, 123, 255); transform-origin: 400.135px 251.356px;" id="elk2nyqwyhmq" class="animable"></path><path d="M437.32,210a28.17,28.17,0,0,0,4.21-3.29,29.4,29.4,0,0,0,3.64-4.14,19.22,19.22,0,0,0,2.7-5.13,19,19,0,0,0-5.28,2.39,28.9,28.9,0,0,0-4.35,3.38,28.25,28.25,0,0,0-3.64,4.14,18.66,18.66,0,0,0-2.7,5.13c4.62,3.44,17.15.38,17.15.38A11.56,11.56,0,0,0,437.32,210Z" style="fill: rgb(64, 123, 255); transform-origin: 440.475px 205.777px;" id="el2911qqgkf2j" class="animable"></path><path d="M411.53,107s-10.74,3-11.62,17.81C399.91,124.76,413.78,116.53,411.53,107Z" style="fill: rgb(64, 123, 255); transform-origin: 405.843px 115.905px;" id="el1i2vd5t199x" class="animable"></path><path d="M429.27,208.59c.08.7.18,1.41.32,2.13a25.65,25.65,0,0,0,1.58-3c5.64-3.07,9.57-10.87,10.94-13.92l-1.23.16a12.34,12.34,0,0,0-6.26,2.78c0-.16.07-.32.1-.49a53.79,53.79,0,0,0,.89-7.52,33.18,33.18,0,0,0-.47-7.78,33,33,0,0,0-3.24,7.08,54.17,54.17,0,0,0-1.89,7.34c-.18,1-.33,1.94-.46,2.91.64-5.35.4-11.17-2.95-13.44A42.5,42.5,0,0,0,424,193.2a9,9,0,0,0-1.59-2.23,8.86,8.86,0,0,0-2.47-1.76,7.9,7.9,0,0,0-3.44-.78,7.91,7.91,0,0,0,.76,3.44,8.88,8.88,0,0,0,4.21,4.23,8.61,8.61,0,0,0,2,.65c-.32,3.71.11,7.6,2.28,10.57a9.58,9.58,0,0,0-1.2-.87,10.18,10.18,0,0,0-3-1.23,9.89,9.89,0,0,0-3.27-.22,8.56,8.56,0,0,0-3.57,1.12,8.7,8.7,0,0,0,2.73,2.56,10.42,10.42,0,0,0,3,1.22,10.16,10.16,0,0,0,3.27.21,8.72,8.72,0,0,0,3.58-1.11A8.91,8.91,0,0,0,429.27,208.59Zm.15-9.26c-.14,1.19-.24,2.4-.29,3.61,0,.42,0,.84,0,1.26a31.83,31.83,0,0,0-1.55,3.86A64.68,64.68,0,0,0,429.42,199.33Z" style="fill: rgb(64, 123, 255); transform-origin: 428.41px 195.835px;" id="elabn23pepycf" class="animable"></path><path d="M314.63,300.87a7.39,7.39,0,0,0,1.95-2.19,7.85,7.85,0,0,0,.94-2.66,7.63,7.63,0,0,0-.09-2.81,7.18,7.18,0,0,0-1.44-3,7.25,7.25,0,0,0-2.29,2.45,7.7,7.7,0,0,0-.84,5.48,7.31,7.31,0,0,0,1.43,3h0a17.79,17.79,0,0,0-3.37,3.47c8.48,1.55,14.62-5.33,14.62-5.33C321.09,297.31,317.26,298.93,314.63,300.87Z" style="fill: rgb(64, 123, 255); transform-origin: 318.23px 297.524px;" id="elo97w72y37vm" class="animable"></path><path d="M361.15,246.11s.59,3.6,9.27,6.22C370.42,252.33,366.84,245.94,361.15,246.11Z" style="fill: rgb(64, 123, 255); transform-origin: 365.785px 249.218px;" id="elt1gb7agvnae" class="animable"></path><path d="M381.64,278.48A38.5,38.5,0,0,0,391,283.2S390.15,278.56,381.64,278.48Z" style="fill: rgb(64, 123, 255); transform-origin: 386.32px 280.84px;" id="eleeez6qeh89" class="animable"></path><path d="M357.75,376.94s2.08,7.3,7.75,8.3C365.5,385.24,362.93,377.09,357.75,376.94Z" style="fill: rgb(64, 123, 255); transform-origin: 361.625px 381.09px;" id="eltatgyaogbnl" class="animable"></path><path d="M366.59,320.67c5.83-.25,9.34-10,9.34-10C370.82,311.91,366.59,320.67,366.59,320.67Z" style="fill: rgb(64, 123, 255); transform-origin: 371.26px 315.67px;" id="elgnh1tfz6gqq" class="animable"></path><path d="M417.33,214.72a6.55,6.55,0,0,0-2.35-1.16,6.7,6.7,0,0,0-3.19-.08,6.8,6.8,0,0,0,.88,3.07,6.61,6.61,0,0,0,1.73,2,6.39,6.39,0,0,0,2.35,1.16,6.66,6.66,0,0,0,3.18.08,6.73,6.73,0,0,0-2.6-5Z" style="fill: rgb(64, 123, 255); transform-origin: 415.86px 216.635px;" id="elqpslaxi006" class="animable"></path><path d="M385.79,129.56a17.26,17.26,0,0,0,4.26-.71,17.66,17.66,0,0,0,4-1.7,12.94,12.94,0,0,0,3.58-3,4.61,4.61,0,0,0-.46-.13s3.6-13.73-5.74-17.87c0,0-4.73,11.31,5.73,17.87a13,13,0,0,0-4.17-.47,17.82,17.82,0,0,0-8.22,2.4,12.81,12.81,0,0,0-3.58,3A12.63,12.63,0,0,0,385.79,129.56Z" style="fill: rgb(64, 123, 255); transform-origin: 389.521px 117.864px;" id="elnvcc3sah4u" class="animable"></path><path d="M388.71,147.13a5.49,5.49,0,0,0-4.56-.87,6.16,6.16,0,0,0-2.64,1.42,6.21,6.21,0,0,0,1.93,2.29,5.54,5.54,0,0,0,2.19.94,5.66,5.66,0,0,0,2.38-.08,6.16,6.16,0,0,0,2.64-1.42A6.17,6.17,0,0,0,388.71,147.13Z" style="fill: rgb(64, 123, 255); transform-origin: 386.08px 148.546px;" id="elwqicj6jn7w" class="animable"></path><path d="M353,179.35a8.68,8.68,0,0,0-2.78,1.09,8.89,8.89,0,0,0-2.24,2,7.88,7.88,0,0,0-1.53,3.14,7.68,7.68,0,0,0,3.49.07,8.59,8.59,0,0,0,2.78-1.09,8.21,8.21,0,0,0,2.25-2,7.81,7.81,0,0,0,1.53-3.14A7.88,7.88,0,0,0,353,179.35Z" style="fill: rgb(64, 123, 255); transform-origin: 351.475px 182.502px;" id="eleze62xbq18r" class="animable"></path><path d="M336.79,140.81a19.5,19.5,0,0,0-5.87-.22,30.55,30.55,0,0,0-10.67,3.16,19.3,19.3,0,0,0-4.8,3.39,19.19,19.19,0,0,0,5.87.23,29.38,29.38,0,0,0,5.48-1.09A30.4,30.4,0,0,0,332,144.2,19.94,19.94,0,0,0,336.79,140.81Z" style="fill: rgb(64, 123, 255); transform-origin: 326.12px 143.98px;" id="elrn265visc" class="animable"></path><path d="M407.85,133.66a10.76,10.76,0,0,0-2.94-1.68,9,9,0,0,0-3.78-.6,9,9,0,0,0,1.44,3.55,11.17,11.17,0,0,0,2.3,2.49,10.83,10.83,0,0,0,2.93,1.67,8.94,8.94,0,0,0,3.79.61,9,9,0,0,0-1.44-3.56A10.69,10.69,0,0,0,407.85,133.66Z" style="fill: rgb(64, 123, 255); transform-origin: 406.36px 135.54px;" id="elmmyza1hffie" class="animable"></path><path d="M405.75,120.56a20,20,0,0,0-3.52,4.83c.43-.06.85-.15,1.27-.24-.52.22-.81.36-.81.36,9.71,5.23,16-.53,16-.53a18.84,18.84,0,0,0-11.88-.88c.38-.15.75-.31,1.11-.47a31.2,31.2,0,0,0,9.23-6.58,20,20,0,0,0,3.52-4.83A20,20,0,0,0,415,114a30.37,30.37,0,0,0-4.91,2.88A30.94,30.94,0,0,0,405.75,120.56Z" style="fill: rgb(64, 123, 255); transform-origin: 411.45px 119.962px;" id="elo13wijdcc2" class="animable"></path><path d="M399.53,108.38a9.86,9.86,0,0,0,2.75,2.91,9.84,9.84,0,0,0,.88-3.91,12.69,12.69,0,0,0-.44-3.56,12,12,0,0,0-1.44-3.27,9.66,9.66,0,0,0-2.76-2.91,9.81,9.81,0,0,0-.88,3.91,12.49,12.49,0,0,0,1.89,6.83Z" style="fill: rgb(64, 123, 255); transform-origin: 400.4px 104.465px;" id="elismncyz4vy" class="animable"></path><path d="M383.69,121.08a9.59,9.59,0,0,0,3,1,9.72,9.72,0,0,0,3.18,0,8.44,8.44,0,0,0,3.38-1.38,8.43,8.43,0,0,0-2.81-2.34,10,10,0,0,0-3-1,9.71,9.71,0,0,0-3.18,0,8.29,8.29,0,0,0-3.38,1.38A8.35,8.35,0,0,0,383.69,121.08Z" style="fill: rgb(64, 123, 255); transform-origin: 387.065px 119.72px;" id="elqcbaoy0kzqm" class="animable"></path><path d="M420.21,134.89a7.81,7.81,0,0,0-1.85-2.91,8.39,8.39,0,0,0-2.41-1.66,8.6,8.6,0,0,0-2.85-.72,7.72,7.72,0,0,0-3.4.52,7.6,7.6,0,0,0,1.85,2.91,8.38,8.38,0,0,0,5.25,2.39A7.5,7.5,0,0,0,420.21,134.89Z" style="fill: rgb(64, 123, 255); transform-origin: 414.955px 132.511px;" id="elzi0q9qk6l1r" class="animable"></path><path d="M434.32,216.4a6.34,6.34,0,0,0-2.43-.8,6.51,6.51,0,0,0-3.12.38,6.67,6.67,0,0,0,1.24,2.88,6.53,6.53,0,0,0,1.91,1.7,6.29,6.29,0,0,0,2.43.81,6.67,6.67,0,0,0,3.12-.39,6.56,6.56,0,0,0-1.23-2.88A6.17,6.17,0,0,0,434.32,216.4Z" style="fill: rgb(64, 123, 255); transform-origin: 433.12px 218.482px;" id="el76h8bdyu0a3" class="animable"></path><path d="M406.86,285.19a12.4,12.4,0,0,0-7-.72,9.77,9.77,0,0,0-3.71,1.51,10,10,0,0,0,3.32,2.24,12.27,12.27,0,0,0,7,.73,9.73,9.73,0,0,0,3.7-1.51A9.6,9.6,0,0,0,406.86,285.19Z" style="fill: rgb(64, 123, 255); transform-origin: 403.16px 286.711px;" id="elcss4uq1lo9f" class="animable"></path><path d="M341.35,363.11a6.31,6.31,0,0,0-4.84-1.26,6.61,6.61,0,0,0-2.9,1.21,6.7,6.7,0,0,0,1.95,2.45,6.22,6.22,0,0,0,2.3,1.12,6.39,6.39,0,0,0,2.55.12,6.59,6.59,0,0,0,2.89-1.19A6.42,6.42,0,0,0,341.35,363.11Z" style="fill: rgb(64, 123, 255); transform-origin: 338.455px 364.301px;" id="elyf5bf469ddc" class="animable"></path><path d="M352.74,288.07a3.22,3.22,0,0,0-1.57.87,3.28,3.28,0,0,0-.83,1.59,5.1,5.1,0,0,0,.14,2.55,5.23,5.23,0,0,0,2.55.09,3.3,3.3,0,0,0,1.57-.87,3.17,3.17,0,0,0,.84-1.59,5,5,0,0,0-.15-2.55A5.11,5.11,0,0,0,352.74,288.07Z" style="fill: rgb(64, 123, 255); transform-origin: 352.89px 290.618px;" id="els4hw2rt8n2d" class="animable"></path><path d="M305.76,297.57a8.73,8.73,0,0,0-1.9-2.33,7.75,7.75,0,0,0-3.09-1.66,7.77,7.77,0,0,0-.2,3.5,8.42,8.42,0,0,0,1,2.84,8.73,8.73,0,0,0,1.9,2.33,7.83,7.83,0,0,0,3.08,1.66,7.77,7.77,0,0,0,.2-3.5A8.86,8.86,0,0,0,305.76,297.57Z" style="fill: rgb(64, 123, 255); transform-origin: 303.66px 298.745px;" id="elscva11apy2" class="animable"></path><path d="M297.42,308.29a6.91,6.91,0,0,0-3.76,4.35,6.83,6.83,0,0,0,7.91-1.53,7,7,0,0,0,1.61-2.79,7,7,0,0,0-5.76,0Z" style="fill: rgb(64, 123, 255); transform-origin: 298.42px 310.495px;" id="el6zz0d54d1rv" class="animable"></path><path d="M321.71,308.78a7.4,7.4,0,0,0-2.42-1.43,7.73,7.73,0,0,0-2.78-.45,7.24,7.24,0,0,0-3.24.82,7.28,7.28,0,0,0,2,2.71,7.62,7.62,0,0,0,2.42,1.43,7.5,7.5,0,0,0,2.77.46,7.14,7.14,0,0,0,3.25-.83A7.28,7.28,0,0,0,321.71,308.78Z" style="fill: rgb(64, 123, 255); transform-origin: 318.49px 309.61px;" id="elqwpouo04px" class="animable"></path><g id="elvnk8f0v341s"><g style="opacity: 0.3; transform-origin: 370.6px 241.44px;" class="animable"><path d="M335.46,133.9a19.44,19.44,0,0,0-1.9-4.79,18.55,18.55,0,0,0,2.64,3,17.23,17.23,0,0,0,.1-2,19.85,19.85,0,0,0,1.28,2.49c6.48-10.31-1.24-21-1.24-21a19,19,0,0,0-2.13,8.33,31,31,0,0,0-2.34-4.82,20.91,20.91,0,0,0-3.8-4.79,20.92,20.92,0,0,0,.26,6.11,32.46,32.46,0,0,0,1.56,5.62,33,33,0,0,0,2.3,4.89,12.93,12.93,0,0,0-10.46-5.47S316.91,131.32,335.46,133.9Z" style="fill: rgb(255, 255, 255); transform-origin: 330.668px 122.11px;" id="elr4t1cli4dx" class="animable"></path><path d="M341.18,133.18C353.65,130.34,351,121,351,121a13.38,13.38,0,0,0-3.77,1.53c.49-1.1,1-2.21,1.39-3.33a60,60,0,0,0,2.36-7.62,36.37,36.37,0,0,0,1.07-8.1,36.22,36.22,0,0,0-4.6,6.76,58.42,58.42,0,0,0-3.32,7.25,61.66,61.66,0,0,0-2.35,7.62,37,37,0,0,0-1.08,8.1c.18-.2.34-.42.52-.63C341.18,133,341.18,133.18,341.18,133.18Z" style="fill: rgb(255, 255, 255); transform-origin: 346.375px 118.345px;" id="el79wvuzg5lnn" class="animable"></path><path d="M388.7,184.42l-.19.94c8.87,3.37,14.27-3.85,14.27-3.85C395.3,180.14,388.7,184.42,388.7,184.42Z" style="fill: rgb(255, 255, 255); transform-origin: 395.645px 183.748px;" id="elwh5l05fhbx" class="animable"></path><path d="M328,219.14a32.45,32.45,0,0,0,15,3.5S333,217.8,328,219.14Z" style="fill: rgb(255, 255, 255); transform-origin: 335.5px 220.774px;" id="elrmsmxndbaje" class="animable"></path><path d="M308.85,289.07s-3.37,10.29,2.09,15.52C310.94,304.59,312.78,293.56,308.85,289.07Z" style="fill: rgb(255, 255, 255); transform-origin: 309.596px 296.83px;" id="el3zx1tfofoei" class="animable"></path><path d="M292.15,304.14a15.55,15.55,0,0,0,13.53,2.8S297.72,301.54,292.15,304.14Z" style="fill: rgb(255, 255, 255); transform-origin: 298.915px 305.44px;" id="elt5w19strt4" class="animable"></path><path d="M308.07,347.5s2.58,4,10.08-.43C318.15,347.07,314.05,344.21,308.07,347.5Z" style="fill: rgb(255, 255, 255); transform-origin: 313.11px 347.537px;" id="eltwza9ayz5l" class="animable"></path><path d="M378.34,352.4s3.08,3.62,9.93-1.75C388.27,350.65,383.83,348.36,378.34,352.4Z" style="fill: rgb(255, 255, 255); transform-origin: 383.305px 351.798px;" id="elcinweeyp1h" class="animable"></path><path d="M404.88,253s-2.72-4.2-9.49-3.41C395.39,249.6,396.26,254.28,404.88,253Z" style="fill: rgb(255, 255, 255); transform-origin: 400.135px 251.356px;" id="elvjgqml05kmn" class="animable"></path><path d="M437.32,210a28.17,28.17,0,0,0,4.21-3.29,29.4,29.4,0,0,0,3.64-4.14,19.22,19.22,0,0,0,2.7-5.13,19,19,0,0,0-5.28,2.39,28.9,28.9,0,0,0-4.35,3.38,28.25,28.25,0,0,0-3.64,4.14,18.66,18.66,0,0,0-2.7,5.13c4.62,3.44,17.15.38,17.15.38A11.56,11.56,0,0,0,437.32,210Z" style="fill: rgb(255, 255, 255); transform-origin: 440.475px 205.777px;" id="elchm971z1s5" class="animable"></path><path d="M411.53,107s-10.74,3-11.62,17.81C399.91,124.76,413.78,116.53,411.53,107Z" style="fill: rgb(255, 255, 255); transform-origin: 405.843px 115.905px;" id="elbpb2tkr0d9b" class="animable"></path><path d="M429.27,208.59c.08.7.18,1.41.32,2.13a25.65,25.65,0,0,0,1.58-3c5.64-3.07,9.57-10.87,10.94-13.92l-1.23.16a12.34,12.34,0,0,0-6.26,2.78c0-.16.07-.32.1-.49a53.79,53.79,0,0,0,.89-7.52,33.18,33.18,0,0,0-.47-7.78,33,33,0,0,0-3.24,7.08,54.17,54.17,0,0,0-1.89,7.34c-.18,1-.33,1.94-.46,2.91.64-5.35.4-11.17-2.95-13.44A42.5,42.5,0,0,0,424,193.2a9,9,0,0,0-1.59-2.23,8.86,8.86,0,0,0-2.47-1.76,7.9,7.9,0,0,0-3.44-.78,7.91,7.91,0,0,0,.76,3.44,8.88,8.88,0,0,0,4.21,4.23,8.61,8.61,0,0,0,2,.65c-.32,3.71.11,7.6,2.28,10.57a9.58,9.58,0,0,0-1.2-.87,10.18,10.18,0,0,0-3-1.23,9.89,9.89,0,0,0-3.27-.22,8.56,8.56,0,0,0-3.57,1.12,8.7,8.7,0,0,0,2.73,2.56,10.42,10.42,0,0,0,3,1.22,10.16,10.16,0,0,0,3.27.21,8.72,8.72,0,0,0,3.58-1.11A8.91,8.91,0,0,0,429.27,208.59Zm.15-9.26c-.14,1.19-.24,2.4-.29,3.61,0,.42,0,.84,0,1.26a31.83,31.83,0,0,0-1.55,3.86A64.68,64.68,0,0,0,429.42,199.33Z" style="fill: rgb(255, 255, 255); transform-origin: 428.41px 195.835px;" id="elyyi6drvcyst" class="animable"></path><path d="M314.63,300.87a7.39,7.39,0,0,0,1.95-2.19,7.85,7.85,0,0,0,.94-2.66,7.63,7.63,0,0,0-.09-2.81,7.18,7.18,0,0,0-1.44-3,7.25,7.25,0,0,0-2.29,2.45,7.7,7.7,0,0,0-.84,5.48,7.31,7.31,0,0,0,1.43,3h0a17.79,17.79,0,0,0-3.37,3.47c8.48,1.55,14.62-5.33,14.62-5.33C321.09,297.31,317.26,298.93,314.63,300.87Z" style="fill: rgb(255, 255, 255); transform-origin: 318.23px 297.524px;" id="el82nbrgwyeuq" class="animable"></path><path d="M361.15,246.11s.59,3.6,9.27,6.22C370.42,252.33,366.84,245.94,361.15,246.11Z" style="fill: rgb(255, 255, 255); transform-origin: 365.785px 249.218px;" id="elpmaifmhb22s" class="animable"></path><path d="M381.64,278.48A38.5,38.5,0,0,0,391,283.2S390.15,278.56,381.64,278.48Z" style="fill: rgb(255, 255, 255); transform-origin: 386.32px 280.84px;" id="eltgoqidmtpy9" class="animable"></path><path d="M357.75,376.94s2.08,7.3,7.75,8.3C365.5,385.24,362.93,377.09,357.75,376.94Z" style="fill: rgb(255, 255, 255); transform-origin: 361.625px 381.09px;" id="el9ch82iba4vr" class="animable"></path><path d="M366.59,320.67c5.83-.25,9.34-10,9.34-10C370.82,311.91,366.59,320.67,366.59,320.67Z" style="fill: rgb(255, 255, 255); transform-origin: 371.26px 315.67px;" id="elbqcy4irvqku" class="animable"></path><path d="M417.33,214.72a6.55,6.55,0,0,0-2.35-1.16,6.7,6.7,0,0,0-3.19-.08,6.8,6.8,0,0,0,.88,3.07,6.61,6.61,0,0,0,1.73,2,6.39,6.39,0,0,0,2.35,1.16,6.66,6.66,0,0,0,3.18.08,6.73,6.73,0,0,0-2.6-5Z" style="fill: rgb(255, 255, 255); transform-origin: 415.86px 216.635px;" id="el31r4fln8uge" class="animable"></path><path d="M385.79,129.56a17.26,17.26,0,0,0,4.26-.71,17.66,17.66,0,0,0,4-1.7,12.94,12.94,0,0,0,3.58-3,4.61,4.61,0,0,0-.46-.13s3.6-13.73-5.74-17.87c0,0-4.73,11.31,5.73,17.87a13,13,0,0,0-4.17-.47,17.82,17.82,0,0,0-8.22,2.4,12.81,12.81,0,0,0-3.58,3A12.63,12.63,0,0,0,385.79,129.56Z" style="fill: rgb(255, 255, 255); transform-origin: 389.521px 117.864px;" id="elahy92le4vjv" class="animable"></path><path d="M388.71,147.13a5.49,5.49,0,0,0-4.56-.87,6.16,6.16,0,0,0-2.64,1.42,6.21,6.21,0,0,0,1.93,2.29,5.54,5.54,0,0,0,2.19.94,5.66,5.66,0,0,0,2.38-.08,6.16,6.16,0,0,0,2.64-1.42A6.17,6.17,0,0,0,388.71,147.13Z" style="fill: rgb(255, 255, 255); transform-origin: 386.08px 148.546px;" id="el60dbkdss615" class="animable"></path><path d="M353,179.35a8.68,8.68,0,0,0-2.78,1.09,8.89,8.89,0,0,0-2.24,2,7.88,7.88,0,0,0-1.53,3.14,7.68,7.68,0,0,0,3.49.07,8.59,8.59,0,0,0,2.78-1.09,8.21,8.21,0,0,0,2.25-2,7.81,7.81,0,0,0,1.53-3.14A7.88,7.88,0,0,0,353,179.35Z" style="fill: rgb(255, 255, 255); transform-origin: 351.475px 182.502px;" id="eloo06l1b5tfn" class="animable"></path><path d="M336.79,140.81a19.5,19.5,0,0,0-5.87-.22,30.55,30.55,0,0,0-10.67,3.16,19.3,19.3,0,0,0-4.8,3.39,19.19,19.19,0,0,0,5.87.23,29.38,29.38,0,0,0,5.48-1.09A30.4,30.4,0,0,0,332,144.2,19.94,19.94,0,0,0,336.79,140.81Z" style="fill: rgb(255, 255, 255); transform-origin: 326.12px 143.98px;" id="el30mwicfxn8" class="animable"></path><path d="M407.85,133.66a10.76,10.76,0,0,0-2.94-1.68,9,9,0,0,0-3.78-.6,9,9,0,0,0,1.44,3.55,11.17,11.17,0,0,0,2.3,2.49,10.83,10.83,0,0,0,2.93,1.67,8.94,8.94,0,0,0,3.79.61,9,9,0,0,0-1.44-3.56A10.69,10.69,0,0,0,407.85,133.66Z" style="fill: rgb(255, 255, 255); transform-origin: 406.36px 135.54px;" id="el12towdq1k4zk" class="animable"></path><path d="M405.75,120.56a20,20,0,0,0-3.52,4.83c.43-.06.85-.15,1.27-.24-.52.22-.81.36-.81.36,9.71,5.23,16-.53,16-.53a18.84,18.84,0,0,0-11.88-.88c.38-.15.75-.31,1.11-.47a31.2,31.2,0,0,0,9.23-6.58,20,20,0,0,0,3.52-4.83A20,20,0,0,0,415,114a30.37,30.37,0,0,0-4.91,2.88A30.94,30.94,0,0,0,405.75,120.56Z" style="fill: rgb(255, 255, 255); transform-origin: 411.45px 119.962px;" id="elnf76gwdmwx" class="animable"></path><path d="M399.53,108.38a9.86,9.86,0,0,0,2.75,2.91,9.84,9.84,0,0,0,.88-3.91,12.69,12.69,0,0,0-.44-3.56,12,12,0,0,0-1.44-3.27,9.66,9.66,0,0,0-2.76-2.91,9.81,9.81,0,0,0-.88,3.91,12.49,12.49,0,0,0,1.89,6.83Z" style="fill: rgb(255, 255, 255); transform-origin: 400.4px 104.465px;" id="elltfxqz085b" class="animable"></path><path d="M383.69,121.08a9.59,9.59,0,0,0,3,1,9.72,9.72,0,0,0,3.18,0,8.44,8.44,0,0,0,3.38-1.38,8.43,8.43,0,0,0-2.81-2.34,10,10,0,0,0-3-1,9.71,9.71,0,0,0-3.18,0,8.29,8.29,0,0,0-3.38,1.38A8.35,8.35,0,0,0,383.69,121.08Z" style="fill: rgb(255, 255, 255); transform-origin: 387.065px 119.72px;" id="elb7f5s4i9alt" class="animable"></path><path d="M420.21,134.89a7.81,7.81,0,0,0-1.85-2.91,8.39,8.39,0,0,0-2.41-1.66,8.6,8.6,0,0,0-2.85-.72,7.72,7.72,0,0,0-3.4.52,7.6,7.6,0,0,0,1.85,2.91,8.38,8.38,0,0,0,5.25,2.39A7.5,7.5,0,0,0,420.21,134.89Z" style="fill: rgb(255, 255, 255); transform-origin: 414.955px 132.511px;" id="elsci9izarif" class="animable"></path><path d="M434.32,216.4a6.34,6.34,0,0,0-2.43-.8,6.51,6.51,0,0,0-3.12.38,6.67,6.67,0,0,0,1.24,2.88,6.53,6.53,0,0,0,1.91,1.7,6.29,6.29,0,0,0,2.43.81,6.67,6.67,0,0,0,3.12-.39,6.56,6.56,0,0,0-1.23-2.88A6.17,6.17,0,0,0,434.32,216.4Z" style="fill: rgb(255, 255, 255); transform-origin: 433.12px 218.482px;" id="elw64ny4t3gtm" class="animable"></path><path d="M406.86,285.19a12.4,12.4,0,0,0-7-.72,9.77,9.77,0,0,0-3.71,1.51,10,10,0,0,0,3.32,2.24,12.27,12.27,0,0,0,7,.73,9.73,9.73,0,0,0,3.7-1.51A9.6,9.6,0,0,0,406.86,285.19Z" style="fill: rgb(255, 255, 255); transform-origin: 403.16px 286.711px;" id="elr6pv068mm4" class="animable"></path><path d="M341.35,363.11a6.31,6.31,0,0,0-4.84-1.26,6.61,6.61,0,0,0-2.9,1.21,6.7,6.7,0,0,0,1.95,2.45,6.22,6.22,0,0,0,2.3,1.12,6.39,6.39,0,0,0,2.55.12,6.59,6.59,0,0,0,2.89-1.19A6.42,6.42,0,0,0,341.35,363.11Z" style="fill: rgb(255, 255, 255); transform-origin: 338.455px 364.301px;" id="elwk55b10l2u" class="animable"></path><path d="M352.74,288.07a3.22,3.22,0,0,0-1.57.87,3.28,3.28,0,0,0-.83,1.59,5.1,5.1,0,0,0,.14,2.55,5.23,5.23,0,0,0,2.55.09,3.3,3.3,0,0,0,1.57-.87,3.17,3.17,0,0,0,.84-1.59,5,5,0,0,0-.15-2.55A5.11,5.11,0,0,0,352.74,288.07Z" style="fill: rgb(255, 255, 255); transform-origin: 352.89px 290.618px;" id="elqpeun88yzsg" class="animable"></path><path d="M305.76,297.57a8.73,8.73,0,0,0-1.9-2.33,7.75,7.75,0,0,0-3.09-1.66,7.77,7.77,0,0,0-.2,3.5,8.42,8.42,0,0,0,1,2.84,8.73,8.73,0,0,0,1.9,2.33,7.83,7.83,0,0,0,3.08,1.66,7.77,7.77,0,0,0,.2-3.5A8.86,8.86,0,0,0,305.76,297.57Z" style="fill: rgb(255, 255, 255); transform-origin: 303.66px 298.745px;" id="eltjz2y4vr6do" class="animable"></path><path d="M297.42,308.29a6.91,6.91,0,0,0-3.76,4.35,6.83,6.83,0,0,0,7.91-1.53,7,7,0,0,0,1.61-2.79,7,7,0,0,0-5.76,0Z" style="fill: rgb(255, 255, 255); transform-origin: 298.42px 310.495px;" id="elx8hbu0azoep" class="animable"></path><path d="M321.71,308.78a7.4,7.4,0,0,0-2.42-1.43,7.73,7.73,0,0,0-2.78-.45,7.24,7.24,0,0,0-3.24.82,7.28,7.28,0,0,0,2,2.71,7.62,7.62,0,0,0,2.42,1.43,7.5,7.5,0,0,0,2.77.46,7.14,7.14,0,0,0,3.25-.83A7.28,7.28,0,0,0,321.71,308.78Z" style="fill: rgb(255, 255, 255); transform-origin: 318.49px 309.61px;" id="el04gx6l2cwy4f" class="animable"></path></g></g><path d="M125.23,335.06c7.22-1.17,14.45-.75,14.43,1.7s1.06,3.29,4.63,3.06,6-2.41,8.34,0,5.45-.61,7.41,3,0,3.77,5.25,4.14,9,.91,12.82,2.81,1.81,4.55-3,5.11-12.26.18-13.36,2.83-5.14,1.12-9.13,0-5.41,1-13,1.46-7,2.22-8.92,0-.64-3.91-6.4-2.4-3.94,2.45-8.79,2.45-6.83-.57-8.14-1.51,4.44-1.57-4.11-2-20.72,1.82-17.93-2.89,9.54-1.52,14.14-6.6-3-5,7.08-6.37,10.52.9,13.48-2.49S122,335.59,125.23,335.06Z" style="fill: rgb(64, 123, 255); transform-origin: 132.517px 347.351px;" id="el1ozkbn0qi8p" class="animable"></path><g id="elcs6vca97qjc"><path d="M125.23,335.06c7.22-1.17,14.45-.75,14.43,1.7s1.06,3.29,4.63,3.06,6-2.41,8.34,0,5.45-.61,7.41,3,0,3.77,5.25,4.14,9,.91,12.82,2.81,1.81,4.55-3,5.11-12.26.18-13.36,2.83-5.14,1.12-9.13,0-5.41,1-13,1.46-7,2.22-8.92,0-.64-3.91-6.4-2.4-3.94,2.45-8.79,2.45-6.83-.57-8.14-1.51,4.44-1.57-4.11-2-20.72,1.82-17.93-2.89,9.54-1.52,14.14-6.6-3-5,7.08-6.37,10.52.9,13.48-2.49S122,335.59,125.23,335.06Z" style="fill: rgb(255, 255, 255); opacity: 0.5; transform-origin: 132.517px 347.351px;" class="animable"></path></g><polygon points="166.82 400.4 118.08 400.4 121.82 415.41 163.08 415.41 166.82 400.4" style="fill: rgb(64, 123, 255); transform-origin: 142.45px 407.905px;" id="elfhfanc5g71v" class="animable"></polygon><path d="M175.23,347.75l-.48.4a38.52,38.52,0,0,1-4.51,3.24c-.38.23-.76.41-1.26.73a8.19,8.19,0,0,0-1.2,1.08,10.66,10.66,0,0,0-1.8,2.71,11.42,11.42,0,0,0-1,6.78,9.08,9.08,0,0,0,.46,1.72l.33.82a4.1,4.1,0,0,1,.21.54,1,1,0,0,1,0,.64,1.2,1.2,0,0,1-.4.49,5.82,5.82,0,0,1-2,.94,20.46,20.46,0,0,1-2.52.53c-1,.15-2,.26-3.09.35a5.84,5.84,0,0,0-.11-2.26,4.67,4.67,0,0,0-1.72-2.56,6.61,6.61,0,0,0-2.06-1c-2.54-.77-4.93-.94-7.22-1.46a8.35,8.35,0,0,1-3.08-1.21,1.91,1.91,0,0,1-.74-1.18,4,4,0,0,1,.18-1.71,13,13,0,0,1,.82-1.74,6.79,6.79,0,0,0,.81-2,2,2,0,0,0-.79-2,6.63,6.63,0,0,0-1.62-.94,6.55,6.55,0,0,1,1.47,1.15,1.61,1.61,0,0,1,.49,1.63c-.39,1.15-1.41,2.06-2,3.38a5,5,0,0,0-.5,2.29,3.57,3.57,0,0,0,1,2.3,9.81,9.81,0,0,0,3.49,2c2.35.9,4.75,1.46,6.78,2.43,1.05.47,1.58,1.11,1.53,1.47a2.26,2.26,0,0,1-.2.91,6.34,6.34,0,0,1-.35.68l-3.79.21a27.74,27.74,0,0,0-5.73.89,6.78,6.78,0,0,0-3.31,2,4.42,4.42,0,0,0-.78,1.29,5.53,5.53,0,0,0-.31,1.64,6.48,6.48,0,0,0,.55,2.59,14.37,14.37,0,0,0,1.88,3.07,6.41,6.41,0,0,1,1,1.78,1.13,1.13,0,0,1-.13.95,7.13,7.13,0,0,1-1.22,1.52c-.22.21-.46.41-.69.61a9.55,9.55,0,0,0-3.48-3.32,26,26,0,0,0-7.09-2.58c-1.17-.26-2.36-.46-3.48-.63a12,12,0,0,1-2.83-.68,1.44,1.44,0,0,1-.65-.56,1.51,1.51,0,0,1-.23-.46,3.29,3.29,0,0,1-.18-.66,13.44,13.44,0,0,1-.21-3.33,16.71,16.71,0,0,1,.67-3.44c.17-.59.38-1.21.57-2l.12-.64c0-.23,0-.52,0-.78a4.68,4.68,0,0,0-.15-1,3.49,3.49,0,0,0-.45-.86,4.08,4.08,0,0,0-2.08-1.34,8.24,8.24,0,0,0-1.93-.38c-1.28-.12-2.51.13-3.42.06-1.68.11-2.73-2.52-3.31-4.8a13.31,13.31,0,0,1,.36-7.22l-.93-.55a14.8,14.8,0,0,0-.94,8.15,15.05,15.05,0,0,0,1.23,4,6.12,6.12,0,0,0,1.32,1.82,3.92,3.92,0,0,0,2,.92c1.36.19,2.43,0,3.42.22a6.63,6.63,0,0,1,1.42.4c.41.18.89.48.87.56s0,0,0,0,0,0,0,0,0,.1,0,.19l-.09.31c-.16.5-.39,1.1-.62,1.73l-.15.42c-2.61-.46-5.22-.84-7.85-1.08-1.51-.15-3.09-.21-4.56-.26a16.66,16.66,0,0,1-4.28-.8,12.77,12.77,0,0,1-3.9-2,6.59,6.59,0,0,1-1.47-1.61,2.63,2.63,0,0,1-.38-.95c0-.12-.07-.38-.11-.64a3.78,3.78,0,0,0-.18-.7,21.67,21.67,0,0,0-2.34-4.61c-.89-1.42-1.84-2.78-2.83-4.11l-.41.39c.92,1.36,1.79,2.77,2.6,4.21a21,21,0,0,1,2,4.48,3,3,0,0,1,.12.55l.08.64a4.14,4.14,0,0,0,.47,1.44,8.09,8.09,0,0,0,1.69,2.07,14.31,14.31,0,0,0,4.19,2.53,17.71,17.71,0,0,0,4.61,1.15c1.55.16,3,.3,4.48.54,2.45.38,4.9.89,7.32,1.46-.07.35-.14.71-.18,1.06a17.3,17.3,0,0,0,0,4.49,7.16,7.16,0,0,0,.78,2.52,5.25,5.25,0,0,0,1.89,2,13.5,13.5,0,0,0,3.77,1.33c1.13.28,2.19.54,3.24.87a23.31,23.31,0,0,1,5.81,2.61,5.12,5.12,0,0,1,1.63,1.69l0,.06-1.76,1.15-.59.39-.67.48a11.08,11.08,0,0,0-1.33,1,12.93,12.93,0,0,0-2.49,2.83,10.55,10.55,0,0,0-1.59,4.33,10.74,10.74,0,0,0,.57,4.81,12.09,12.09,0,0,0,.92,2,10.34,10.34,0,0,0,.57.89,8.43,8.43,0,0,0,.74.94l1.93-2.46,2.46.91,14.8-3.37s-6.91-5.28-7-7.22c-.08-1.37,1.32-3.05,1.83-6.6a11.33,11.33,0,0,0,1.76-2.8c.14-.39.26-.79.38-1.18s.13-.9.17-1.35,0-.9-.08-1.34-.2-.82-.31-1.21a10.79,10.79,0,0,0-2-3.38,11,11,0,0,1-1.37-1.88,1.76,1.76,0,0,1-.15-.32,4.28,4.28,0,0,1,1.35-.77,25.38,25.38,0,0,1,5-1.12c3.53-.48,7.2-.81,10.86-1.63a23,23,0,0,0,2.79-.8,8.28,8.28,0,0,0,2.85-1.63,3.89,3.89,0,0,0,1.17-2,4,4,0,0,0-.19-2.39,8.29,8.29,0,0,0-.38-.86l-.28-.57a7.26,7.26,0,0,1-.4-1.22,8.89,8.89,0,0,1,.51-5.29,8.73,8.73,0,0,1,1.34-2.32,6.91,6.91,0,0,1,.88-.91c.17-.11.29-.21.51-.35s.42-.26.62-.4a43.91,43.91,0,0,0,4.49-3.68l.83-.82A7.83,7.83,0,0,1,175.23,347.75Z" style="fill: rgb(64, 123, 255); transform-origin: 134.69px 377.45px;" id="el4h8sj1k9xt9" class="animable"></path><path d="M144.28,375.2v0S144.25,375.24,144.28,375.2Z" style="fill: rgb(64, 123, 255); transform-origin: 144.273px 375.209px;" id="elyejk493918f" class="animable"></path><path d="M184.48,347.34c-2.14-.81-4.28,0-4.44-1.75s-1.15-1.32-3.12-1.13c0,0-3-2.45-4.61,0s0,3.57-2.79,2.92-5.1,1.61-2.64,1.79,3.07-1.13,4.5,0,1.54,1.64,3.15,1.54,4,1.38,5,0,0-1.73,2-1.73S186.62,348.14,184.48,347.34Z" style="fill: rgb(64, 123, 255); transform-origin: 175.521px 347.336px;" id="el913rjqre6wf" class="animable"></path><path d="M124.51,371.94c-2.14-.8-4.28-.05-4.44-1.75s-1.15-1.31-3.13-1.13c0,0-3-2.45-4.6,0s0,3.57-2.79,2.92-5.1,1.61-2.64,1.8,3.07-1.13,4.5,0,1.54,1.64,3.15,1.54,4,1.37,5,0,0-1.74,2-1.74S126.65,372.75,124.51,371.94Z" style="fill: rgb(64, 123, 255); transform-origin: 115.551px 371.939px;" id="elpwdsp8jigk" class="animable"></path><path d="M103.35,353.72c-2.13-.8-4.27-.05-4.44-1.75s-1.15-1.32-3.12-1.13c0,0-3-2.45-4.61,0s0,3.57-2.79,2.92-5.1,1.61-2.63,1.8,3.06-1.14,4.49,0,1.55,1.63,3.16,1.53,4,1.38,5,0,0-1.74,2-1.74S105.49,354.52,103.35,353.72Z" style="fill: rgb(64, 123, 255); transform-origin: 94.3937px 353.716px;" id="elnvwk0dj968" class="animable"></path><path d="M154.76,347.76c1-1.64-6.41-1.38-8-2.14s-1.16-1.4-7.07-1.79c-2-.13-2.63,2.17-1.65,3.93s-1.31.5-6.08,2,.49,1,3.29,1.91-.33,2.07.8,3.39,3.64.19,9.35,0,3.66.57,5.8-2.45,3.78-.38,7.56-1.13-1.48-.57-3.86-1.13S153.78,349.4,154.76,347.76Z" style="fill: rgb(64, 123, 255); transform-origin: 145.061px 349.758px;" id="el9lc31xyjspj" class="animable"></path><path d="M108.6,351.21a2.54,2.54,0,0,1,1.93,1.73c.15.62,0,1.39.46,1.79a1.38,1.38,0,0,0,.65.26,45.87,45.87,0,0,0,7.09.76c.37,0,.87-.1.9-.52a3,3,0,0,0-.08-.51.9.9,0,0,1,.91-.9,12.43,12.43,0,0,1,1.33.25.94.94,0,0,0,1.08-.68,1.22,1.22,0,0,0-.11-.7c-.8-1.83-3.28-1.9-4.18-3.66-.23-.46-.37-1-.79-1.25a1.15,1.15,0,0,0-.71-.07c-1.34.14-3,.93-4.34.75-.49-.07-1-.66-1.45-1.21s-.68-1-.71-1a8.07,8.07,0,0,0-4.3.82,2.19,2.19,0,0,0-1.1,1,2.11,2.11,0,0,0,.94,2.44A9.74,9.74,0,0,0,108.6,351.21Z" style="fill: rgb(64, 123, 255); transform-origin: 113.984px 350.985px;" id="elj03dn5537ls" class="animable"></path><path d="M175.31,365.56c-.23-.2-.37-.46-.79-.56a2.78,2.78,0,0,0-.71,0,39.8,39.8,0,0,1-4.34.33,3.63,3.63,0,0,1-1.45-.53c-.4-.24-.68-.46-.71-.46a16.93,16.93,0,0,0-4.3.36,2.55,2.55,0,0,0-1.1.44c-.39.39.19.88.94,1.09a17.66,17.66,0,0,0,2.48.33c.84.11,1.71.35,1.93.78.15.27,0,.62.46.8a2.52,2.52,0,0,0,.65.11c2.35.2,4.72.31,7.09.34.37,0,.87,0,.9-.23s-.06-.15-.08-.23c-.05-.23.45-.39.91-.4s.88.09,1.33.11,1-.07,1.08-.3,0-.22-.11-.31C178.69,366.38,176.21,366.35,175.31,365.56Z" style="fill: rgb(64, 123, 255); transform-origin: 170.709px 366.457px;" id="eludn5twmzq8p" class="animable"></path><path d="M144.27,371.07c-.23-.2-.37-.46-.79-.56a2.4,2.4,0,0,0-.71,0c-1.34.06-3,.41-4.34.33a3.5,3.5,0,0,1-1.45-.54c-.4-.24-.68-.46-.71-.46a16.89,16.89,0,0,0-4.3.37,2.33,2.33,0,0,0-1.1.44c-.39.39.18.88.94,1.08a19.25,19.25,0,0,0,2.48.34c.84.1,1.71.35,1.93.77s0,.62.46.8a2.51,2.51,0,0,0,.65.12c2.35.19,4.72.31,7.09.34.37,0,.87-.05.9-.24s-.07-.15-.08-.22c-.05-.23.45-.4.9-.41s.89.1,1.34.12,1-.08,1.08-.31,0-.21-.11-.31C147.65,371.89,145.17,371.86,144.27,371.07Z" style="fill: rgb(64, 123, 255); transform-origin: 139.668px 371.962px;" id="elr9sr1oxesj" class="animable"></path><g id="el8d5w8vnt8an"><g style="opacity: 0.6; transform-origin: 134.958px 359.639px;" class="animable"><path d="M184.48,347.34c-2.14-.81-4.28,0-4.44-1.75s-1.15-1.32-3.12-1.13c0,0-3-2.45-4.61,0s0,3.57-2.79,2.92-5.1,1.61-2.64,1.79,3.07-1.13,4.5,0,1.54,1.64,3.15,1.54,4,1.38,5,0,0-1.73,2-1.73S186.62,348.14,184.48,347.34Z" style="fill: rgb(255, 255, 255); transform-origin: 175.521px 347.336px;" id="eljookifal4" class="animable"></path><path d="M124.51,371.94c-2.14-.8-4.28-.05-4.44-1.75s-1.15-1.31-3.13-1.13c0,0-3-2.45-4.6,0s0,3.57-2.79,2.92-5.1,1.61-2.64,1.8,3.07-1.13,4.5,0,1.54,1.64,3.15,1.54,4,1.37,5,0,0-1.74,2-1.74S126.65,372.75,124.51,371.94Z" style="fill: rgb(255, 255, 255); transform-origin: 115.551px 371.939px;" id="el0nluq31jc4h" class="animable"></path><path d="M103.35,353.72c-2.13-.8-4.27-.05-4.44-1.75s-1.15-1.32-3.12-1.13c0,0-3-2.45-4.61,0s0,3.57-2.79,2.92-5.1,1.61-2.63,1.8,3.06-1.14,4.49,0,1.55,1.63,3.16,1.53,4,1.38,5,0,0-1.74,2-1.74S105.49,354.52,103.35,353.72Z" style="fill: rgb(255, 255, 255); transform-origin: 94.3937px 353.716px;" id="elwvvt72lx9k" class="animable"></path><path d="M154.76,347.76c1-1.64-6.41-1.38-8-2.14s-1.16-1.4-7.07-1.79c-2-.13-2.63,2.17-1.65,3.93s-1.31.5-6.08,2,.49,1,3.29,1.91-.33,2.07.8,3.39,3.64.19,9.35,0,3.66.57,5.8-2.45,3.78-.38,7.56-1.13-1.48-.57-3.86-1.13S153.78,349.4,154.76,347.76Z" style="fill: rgb(255, 255, 255); transform-origin: 145.061px 349.758px;" id="ell0sqbrv20z9" class="animable"></path><path d="M108.6,351.21a2.54,2.54,0,0,1,1.93,1.73c.15.62,0,1.39.46,1.79a1.38,1.38,0,0,0,.65.26,45.87,45.87,0,0,0,7.09.76c.37,0,.87-.1.9-.52a3,3,0,0,0-.08-.51.9.9,0,0,1,.91-.9,12.43,12.43,0,0,1,1.33.25.94.94,0,0,0,1.08-.68,1.22,1.22,0,0,0-.11-.7c-.8-1.83-3.28-1.9-4.18-3.66-.23-.46-.37-1-.79-1.25a1.15,1.15,0,0,0-.71-.07c-1.34.14-3,.93-4.34.75-.49-.07-1-.66-1.45-1.21s-.68-1-.71-1a8.07,8.07,0,0,0-4.3.82,2.19,2.19,0,0,0-1.1,1,2.11,2.11,0,0,0,.94,2.44A9.74,9.74,0,0,0,108.6,351.21Z" style="fill: rgb(255, 255, 255); transform-origin: 113.984px 350.985px;" id="elsqsi4evf03t" class="animable"></path><path d="M175.31,365.56c-.23-.2-.37-.46-.79-.56a2.78,2.78,0,0,0-.71,0,39.8,39.8,0,0,1-4.34.33,3.63,3.63,0,0,1-1.45-.53c-.4-.24-.68-.46-.71-.46a16.93,16.93,0,0,0-4.3.36,2.55,2.55,0,0,0-1.1.44c-.39.39.19.88.94,1.09a17.66,17.66,0,0,0,2.48.33c.84.11,1.71.35,1.93.78.15.27,0,.62.46.8a2.52,2.52,0,0,0,.65.11c2.35.2,4.72.31,7.09.34.37,0,.87,0,.9-.23s-.06-.15-.08-.23c-.05-.23.45-.39.91-.4s.88.09,1.33.11,1-.07,1.08-.3,0-.22-.11-.31C178.69,366.38,176.21,366.35,175.31,365.56Z" style="fill: rgb(255, 255, 255); transform-origin: 170.709px 366.457px;" id="el4a80vyl9cjg" class="animable"></path><path d="M144.27,371.07c-.23-.2-.37-.46-.79-.56a2.4,2.4,0,0,0-.71,0c-1.34.06-3,.41-4.34.33a3.5,3.5,0,0,1-1.45-.54c-.4-.24-.68-.46-.71-.46a16.89,16.89,0,0,0-4.3.37,2.33,2.33,0,0,0-1.1.44c-.39.39.18.88.94,1.08a19.25,19.25,0,0,0,2.48.34c.84.1,1.71.35,1.93.77s0,.62.46.8a2.51,2.51,0,0,0,.65.12c2.35.19,4.72.31,7.09.34.37,0,.87-.05.9-.24s-.07-.15-.08-.22c-.05-.23.45-.4.9-.41s.89.1,1.34.12,1-.08,1.08-.31,0-.21-.11-.31C147.65,371.89,145.17,371.86,144.27,371.07Z" style="fill: rgb(255, 255, 255); transform-origin: 139.668px 371.962px;" id="elaatqyvduqf8" class="animable"></path></g></g><g id="el7n8ulz88sn5"><polygon points="166.82 400.4 118.08 400.4 121.82 415.41 163.08 415.41 166.82 400.4" style="fill: rgb(255, 255, 255); opacity: 0.5; transform-origin: 142.45px 407.905px;" class="animable"></polygon></g></g><g id="freepik--Character--inject-20" class="animable" style="transform-origin: 265.584px 264.544px;"><g id="freepik--group--inject-20" class="animable" style="transform-origin: 265.584px 264.544px;"><path d="M238.52,156.94l-8.9,63.39s-1.24.77-3.24,1.75c-6.31,3.1-20.16,8.37-25.78-1.75-7.38-13.3,9.1-49.2,9.1-49.2l12,2.51C228.16,171.92,238.52,156.94,238.52,156.94Z" style="fill: rgb(64, 123, 255); transform-origin: 218.609px 191.593px;" id="elbmmg5e34wz" class="animable"></path><g id="elkp69u3hdy9q"><path d="M238.52,156.94l-8.9,63.39s-1.24.77-3.24,1.75c-5.15-13.41.91-47.15.91-47.15l-5.59-1.29C228.16,171.92,238.52,156.94,238.52,156.94Z" style="opacity: 0.2; transform-origin: 230.11px 189.51px;" class="animable"></path></g><path d="M332.47,241.8s-15.66,12.45-29.09,20.08c-6.24,3.54-12,6-15.48,5.78-8-.61-3.14-56.45.08-86.56,1.19-11.14,2.16-18.76,2.16-18.76S318.23,226,332.47,241.8Z" style="fill: rgb(64, 123, 255); transform-origin: 308.007px 215.007px;" id="elpw2hiysst8k" class="animable"></path><g id="elt10lb4vbhmp"><path d="M303.38,261.88c-6.24,3.54-12,6-15.48,5.78-8-.61-3.14-56.45.08-86.56a.08.08,0,0,0,0,0S302.81,222.61,303.38,261.88Z" style="opacity: 0.2; transform-origin: 293.462px 224.387px;" class="animable"></path></g><polygon points="241.74 407.8 233.63 408.66 232.1 391.16 240.22 390.3 241.74 407.8" style="fill: rgb(228, 137, 123); transform-origin: 236.92px 399.48px;" id="eluo04vzaevj" class="animable"></polygon><polygon points="282.22 407.21 274.36 407.21 274.2 402.6 273.71 389 281.58 389 282.1 403.68 282.22 407.21" style="fill: rgb(228, 137, 123); transform-origin: 277.965px 398.105px;" id="el910oyems2mv" class="animable"></polygon><path d="M273.27,406.3h9.55a.68.68,0,0,1,.67.54l1.55,7a1.16,1.16,0,0,1-.9,1.37,1.07,1.07,0,0,1-.25,0c-3.09-.05-5.34-.24-9.22-.24-2.39,0-9.6.25-12.9.25s-3.73-3.26-2.38-3.56c6.06-1.32,10.62-3.15,12.56-4.89A1.89,1.89,0,0,1,273.27,406.3Z" style="fill: rgb(255, 255, 255); transform-origin: 271.868px 410.759px;" id="elvjvi1b9zil" class="animable"></path><g id="elrfyl7hhi5l"><polygon points="240.22 390.3 232.1 391.16 232.9 400.18 241.01 399.33 240.22 390.3" style="opacity: 0.2; isolation: isolate; transform-origin: 236.555px 395.24px;" class="animable"></polygon></g><g id="eltik0cvekoab"><polygon points="282.1 403.68 274.2 402.6 273.71 389 281.58 389 282.1 403.68" style="opacity: 0.2; isolation: isolate; transform-origin: 277.905px 396.34px;" class="animable"></polygon></g><path d="M240.42,157.08s26.54-1.25,46.31,3.74c0,0-8.73,44-8.4,69H236.26S233.52,182.88,240.42,157.08Z" style="fill: rgb(228, 137, 123); transform-origin: 261.227px 193.38px;" id="elj7mrarh34o" class="animable"></path><path d="M271.64,158c-3.83,3.48-13.22,2.19-13.22,2.19s-5.85-1.6-4.62-3.43c3.45-.57,5.12-2.18,5.81-4.24a10,10,0,0,0,.35-3.94,20.71,20.71,0,0,0-.29-2.2l11.6-8.59C269.75,143.48,267.89,153.91,271.64,158Z" style="fill: rgb(228, 137, 123); transform-origin: 262.635px 149.107px;" id="eldwnqoafwk6r" class="animable"></path><g id="elg10h5oxf1hq"><path d="M268.59,143.27c-.46,7-6.18,8.88-9,9.27a10,10,0,0,0,.35-3.94Z" style="opacity: 0.2; isolation: isolate; transform-origin: 264.09px 147.905px;" class="animable"></path></g><path d="M254.82,117.68c-3.41,1.88-4.36,10.06.13,15.56s10.48-15.86,10.48-15.86S257,116.49,254.82,117.68Z" style="fill: rgb(38, 50, 56); transform-origin: 258.672px 125.603px;" id="el5298gakectt" class="animable"></path><path d="M268.89,145.83a9.84,9.84,0,0,1-11.89.79,10.93,10.93,0,0,1-4.74-6.51A10.46,10.46,0,0,1,252,139c-1-7.13,1-18.55,8.93-21a10.66,10.66,0,0,1,13.68,11.93C273.48,137.64,273.17,142.22,268.89,145.83Z" style="fill: rgb(228, 137, 123); transform-origin: 263.258px 132.885px;" id="ell50zd90949s" class="animable"></path><path d="M262.67,131.05c0,.63-.44,1.11-.86,1.07s-.69-.58-.64-1.21.44-1.11.85-1.07S262.72,130.41,262.67,131.05Z" style="fill: rgb(38, 50, 56); transform-origin: 261.92px 130.98px;" id="elycufdwuf4jb" class="animable"></path><path d="M255.53,130.41c0,.63-.44,1.11-.85,1.07s-.7-.58-.65-1.21.44-1.11.85-1.07S255.58,129.81,255.53,130.41Z" style="fill: rgb(38, 50, 56); transform-origin: 254.78px 130.34px;" id="el1de8341f45a" class="animable"></path><path d="M257.77,130.92a22.88,22.88,0,0,1-3.5,5.14,3.7,3.7,0,0,0,3,.84Z" style="fill: rgb(222, 87, 83); transform-origin: 256.02px 133.934px;" id="el778zii467od" class="animable"></path><path d="M265.09,128.94a.41.41,0,0,1-.35-.18,3,3,0,0,0-2.26-1.45.38.38,0,0,1-.36-.38.36.36,0,0,1,.37-.36h0a3.66,3.66,0,0,1,2.88,1.79.38.38,0,0,1-.1.52h0A.49.49,0,0,1,265.09,128.94Z" style="fill: rgb(38, 50, 56); transform-origin: 263.776px 127.755px;" id="el1vil4tmdj5n" class="animable"></path><path d="M258,140.26h0A5.71,5.71,0,0,0,263.1,139a.18.18,0,0,0,0-.27.18.18,0,0,0-.26,0h0a5.48,5.48,0,0,1-4.76,1.15.19.19,0,0,0-.24.13v0a.18.18,0,0,0,.13.23Z" style="fill: rgb(38, 50, 56); transform-origin: 260.496px 139.546px;" id="ele44c7damvdr" class="animable"></path><path d="M252.68,127.67a.33.33,0,0,1-.22,0,.36.36,0,0,1-.13-.51h0a3.7,3.7,0,0,1,2.86-1.85.38.38,0,0,1,.38.36h0a.38.38,0,0,1-.36.38h0a3,3,0,0,0-2.24,1.5A.35.35,0,0,1,252.68,127.67Z" style="fill: rgb(38, 50, 56); transform-origin: 253.922px 126.499px;" id="elzw02h1bze08" class="animable"></path><path d="M269.81,119.75l-.89.31c3,1.62,1.54,5.13.84,6.4-1.49,2.71-.48,7.37,1.47,9.44,0,0,.24-1.23,1.24-.79s-.17,6.85-2.64,9.65c0,0,3.47-2.36,6.15-8.89,2.47-6.05,3.39-11.24,2.44-13.84Z" style="fill: rgb(38, 50, 56); transform-origin: 273.854px 132.255px;" id="elegghyt19gz4" class="animable"></path><path d="M277.45,136.6a7.41,7.41,0,0,1-4.56,3.35c-2.53.61-3.7-1.68-2.92-4,.71-2.07,2.88-5,5.38-4.49S278.67,134.52,277.45,136.6Z" style="fill: rgb(228, 137, 123); transform-origin: 273.869px 135.726px;" id="el2aekym0dudm" class="animable"></path><path d="M257.77,119s-.72,1.19,1,1.72,10.3-.27,12,2.37,7.27.27,7.27.27,2.64-3.7-7.38-8.71S256.78,115.75,257.77,119Z" style="fill: rgb(38, 50, 56); transform-origin: 267.987px 118.543px;" id="el14fy06pn129a" class="animable"></path><path d="M273.87,119.75s-.2-8,6.78-5.85,5.09,18.23-4.3,11.7Z" style="fill: rgb(38, 50, 56); transform-origin: 279.363px 120.342px;" id="elc5nks83m5r" class="animable"></path><path d="M248.5,158l9.21-4.1s.39,13.89,4.59,21.66l-11.85,9Z" style="fill: rgb(255, 255, 255); transform-origin: 255.4px 169.23px;" id="el5sa1jhuk9fg" class="animable"></path><g id="el61epuy161n8"><path d="M248.5,158l9.21-4.1s.39,13.89,4.59,21.66l-11.85,9Z" style="opacity: 0.2; transform-origin: 255.4px 169.23px;" class="animable"></path></g><path d="M246.63,185.85s14.81-25,25-33.16l3.8,6-23.67,38.51Z" style="fill: rgb(255, 255, 255); transform-origin: 261.03px 174.945px;" id="eli3s919ado5" class="animable"></path><g id="elgm4f2cheox"><path d="M246.63,185.85s14.81-25,25-33.16l3.8,6-23.67,38.51Z" style="opacity: 0.1; transform-origin: 261.03px 174.945px;" class="animable"></path></g><path d="M254.54,153.91s-1.06,24.87,11.09,62.94l-29.91-1.75a251.26,251.26,0,0,1,2.8-58.16l13.68-1.3Z" style="fill: rgb(64, 123, 255); transform-origin: 250.384px 185.38px;" id="elxwgt73hh6y" class="animable"></path><g id="elummwmn65m0h"><path d="M254.54,153.91s-1.06,24.87,11.09,62.94l-29.91-1.75a251.26,251.26,0,0,1,2.8-58.16l13.68-1.3Z" style="opacity: 0.5; transform-origin: 250.384px 185.38px;" class="animable"></path></g><path d="M235.72,215.1s17.19-38.23,38.38-60.22l3.25,2.73,9.38,3.21-8,57.08Z" style="fill: rgb(64, 123, 255); transform-origin: 261.225px 186.39px;" id="elrlmnsuglrwg" class="animable"></path><g id="el0935i7bgxxje"><path d="M235.72,215.1s17.19-38.23,38.38-60.22l3.25,2.73,9.38,3.21-8,57.08Z" style="opacity: 0.4; transform-origin: 261.225px 186.39px;" class="animable"></path></g><polygon points="235.72 215.1 236.26 229.77 278.33 229.77 278.71 217.9 235.72 215.1" style="fill: rgb(38, 50, 56); transform-origin: 257.215px 222.435px;" id="eldtkz27yzuy" class="animable"></polygon><path d="M236.26,229.77s-21.06,94.46-7.13,166.13l57.6,3.67-8.4-169.8Z" style="fill: rgb(38, 50, 56); transform-origin: 255.549px 314.67px;" id="elbr5x6t3t1vo" class="animable"></path><g id="elpcobzlbgcm"><path d="M236.26,229.77s-21.06,94.46-7.13,166.13l57.6,3.67-8.4-169.8Z" style="opacity: 0.2; transform-origin: 255.549px 314.67px;" class="animable"></path></g><path d="M277.88,156.94s-7.39,56.39,4,180.92l11-2.07-2.77-173.45Z" style="fill: rgb(64, 123, 255); transform-origin: 284.201px 247.4px;" id="el5mfngdcq6ci" class="animable"></path><path d="M251,154.88S236.21,202,229.22,328.71l-8.19-1.4s3.27-152.6,17.49-170.37Z" style="fill: rgb(64, 123, 255); transform-origin: 236.015px 241.795px;" id="elvi4b2clwmg" class="animable"></path><path d="M242.72,164a.5.5,0,0,0-.51-.49l-14.63.33,13.11-2.72a.5.5,0,0,0-.21-1l-14.63,3,12.27-6a.5.5,0,0,0-.44-.9l-13.1,6.45,9.52-9.56a.51.51,0,0,0,0-.71.5.5,0,0,0-.71,0l-8.62,8.65,6.26-10.2a.5.5,0,0,0-.85-.52L224,160.47l4-11.85a.5.5,0,1,0-.95-.31l-4.41,13.18-.15-15.27a.5.5,0,1,0-1,0l.14,14.63L216.93,145a.5.5,0,1,0-1,.28l4.38,15-7.56-13.76a.5.5,0,0,0-.68-.19.5.5,0,0,0-.2.68l9.76,17.75h0l0,0a.46.46,0,0,0,.12.12h0a.53.53,0,0,0,.15,0s0,0,0,0h.1l20.12-.46A.49.49,0,0,0,242.72,164Z" style="fill: rgb(38, 50, 56); transform-origin: 227.264px 154.752px;" id="elcojmo2cy5u" class="animable"></path><g id="elkdi5m8c882e"><path d="M242.72,164a.5.5,0,0,0-.51-.49l-14.63.33,13.11-2.72a.5.5,0,0,0-.21-1l-14.63,3,12.27-6a.5.5,0,0,0-.44-.9l-13.1,6.45,9.52-9.56a.51.51,0,0,0,0-.71.5.5,0,0,0-.71,0l-8.62,8.65,6.26-10.2a.5.5,0,0,0-.85-.52L224,160.47l4-11.85a.5.5,0,1,0-.95-.31l-4.41,13.18-.15-15.27a.5.5,0,1,0-1,0l.14,14.63L216.93,145a.5.5,0,1,0-1,.28l4.38,15-7.56-13.76a.5.5,0,0,0-.68-.19.5.5,0,0,0-.2.68l9.76,17.75h0l0,0a.46.46,0,0,0,.12.12h0a.53.53,0,0,0,.15,0s0,0,0,0h.1l20.12-.46A.49.49,0,0,0,242.72,164Z" style="fill: rgb(255, 255, 255); opacity: 0.4; transform-origin: 227.264px 154.752px;" class="animable"></path></g><path d="M206.68,139.58c6.15-8.26,22.38-7,30.43-2.37,7,4,17.55,15,13.49,28.21L238,165.2a19,19,0,0,0-9.36-12.75c-8-4.35-14.7-1.14-14.7-1.14Z" style="fill: rgb(64, 123, 255); transform-origin: 229.091px 149.486px;" id="elmv9e2cl9lbf" class="animable"></path><g id="eljkmgwwg6lfq"><path d="M206.68,139.58c6.15-8.26,22.38-7,30.43-2.37,7,4,17.55,15,13.49,28.21L238,165.2a19,19,0,0,0-9.36-12.75c-8-4.35-14.7-1.14-14.7-1.14Z" style="fill: rgb(255, 255, 255); opacity: 0.7; transform-origin: 229.091px 149.486px;" class="animable"></path></g><path d="M236.42,148.26a4,4,0,1,1-1-5.58A4,4,0,0,1,236.42,148.26Z" style="fill: rgb(64, 123, 255); transform-origin: 233.142px 145.968px;" id="elcihmdqt9yrd" class="animable"></path><path d="M216.48,165.79a6.32,6.32,0,0,1,.21-3.45c.66-1.63,6.28-5.16,7.2-4.76s2.82,7.88,2.43,8.94-5.29,2.69-5.29,2.69l-1.73,3.93-6.22-1.3Z" style="fill: rgb(228, 137, 123); transform-origin: 219.726px 165.344px;" id="elb9epwf75gy7" class="animable"></path><path d="M232.77,406.05h9.55a.68.68,0,0,1,.67.54l1.55,7a1.16,1.16,0,0,1-.9,1.37,1.07,1.07,0,0,1-.25,0c-3.09-.05-5.34-.24-9.22-.24-2.39,0-9.6.25-12.9.25s-3.73-3.26-2.38-3.56c6.06-1.32,10.62-3.15,12.56-4.89A1.89,1.89,0,0,1,232.77,406.05Z" style="fill: rgb(255, 255, 255); transform-origin: 231.369px 410.509px;" id="elvds8emkczca" class="animable"></path><g id="elonrlp63wyl"><path d="M232.77,406.05h9.55a.68.68,0,0,1,.67.54l1.55,7a1.16,1.16,0,0,1-.9,1.37,1.07,1.07,0,0,1-.25,0c-3.09-.05-5.34-.24-9.22-.24-2.39,0-9.6.25-12.9.25s-3.73-3.26-2.38-3.56c6.06-1.32,10.62-3.15,12.56-4.89A1.89,1.89,0,0,1,232.77,406.05Z" style="opacity: 0.2; transform-origin: 231.369px 410.509px;" class="animable"></path></g><rect x="218.17" y="414.48" width="26.39" height="1.86" id="elshe76zqq73j" class="animable" style="transform-origin: 231.365px 415.41px;"></rect><path d="M221.11,410.91s12.56-.8,14.54,3.95l2.17.14S235.15,407.74,221.11,410.91Z" id="el838ysrqni3b" class="animable" style="transform-origin: 229.465px 412.554px;"></path><path d="M273.77,406.05h9.55a.68.68,0,0,1,.67.54l1.55,7a1.16,1.16,0,0,1-.9,1.37,1.07,1.07,0,0,1-.25,0c-3.09-.05-5.34-.24-9.22-.24-2.39,0-9.6.25-12.9.25s-3.73-3.26-2.38-3.56c6.06-1.32,10.62-3.15,12.56-4.89A1.89,1.89,0,0,1,273.77,406.05Z" style="fill: rgb(255, 255, 255); transform-origin: 272.368px 410.509px;" id="ela7hib83nxpt" class="animable"></path><g id="elek3ei1xnw0t"><path d="M273.77,406.05h9.55a.68.68,0,0,1,.67.54l1.55,7a1.16,1.16,0,0,1-.9,1.37,1.07,1.07,0,0,1-.25,0c-3.09-.05-5.34-.24-9.22-.24-2.39,0-9.6.25-12.9.25s-3.73-3.26-2.38-3.56c6.06-1.32,10.62-3.15,12.56-4.89A1.89,1.89,0,0,1,273.77,406.05Z" style="opacity: 0.2; transform-origin: 272.368px 410.509px;" class="animable"></path></g><rect x="259.17" y="414.48" width="26.39" height="1.86" id="elryeua85zs5" class="animable" style="transform-origin: 272.365px 415.41px;"></rect><path d="M262.11,410.91s12.56-.8,14.54,3.95l2.17.14S276.15,407.74,262.11,410.91Z" id="el4edan3877c4" class="animable" style="transform-origin: 270.465px 412.554px;"></path></g></g><defs>     <filter id="active" height="200%">         <feMorphology in="SourceAlpha" result="DILATED" operator="dilate" radius="2"></feMorphology>                <feFlood flood-color="#32DFEC" flood-opacity="1" result="PINK"></feFlood>        <feComposite in="PINK" in2="DILATED" operator="in" result="OUTLINE"></feComposite>        <feMerge>            <feMergeNode in="OUTLINE"></feMergeNode>            <feMergeNode in="SourceGraphic"></feMergeNode>        </feMerge>    </filter>    <filter id="hover" height="200%">        <feMorphology in="SourceAlpha" result="DILATED" operator="dilate" radius="2"></feMorphology>                <feFlood flood-color="#ff0000" flood-opacity="0.5" result="PINK"></feFlood>        <feComposite in="PINK" in2="DILATED" operator="in" result="OUTLINE"></feComposite>        <feMerge>            <feMergeNode in="OUTLINE"></feMergeNode>            <feMergeNode in="SourceGraphic"></feMergeNode>        </feMerge>            <feColorMatrix type="matrix" values="0   0   0   0   0                0   1   0   0   0                0   0   0   0   0                0   0   0   1   0 "></feColorMatrix>    </filter></defs></svg>