<svg class="animated" id="freepik_stories-romantic-getaway" xmlns="http://www.w3.org/2000/svg" viewBox="0 0 500 500" version="1.1" xmlns:xlink="http://www.w3.org/1999/xlink" xmlns:svgjs="http://svgjs.com/svgjs"><style>svg#freepik_stories-romantic-getaway:not(.animated) .animable {opacity: 0;}svg#freepik_stories-romantic-getaway.animated #freepik--Hearts--inject-7 {animation: 1.5s Infinite  linear floating;animation-delay: 0s;}svg#freepik_stories-romantic-getaway.animated #freepik--Characters--inject-7 {animation: 0.9s 1 forwards ease-in slideRight,1.5s Infinite  linear floating;animation-delay: 0s,0.9s;}            @keyframes floating {                0% {                    opacity: 1;                    transform: translateY(0px);                }                50% {                    transform: translateY(-10px);                }                100% {                    opacity: 1;                    transform: translateY(0px);                }            }                    @keyframes slideRight {                0% {                    opacity: 0;                    transform: translateX(30px);                }                100% {                    opacity: 1;                    transform: translateX(0);                }            }        </style><g id="freepik--Floor--inject-7" class="animable" style="transform-origin: 241.07px 351.06px;"><ellipse id="freepik--floor--inject-7" cx="241.07" cy="351.06" rx="216.61" ry="119.07" style="fill: rgb(240, 240, 240); transform-origin: 241.07px 351.06px;" class="animable"></ellipse></g><g id="freepik--Shadows--inject-7" class="animable" style="transform-origin: 240.184px 344.975px;"><ellipse id="freepik--Shadow--inject-7" cx="254.07" cy="377.75" rx="42.75" ry="24.68" style="fill: rgb(224, 224, 224); transform-origin: 254.07px 377.75px;" class="animable"></ellipse><ellipse id="freepik--shadow--inject-7" cx="309.77" cy="349.72" rx="42.75" ry="24.68" style="fill: rgb(224, 224, 224); transform-origin: 309.77px 349.72px;" class="animable"></ellipse><path id="freepik--shadow--inject-7" d="M121.47,414.46c17.93,10.35,66.88-1.67,109.34-26.84l82.65-49c42.45-25.18,63.05-53.57,46-63.41S294,277.39,251.22,302.07l-84.81,49C123.66,375.71,103.55,404.11,121.47,414.46Z" style="fill: rgb(224, 224, 224); transform-origin: 240.184px 344.975px;" class="animable"></path></g><g id="freepik--Plants--inject-7" class="animable" style="transform-origin: 247.689px 276.197px;"><g id="freepik--plants--inject-7" class="animable" style="transform-origin: 66.7442px 282.771px;"><path d="M78.46,312.64l7.63-4.41s4.55-18.88,2.74-35.87c-2.55-23.89-18.27-32.88-24.25-30.82s-7.71,9,2.18,23.24C72.6,273.18,79.77,290.66,78.46,312.64Z" style="fill: #1487E6; transform-origin: 74.4865px 276.948px;" id="eljadyto0ptee" class="animable"></path><g id="elgqccqtqq1q"><g style="opacity: 0.15; transform-origin: 74.4865px 276.948px;" class="animable" id="elgdliptqdr1"><path d="M78.46,312.64l7.63-4.41s4.55-18.88,2.74-35.87c-2.55-23.89-18.27-32.88-24.25-30.82s-7.71,9,2.18,23.24C72.6,273.18,79.77,290.66,78.46,312.64Z" id="elszn6d26txg" class="animable" style="transform-origin: 74.4865px 276.948px;"></path></g></g><path d="M81.62,303.37h-.07a.52.52,0,0,1-.42-.62c4.18-22-3.51-46.79-13-57.09a.53.53,0,0,1,0-.75.51.51,0,0,1,.74,0c9.71,10.49,17.56,35.65,13.31,58A.54.54,0,0,1,81.62,303.37Z" style="fill: rgb(255, 255, 255); transform-origin: 75.6684px 274.061px;" id="el2zght6geh3o" class="animable"></path><path d="M58.46,324.2c-1.21.61-4.42-2.14-5.31-2.8a11.34,11.34,0,0,1-3.51-4.46,10.54,10.54,0,0,1-.61-6.35,24,24,0,0,1,1-3.3l1.09-3.21a8.17,8.17,0,0,0,.65-3.25c-.18-2.24-2.07-3.89-3.8-5.33-1.9-1.58-3.87-3.65-3.73-6.32a9.49,9.49,0,0,1,2.64-5.49c1.37-1.55,3-2.91,4.2-4.56A6.61,6.61,0,0,0,52.61,275a6.88,6.88,0,0,0-.78-2.64,37,37,0,0,1-2.58-5.35c-.56-1.91-.35-4.23,1.18-5.5a6.13,6.13,0,0,1,4.66-.91,10.47,10.47,0,0,1,4.21,1.72c4.13,2.58,6.3,7.73,10.72,9.78a47,47,0,0,0,5.38,1.61,6.75,6.75,0,0,1,4.35,3.3c1.49,3.39-1.79,7.31-.8,10.88.87,3.15,3.83,4.49,5.38,7.38a6.64,6.64,0,0,1,.59,4.1,19.69,19.69,0,0,1-2.06,6.78,61.35,61.35,0,0,1-4.08,6.27Z" style="fill: #1487E6; transform-origin: 64.6268px 292.38px;" id="el9gpqy9z6d44" class="animable"></path><path d="M70.15,318.1h0a.53.53,0,0,1-.49-.57c1.94-21-6.79-44.64-13.64-51.74a.53.53,0,0,1,0-.75.53.53,0,0,1,.75,0c7,7.24,15.9,31.32,13.94,52.57A.52.52,0,0,1,70.15,318.1Z" style="fill: rgb(255, 255, 255); transform-origin: 63.425px 291.493px;" id="elrk1bls5sttp" class="animable"></path><path d="M68.06,292.26l-.15,0A71.46,71.46,0,0,0,52.79,289a.54.54,0,0,1-.48-.58.52.52,0,0,1,.58-.48,72.21,72.21,0,0,1,15.38,3.29.53.53,0,0,1,.32.68A.52.52,0,0,1,68.06,292.26Z" style="fill: rgb(255, 255, 255); transform-origin: 60.465px 290.099px;" id="elu24juatzap9" class="animable"></path></g><g id="freepik--plants--inject-7" class="animable" style="transform-origin: 425.985px 272.653px;"><path d="M411.71,313.76l-9.57-5.53s-2.34-20.49-.78-36.36c2.19-22.3,16.59-49.13,33.77-42.83s-7.87,29-13.45,47.93S411.71,313.76,411.71,313.76Z" style="fill: #1487E6; transform-origin: 420.942px 270.933px;" id="el49qz59oc4mu" class="animable"></path><g id="elkppd34m9txn"><path d="M411.71,313.76l-9.57-5.53s-2.34-20.49-.78-36.36c2.19-22.3,16.59-49.13,33.77-42.83s-7.87,29-13.45,47.93S411.71,313.76,411.71,313.76Z" style="opacity: 0.15; transform-origin: 420.942px 270.933px;" class="animable" id="elrrynwlnoac8"></path></g><path d="M406.68,311.43h0a.58.58,0,0,0,.56-.6c-1.68-49.55,23-74.47,23.23-74.72a.58.58,0,0,0,0-.82.57.57,0,0,0-.82,0c-.25.25-25.28,25.53-23.58,75.58A.58.58,0,0,0,406.68,311.43Z" style="fill: rgb(255, 255, 255); transform-origin: 418.313px 273.273px;" id="els9sz7h21ii8" class="animable"></path><path d="M417.73,317.2l-6.81-3.93s-1.16-14.06,5.74-31.14c6-14.87,20.89-27.21,28.38-24.62s7.3,7.9,3.65,13.48S422.82,289.84,417.73,317.2Z" style="fill: #1487E6; transform-origin: 430.996px 287.182px;" id="el71gpks60bw" class="animable"></path><path d="M414.14,315.71h0a.58.58,0,0,0,.58-.58c-.14-31.33,29.28-52.51,29.58-52.72a.58.58,0,0,0,.13-.81.56.56,0,0,0-.8-.13c-.3.21-30.21,21.74-30.07,53.66A.58.58,0,0,0,414.14,315.71Z" style="fill: rgb(255, 255, 255); transform-origin: 429.05px 288.533px;" id="ell5cdka5lym" class="animable"></path></g></g><g id="freepik--Hearts--inject-7" class="animable animator-active" style="transform-origin: 257.774px 100.557px;"><path d="M172.83,109.46a5.46,5.46,0,0,0-2.57-2.91h0a5.46,5.46,0,0,0-4.47-.28c-2.61,1-3.69,4.64-3.07,7.28-1.27-2.39-4.5-4.44-7.11-3.46a5.47,5.47,0,0,0-3.18,3.14v0h0a5.48,5.48,0,0,0,0,3.89c1.52,4.05,6.11,4.87,10.25,6.35L167,125l2.28-4C171.43,117.16,174.34,113.51,172.83,109.46Z" style="fill: #1487E6; transform-origin: 162.66px 115.46px;" id="elwo8xm4tyda" class="animable"></path><path d="M362.94,88.62a5.44,5.44,0,0,0,.32-3.87h0v0a5.46,5.46,0,0,0-2.9-3.41c-2.51-1.21-5.9.55-7.37,2.83.84-2.58.08-6.32-2.43-7.52a5.48,5.48,0,0,0-4.48-.11h0a5.47,5.47,0,0,0-2.81,2.68c-1.87,3.9.72,7.79,2.53,11.8l1.91,4.21,4.48-1.16C356.43,92.94,361.08,92.52,362.94,88.62Z" style="fill: #1487E6; transform-origin: 353.049px 85.6722px;" id="els8yk9fwu5ua" class="animable"></path></g><g id="freepik--Characters--inject-7" class="animable" style="transform-origin: 255.542px 244.1px;"><path d="M341.1,264.27h0c-3.6-11.75-18.29-21.47-32-17.63h0a26,26,0,0,0-6.19,2.63c-13.32,7.69-24.11,26.39-24.11,41.78a25.24,25.24,0,0,0,1.07,7.63h0c3.6,11.75,18.29,21.42,32,17.58h0a25.67,25.67,0,0,0,6.17-2.64c13.32-7.69,24.12-26.39,24.12-41.77A25.65,25.65,0,0,0,341.1,264.27Z" style="fill: rgb(69, 90, 100); transform-origin: 310.48px 281.452px;" id="elcyrls7jflbb" class="animable"></path><path d="M318,313.62c13.32-7.69,24.12-26.39,24.12-41.77s-10.8-21.62-24.12-13.93-24.12,26.38-24.12,41.77S304.72,321.31,318,313.62Z" style="fill: rgb(55, 71, 79); transform-origin: 318px 285.771px;" id="el5467cizfv63" class="animable"></path><path d="M307.27,312.27c-8.15,0-8.78-9.69-8.78-12.66,0-13.68,10-31,21.83-37.82a17.63,17.63,0,0,1,8.48-2.68c8.16,0,8.79,9.69,8.79,12.66,0,13.66-10,31-21.83,37.82a17.66,17.66,0,0,1-8.49,2.68Z" style="fill: rgb(245, 245, 245); transform-origin: 318.04px 285.69px;" id="el1xww34aobk" class="animable"></path><path d="M310.23,305.47h0c-6.38,0-6.87-7.42-6.87-9.69,0-10.07,7.36-22.83,16.08-27.86a13.33,13.33,0,0,1,6.41-2c6.37,0,6.87,7.41,6.87,9.68,0,10.07-7.37,22.83-16.09,27.86A13.21,13.21,0,0,1,310.23,305.47Zm15.62-38.56a12.27,12.27,0,0,0-5.91,1.88c-8.44,4.87-15.58,17.23-15.58,27,0,2,.42,8.69,5.87,8.69a12.23,12.23,0,0,0,5.9-1.88c8.45-4.88,15.59-17.24,15.59-27C331.72,273.56,331.29,266.91,325.85,266.91Z" style="fill: rgb(224, 224, 224); transform-origin: 318.04px 285.695px;" id="elis376xv5vfl" class="animable"></path><path d="M318,275c5.12-3,9.27-.56,9.27,5.35s-4.15,13.11-9.27,16.07-9.28.56-9.28-5.36S312.92,277.94,318,275Z" style="fill: rgb(69, 90, 100); transform-origin: 317.995px 285.701px;" id="eluj5fx9ko2" class="animable"></path><path d="M318,282c1.75-1,3.18-.19,3.18,1.83a7,7,0,0,1-3.18,5.51c-1.76,1-3.18.19-3.18-1.84A7,7,0,0,1,318,282Z" style="fill: rgb(55, 71, 79); transform-origin: 318px 285.67px;" id="elt9lbz4vlqcm" class="animable"></path><path d="M290.93,310l-40.81-23.56S214.46,321.27,197.5,316c0,0-4.31,45.19,15.73,49.08s46.27-20.64,55.88-30.55S290.93,310,290.93,310Z" style="fill: #1487E6; transform-origin: 244.02px 325.967px;" id="elt0qe2l06qnk" class="animable"></path><g id="el1t2hj03mz3o"><path d="M290.93,310l-40.81-23.56S214.46,321.27,197.5,316c0,0-4.31,45.19,15.73,49.08s46.27-20.64,55.88-30.55S290.93,310,290.93,310Z" style="opacity: 0.4; transform-origin: 244.02px 325.967px;" class="animable" id="elcouidd2i39g"></path></g><path d="M333.14,237.45c-3.88-2.28-18.6-10.74-22.44-13a27,27,0,0,0-27.21,0l-22.71,12.9C251,243,231.67,254,230.39,265.23c-1.67,14.61,10.9,36.63-2.53,51.15l22.26,12.85,96.47-60,0-8.29h0A27,27,0,0,0,333.14,237.45Z" style="fill: #1487E6; transform-origin: 287.225px 275.001px;" id="elswd7jn4sdhl" class="animable"></path><g id="el95hzqmbondd"><path d="M253.54,290.79c-1.21-7-5.85-15.57-12-19.1l-.11-.07c-6.12-3.53-11.39-.64-10.18,6.32,2.23,12.9,6.5,27.72-3.42,38.44l22.26,12.85C260,318.51,255.77,303.7,253.54,290.79Z" style="opacity: 0.2; transform-origin: 242.101px 299.671px;" class="animable" id="eldsulgh82t2b"></path></g><g id="elzb6rfagyals"><path d="M305.73,237.36,283,250.24c-9.78,5.64-29.11,16.63-30.39,27.84-1.67,14.61,10.9,36.64-2.53,51.15l96.47-60,0-8.29C346.54,240,323.87,226.88,305.73,237.36Z" style="opacity: 0.1; transform-origin: 298.315px 281.452px;" class="animable" id="elcmx7g6eww1s"></path></g><path d="M333.4,239.71c-6.59-3.73-15.62-4.73-27.67,1.64-.27.14-.56.28-.83.44l-.92.51c-16.45,9.49-29.79,32.58-29.79,51.59,0,.35,0,.71,0,1.08a12,12,0,0,0,6,9.92h0a12,12,0,0,0,12.05,0l13.21-7.62L344,275h0L359.65,266s-4.12-13.46-14.85-19.7C343,245.25,335.46,240.87,333.4,239.71Z" style="fill: #1487E6; transform-origin: 316.92px 271.625px;" id="elr3yfogdxiqb" class="animable"></path><path d="M285.87,306.47a12.24,12.24,0,0,0,5-.88A12.08,12.08,0,0,1,274.21,295c0-.37,0-.73,0-1.09,0-10.58,4.15-22.45,10.66-32.51L296,267.8c-6.52,10.07-10.65,21.93-10.65,32.51A34.74,34.74,0,0,0,285.87,306.47Z" style="fill: #1487E6; transform-origin: 285.105px 283.949px;" id="elfwqoumsf7kn" class="animable"></path><g id="el4zyld9f3czo"><path d="M359.64,266v0l0-.08v0s0-.09-.05-.14v0c-.05-.15-.12-.33-.2-.55v0c0-.1-.09-.22-.13-.34l0-.05-.15-.38v0c-.18-.45-.4-1-.65-1.57l0,0c-.09-.19-.17-.39-.26-.58l0,0c-.29-.64-.62-1.33-1-2.06h0l-.4-.74h0c-.55-1-1.19-2.07-1.91-3.15h0a38.31,38.31,0,0,0-2.43-3.27h0a32.42,32.42,0,0,0-3-3.14h0a27.1,27.1,0,0,0-3.55-2.76h0c-.31-.21-.63-.4-.95-.59l-.12-.07-.26-.15c-6.58-3.68-15.58-4.64-27.57,1.7-.28.13-.56.28-.84.43l-.92.52c-16.45,9.49-29.78,32.58-29.78,51.58a33.87,33.87,0,0,0,.54,6.16,12,12,0,0,0,6.41-1.59l13.21-7.62L344,275h0L359.65,266Z" style="opacity: 0.1; transform-origin: 322.56px 275.123px;" class="animable" id="el6bh7bu9t3aw"></path></g><g id="elgtek5z2n47e"><path d="M344.34,246c-6.57-3.63-15.54-4.56-27.46,1.75-.28.13-.56.28-.84.43l-.92.52c-7.29,4.2-14,11.07-19.13,19.07l-11.14-6.43c5.16-8,11.84-14.87,19.13-19.07l.92-.52c.27-.15.56-.3.83-.43,12-6.37,21.08-5.37,27.67-1.64C335.31,240.8,342,244.65,344.34,246Z" style="fill: rgb(255, 255, 255); opacity: 0.4; transform-origin: 314.595px 252.239px;" class="animable" id="elxcnmyanx2vd"></path></g><path d="M224.15,256.26v-1.61a4.83,4.83,0,0,1,1.88-3.57l37-25.27a4,4,0,0,1,3.87-.15l25.72,14.86a4.34,4.34,0,0,1,2,3.42v5.89a4.36,4.36,0,0,1-2,3.43l-36.85,21.28a4.38,4.38,0,0,1-4,0l-25.73-14.86A4.36,4.36,0,0,1,224.15,256.26Z" style="fill: #1487E6; transform-origin: 259.385px 250.128px;" id="el4rapokmstpw" class="animable"></path><g id="elpt4sx0k9a2g"><path d="M224.15,256.26v-1.61a4.83,4.83,0,0,1,1.88-3.57l37-25.27a4,4,0,0,1,3.87-.15l25.72,14.86a4.34,4.34,0,0,1,2,3.42v5.89a4.36,4.36,0,0,1-2,3.43l-36.85,21.28a4.38,4.38,0,0,1-4,0l-25.73-14.86A4.36,4.36,0,0,1,224.15,256.26Z" style="opacity: 0.55; transform-origin: 259.385px 250.128px;" class="animable" id="elzynmvv0pbv"></path></g><path d="M226.12,253.51l25.73,14.86a4,4,0,0,0,3.86-.15l37-25.27a1.32,1.32,0,0,0-.09-2.43l-25.72-14.86a4,4,0,0,0-3.87.15l-37,25.27A1.32,1.32,0,0,0,226.12,253.51Z" style="fill: #1487E6; transform-origin: 259.37px 247.014px;" id="el226ajjmmus7" class="animable"></path><g id="el5bm0luazwjn"><path d="M226.12,253.51l25.73,14.86a4,4,0,0,0,3.86-.15l37-25.27a1.32,1.32,0,0,0-.09-2.43l-25.72-14.86a4,4,0,0,0-3.87.15l-37,25.27A1.32,1.32,0,0,0,226.12,253.51Z" style="opacity: 0.45; transform-origin: 259.37px 247.014px;" class="animable" id="elhotsk0jkrbe"></path></g><g id="elbl03n0rikeg"><path d="M253.83,268.78V275a4,4,0,0,1-2-.47l-25.73-14.85a4.39,4.39,0,0,1-2-3.43v-1.61a4.88,4.88,0,0,1,1.7-3.42,1.29,1.29,0,0,0,.28,2.28l25.73,14.85A3.61,3.61,0,0,0,253.83,268.78Z" style="opacity: 0.2; transform-origin: 238.965px 263.111px;" class="animable" id="elouz7uru5m7"></path></g><path d="M276.09,226.27v-1.6A4.81,4.81,0,0,1,278,221.1l22.19-16.69a4,4,0,0,1,3.87-.15l25.73,14.86a4.36,4.36,0,0,1,2,3.42v5.89a4.39,4.39,0,0,1-2,3.43l-22,12.69a4.36,4.36,0,0,1-3.95,0L278.07,229.7A4.39,4.39,0,0,1,276.09,226.27Z" style="fill: #1487E6; transform-origin: 303.94px 224.428px;" id="elmwkl2eid08" class="animable"></path><g id="el4zd0jk5ouc"><path d="M276.09,226.27v-1.6A4.81,4.81,0,0,1,278,221.1l22.19-16.69a4,4,0,0,1,3.87-.15l25.73,14.86a4.36,4.36,0,0,1,2,3.42v5.89a4.39,4.39,0,0,1-2,3.43l-22,12.69a4.36,4.36,0,0,1-3.95,0L278.07,229.7A4.39,4.39,0,0,1,276.09,226.27Z" style="opacity: 0.55; transform-origin: 303.94px 224.428px;" class="animable" id="elcelmix2gwvv"></path></g><path d="M278.07,223.53l25.73,14.85a3.94,3.94,0,0,0,3.86-.15l22.2-16.69a1.32,1.32,0,0,0-.09-2.42L304,204.26a4,4,0,0,0-3.87.15L278,221.1A1.32,1.32,0,0,0,278.07,223.53Z" style="fill: #1487E6; transform-origin: 303.92px 221.323px;" id="elw3t7rfmjm1f" class="animable"></path><g id="el3dvawx86x22"><path d="M278.07,223.53l25.73,14.85a3.94,3.94,0,0,0,3.86-.15l22.2-16.69a1.32,1.32,0,0,0-.09-2.42L304,204.26a4,4,0,0,0-3.87.15L278,221.1A1.32,1.32,0,0,0,278.07,223.53Z" style="opacity: 0.45; transform-origin: 303.92px 221.323px;" class="animable" id="elahdor5k9wdp"></path></g><g id="eloh15w70y2la"><path d="M305.77,238.8V245a4,4,0,0,1-2-.48L278.07,229.7a4.36,4.36,0,0,1-2-3.43v-1.6a4.92,4.92,0,0,1,1.7-3.43,1.29,1.29,0,0,0,.28,2.28l25.72,14.86A3.72,3.72,0,0,0,305.77,238.8Z" style="opacity: 0.2; transform-origin: 290.92px 233.121px;" class="animable" id="elbry9cpg7ct"></path></g><path d="M321.51,323.1a57.79,57.79,0,0,1,.91,9.54c.11,5.79,1.18,7.84,1.32,12.6.16,5.43-1,12.15-3.18,15.2s-8.49,4.66-10.94-.5-2.13-11.88-1.34-17.21c.8-5.51.91-8.55,1.37-12.75.42-3.7.91-6.51.91-6.51a43.94,43.94,0,0,1,.53,6.31c-.49,12.42-.62,19.76,5.19,19.34,2.58-.19,5.11-6.28,4.94-19.89A45.34,45.34,0,0,1,321.51,323.1Z" style="fill: rgb(55, 71, 79); transform-origin: 315.729px 343.191px;" id="elus0cakwwt7" class="animable"></path><path d="M309.86,314.58c.21,2.21.72,7.44.7,8.89,0,1.83-1,18-.6,22.12.65,6.1,9.49,6.56,10.76-.39.85-4.63.73-19.85.79-22.1.05-1.63.31-6.59.41-8.52Z" style="fill: rgb(255, 168, 167); transform-origin: 315.89px 332.434px;" id="elbjtoupu02qu" class="animable"></path><path d="M310.23,318.52c-4-29.54-8-54.93-8.92-65-1.09-15.41,2.75-41.72,5.22-52.1,2.85-12,29.09-7,29.09-7,7,19.67-9.59,44.88-14.05,58.22.25,3,1.67,6.51,2.52,16.26,1.32,15.16-2.23,47.91-2.34,49C321.75,317.87,317.09,324.14,310.23,318.52Z" style="fill: rgb(255, 168, 167); transform-origin: 319.22px 257.124px;" id="eldx8b1pnvuy" class="animable"></path><path d="M306.27,81.82h0a23.05,23.05,0,0,0-23,23.05v2.61a4.66,4.66,0,0,1-3.84,4.53h-.08a6.09,6.09,0,0,0-3.21,10.09,7.25,7.25,0,0,0-.8,13.52,7.23,7.23,0,0,0,3.62,11,7,7,0,0,0,4.31.12v3.16h12.6a33.5,33.5,0,0,0,33.5-33.5V104.87A23.05,23.05,0,0,0,306.27,81.82Z" style="fill: rgb(38, 50, 56); transform-origin: 300.222px 115.86px;" id="elnqex1ifcir" class="animable"></path><path d="M294.06,85.36a13.67,13.67,0,0,0-11,4.76c-5,5.5-4.61,17.53,3.63,19S294.06,85.36,294.06,85.36Z" style="fill: rgb(38, 50, 56); transform-origin: 286.94px 97.2639px;" id="elfyfdsw4pgcl" class="animable"></path><path d="M316.41,107.36s1.84-9.66-3-16.81c-2.74-4-11.78-8.73-19.32-5.19,0,0,4.09-4.78,13.14-3.7,0,0,15.49,1.69,11.59,24" style="fill: #1487E6; transform-origin: 306.77px 94.4306px;" id="eljwcf61aadvl" class="animable"></path><path d="M239,198.56c2.46.55,31.51-10.81,35.2-13.95s20.95-35.87,20.95-35.87c4.12-11.51,4.35-16.45,4.35-16.45s-8.52-1.51-14.64,9.2c-3.27,5.74-19.33,32.42-19.33,32.42S242.16,186.68,239,188.52" style="fill: rgb(255, 168, 167); transform-origin: 269.25px 165.398px;" id="elqqfk9lwyuwe" class="animable"></path><path d="M290,167.6a67.33,67.33,0,0,1,3.55,10.28c20.53,17.4,32.69-4,32.69-4l1.83-16s-8.66-6.22-1.1-23.82l-10-2.09-13.91.2-3.5.14c-4.37,3.83-9.74,11.81-11.88,16.78C285.94,152.94,282.46,160.2,290,167.6Z" style="fill: #1487E6; transform-origin: 306.708px 158.334px;" id="el6aw1ocge3tu" class="animable"></path><g id="el4gh7op2o7kg"><g style="opacity: 0.7; transform-origin: 306.708px 158.334px;" class="animable" id="elrmozjmypwie"><path d="M290,167.6a67.33,67.33,0,0,1,3.55,10.28c20.53,17.4,32.69-4,32.69-4l1.83-16s-8.66-6.22-1.1-23.82l-10-2.09-13.91.2-3.5.14c-4.37,3.83-9.74,11.81-11.88,16.78C285.94,152.94,282.46,160.2,290,167.6Z" style="fill: rgb(255, 255, 255); transform-origin: 306.708px 158.334px;" id="el075ppbc8pv2x" class="animable"></path></g></g><g id="elaghle1tuxw6"><path d="M328,157.86s-4.72-3.4-4.14-12.28l-1.24-.4c-1,5.22.42,14.67.7,17.86s.37,15.62-20.8,17.86a22.58,22.58,0,0,0-3.87.68c17.38,10.13,27.52-7.67,27.52-7.67Z" style="opacity: 0.1; transform-origin: 313.325px 164.939px;" class="animable" id="elcfrb9hz8ho5"></path></g><path d="M326.2,173.91s6.43,10.17,9.25,16.08,5.34,18.57,0,32.14-9.05,19-9.05,19-15.61,2.85-25.28-5.1c.12-1.09,1.78-18.69,1.78-18.69l-28.71,15.48-16.3-24.14,32.59-23.25,3-7.57s4.68,3.83,16,2.78S326.2,173.91,326.2,173.91Z" style="fill: rgb(55, 71, 79); transform-origin: 298.235px 207.768px;" id="elkzjdd4z017i" class="animable"></path><path d="M302.9,217.36l1-7a24.3,24.3,0,0,1-10.41-9,16,16,0,0,0,7.13,10.31l-.47,5.08-27.79,13.4,1.81,2.69Z" style="fill: rgb(38, 50, 56); transform-origin: 288.13px 217.1px;" id="el32vh85iqimp" class="animable"></path><path d="M322.08,105.87c-2.24-2.2-5.8-1.55-7.36,1.57,0,0-3.06.94-10.37-1.59-6-2.08-12.94-6.69-14.08-12.25-2.21,3.46-3.67,10.25-3.06,19.3.75,11.2,4.66,13,6.53,13.67s5.43.73,8.81,0l.44,5.62s-6.86,8.83-3.5,14.74C310.75,143,316.9,132,316.9,132V116.67a4.93,4.93,0,0,0,5.46-1.3A7.48,7.48,0,0,0,322.08,105.87Z" style="fill: rgb(255, 168, 167); transform-origin: 305.498px 120.265px;" id="elmi4x7iewtqc" class="animable"></path><path d="M301.93,108a1.67,1.67,0,0,0,1.5,1.82,1.69,1.69,0,0,0,1.77-1.58,1.64,1.64,0,1,0-3.27-.24Z" style="fill: rgb(38, 50, 56); transform-origin: 303.565px 108.129px;" id="elwp89s1rc7u" class="animable"></path><path d="M303.72,103l3.13,2a2,2,0,0,0-.57-2.66A1.83,1.83,0,0,0,303.72,103Z" style="fill: rgb(38, 50, 56); transform-origin: 305.426px 103.533px;" id="elczqnq4tt1ue" class="animable"></path><path d="M302.4,119l-3.59,1a1.83,1.83,0,0,0,2.28,1.34A2,2,0,0,0,302.4,119Z" style="fill: rgb(242, 143, 143); transform-origin: 300.63px 120.205px;" id="eltgsoh4nrh9a" class="animable"></path><path d="M288,103.88l3.44-1.54a1.8,1.8,0,0,0-2.43-1A2,2,0,0,0,288,103.88Z" style="fill: rgb(38, 50, 56); transform-origin: 289.651px 102.529px;" id="eltwx1mq6ee5" class="animable"></path><path d="M289.11,107.33a1.53,1.53,0,1,0,1.65-1.48A1.56,1.56,0,0,0,289.11,107.33Z" style="fill: rgb(38, 50, 56); transform-origin: 290.639px 107.376px;" id="elnm45rjtqgq" class="animable"></path><polygon points="297.3 106.39 297.43 115.67 291.91 114.65 297.3 106.39" style="fill: rgb(242, 143, 143); transform-origin: 294.67px 111.03px;" id="elqm7w7tp58fj" class="animable"></polygon><path d="M302.55,126.53c3.58-.69,10.85-3.27,11.83-6.27a7.57,7.57,0,0,1-2.37,3.9c-2.1,2-9.28,4.61-9.28,4.61Z" style="fill: rgb(242, 143, 143); transform-origin: 308.465px 124.515px;" id="elocs3yiplc8" class="animable"></path><path d="M311.81,111.35h0a2.91,2.91,0,0,0,2.91-2.91v-7.26h-2.91Z" style="fill: rgb(38, 50, 56); transform-origin: 313.265px 106.265px;" id="ely8l2vrz4j1" class="animable"></path><path d="M290.93,310s-33.68,32.76-57,46.82l0,8.68c25.57-13.74,57-51.21,57-51.21Z" style="fill: #1487E6; transform-origin: 262.43px 337.75px;" id="eletxdwedu0gh" class="animable"></path><path d="M241.29,149.41c-6.84.6-11.5,3.05-15.64,10.59-3.56,6.51-17.7,35.06-17.7,35.06s-38.91-1.59-46.61-2.26-2.57,15.37-2.57,15.37,1.07,2,3.93-.4,3-3.45,3-3.45S207,211,212.12,211s5.8-1.9,9.2-6.52c4.88-6.64,18.29-33.1,18.29-33.1Z" style="fill: rgb(242, 143, 143); transform-origin: 199.193px 180.205px;" id="elghdxk2jwqdm" class="animable"></path><path d="M242.37,149.48s-3.79-1.44-9.41,1.15c-3.85,1.77-7.44,7.85-10.07,12.93s-10.62,21.18-10.62,21.18,4.66,8.52,17.11,8.41l14.42-25.23Z" style="fill: rgb(69, 90, 100); transform-origin: 228.035px 171.116px;" id="eleucws1updqa" class="animable"></path><g id="freepik--Boy--inject-7" class="animable" style="transform-origin: 231.468px 304.497px;"><path d="M259.88,345.83c.22,2.21.72,7.44.71,8.89,0,1.83-1,18-.6,22.12.64,6.1,9.48,6.56,10.76-.39.85-4.63.73-19.85.79-22.1,0-1.63.31-6.59.4-8.52Z" style="fill: rgb(242, 143, 143); transform-origin: 265.91px 363.684px;" id="elomb7vxvrx3" class="animable"></path><path d="M271.54,354.35a57.79,57.79,0,0,1,.91,9.54c.11,5.79,1.17,7.84,1.31,12.59.16,5.44-1,12.16-3.18,15.21s-8.49,4.66-10.93-.5-2.13-11.88-1.35-17.21c.81-5.51.91-8.55,1.38-12.75.41-3.7.91-6.51.91-6.51.82.1.8,4.29.78,6.34l1.06-5a1.89,1.89,0,0,1,1.73-1.25l3.7-.1a1.89,1.89,0,0,1,1.88,1.39l.95,4.94C270.86,358.66,270.89,354.48,271.54,354.35Z" style="fill: rgb(55, 71, 79); transform-origin: 265.755px 374.441px;" id="elmt05kaw5ro" class="animable"></path><polygon points="208.72 325.22 198.45 325.77 198.7 323.7 198.79 322.16 199.73 307.11 210.92 307.51 209.33 322.52 209.22 323.68 208.72 325.22" style="fill: rgb(242, 143, 143); transform-origin: 204.685px 316.44px;" id="elsc0lxvl23il" class="animable"></polygon><path d="M194.44,346c2.92-1.94,4.05-5.69,7.11-7.5a21,21,0,0,1,4.49-1.6,6.8,6.8,0,0,0,3.89-2.58,6.54,6.54,0,0,0,.6-4.31c-.2-1.47-.14-3-.28-4.44a10.72,10.72,0,0,0-.33-2.27c0-.07-.57-1-.59-.81l-.11,1.15c-1.36,1.7-8,1.6-10.52,0a7.06,7.06,0,0,1,.09-1.54c-1.6,1-2.56,2.68-3.79,4.16a49.68,49.68,0,0,1-7.32,7c-3,1.92-6.3,3.2-9.33,5a5,5,0,0,0-2.18,2.09c-1.54,3.5,3.15,5.4,5.67,6.3C185.66,348.07,190.92,348.37,194.44,346Z" style="fill: rgb(38, 50, 56); transform-origin: 193.264px 334.925px;" id="elyc6shvoew8o" class="animable"></path><path d="M285.9,225.16c1.22,8.55-22.4,12.71-38.78,22.67-12.84,7.81-28.07,17.78-28.07,17.78a136.73,136.73,0,0,1-.46,15.1c-1.45,12.45-4.79,20.44-8.23,36.14,0,0-8.12,1.32-11.73-1.49,0,0-2.12-56.09-1.13-60.73,2.4-11.31,32.93-34.75,38.85-39.76C239.73,212,285.9,225.16,285.9,225.16Z" style="fill: rgb(55, 71, 79); transform-origin: 241.591px 265.81px;" id="elqiekdqrcnrb" class="animable"></path><path d="M259,347.66c-4-29.54-8.6-53.29-9.53-63.41-1.09-15.41.3-38.14,1.58-48.74s35.63-10.57,35.63-10.57c3.27,15.87-15.08,58.91-15.08,58.91.25,2.95,1.27,3.26,2.52,16.26,1.47,15.15-1.16,46.41-1.27,47.51C272.84,347.62,265.85,353.28,259,347.66Z" style="fill: rgb(55, 71, 79); transform-origin: 268.074px 287.544px;" id="el08q77qatb57j" class="animable"></path></g><g id="freepik--boy--inject-7" class="animable" style="transform-origin: 253.876px 163.562px;"><path d="M279.08,168.28c3.61,15.63,7.59,56.66,7.59,56.66-7,7.62-38.11,6.24-50.32-10.07-1.07-12.61-4.29-22.5-7-45-1.12-9,2.57-17,12-20.47l15.52-.54,12.57,2.56C275.47,155,277.72,162.4,279.08,168.28Z" style="fill: rgb(240, 240, 240); transform-origin: 257.913px 189.132px;" id="eliya1r4poab" class="animable"></path><g id="eldjvwxrv0u3o"><path d="M281.53,182l-16.89-10L267,206.84s-4.22,12.07-8.9,14a19.09,19.09,0,0,1-17.89-1.84c13.93,12.31,40.11,12.8,46.45,5.89C286.67,224.94,284.29,200.36,281.53,182Z" style="opacity: 0.1; transform-origin: 263.435px 200.677px;" class="animable" id="elv9iynzgdyc"></path></g><g id="elq5jxyy2hy9s"><circle cx="237.75" cy="114.87" r="14.86" style="fill: rgb(38, 50, 56); transform-origin: 237.75px 114.87px; transform: rotate(-7.48089deg);" class="animable" id="eliqhuj5jqj"></circle></g><path d="M263.91,124.21s-1.87,11.42-2.75,13.32a5.09,5.09,0,0,1-2.84,2.52l-.21-8Z" style="fill: rgb(38, 50, 56); transform-origin: 261.01px 132.13px;" id="el213t89im45l" class="animable"></path><path d="M260.12,108.16a5.6,5.6,0,0,1,4.69,1.41c2.08,1.93,1.27,8.32-.9,14.64l-4.51.73Z" style="fill: rgb(38, 50, 56); transform-origin: 262.708px 116.514px;" id="elk5gva5y3vy" class="animable"></path><path d="M258,125c.94.5,2.15-1.3,3.22-2.53s4.64-3,6.65.76-1.18,9.17-4,10.21c-4.89,1.79-5.78-1.36-5.78-1.36l.47,17.92c-4,5-19.55,9.4-16.17.29l-.25-5.44a59,59,0,0,1-6.67.66c-2.53,0-5.36-1.77-7.09-7.34-2.16-7-2.44-15.93-1.47-25,1.32-12.29,16-13.31,24.84-8.31S258,125,258,125Z" style="fill: rgb(242, 143, 143); transform-origin: 247.439px 128.811px;" id="elu0uhkjr1d9" class="animable"></path><path d="M258.12,126.54c.4-.21,2.06-3,3.14-4.06,1.5-1.5-1.14-14.32-1.14-14.32s1.36-3.28-1.82-6.46a13,13,0,0,0-12.48-3.6c-4.45,1-9,2.27-13.55,1.27a51.32,51.32,0,0,0-6.78-1.4,1.05,1.05,0,0,0-.78.15,1,1,0,0,0-.24.82,7.09,7.09,0,0,0,1.51,4.11l-2.84-.71a.8.8,0,0,0-.59,0,.7.7,0,0,0-.23.58,6.77,6.77,0,0,0,2.21,5.4c3.14,2.79,6.49,3.61,10.65,3.78a50.53,50.53,0,0,0,16.21-1.75c1.67-.31,2.11,1.3,3.23,5.72C255.6,120,254.59,128.43,258.12,126.54Z" style="fill: rgb(38, 50, 56); transform-origin: 242.015px 112.266px;" id="els4cji1jmjg8" class="animable"></path><path d="M260.16,109.17l5.36-3.21a3,3,0,0,0-4.23-1.18A3.3,3.3,0,0,0,260.16,109.17Z" style="fill: rgb(38, 50, 56); transform-origin: 262.634px 106.754px;" id="eleupkp4v2q9v" class="animable"></path><path d="M242.16,144.86s8.07-2,10.85-3.68a9.29,9.29,0,0,0,3.75-4.08,12.87,12.87,0,0,1-2,4.7c-2,2.76-12.47,5.22-12.47,5.22Z" style="fill: rgb(177, 102, 104); transform-origin: 249.46px 142.06px;" id="elu1ti0trwa8" class="animable"></path><path d="M242.17,123.77a1.63,1.63,0,1,0,1.55-1.78A1.66,1.66,0,0,0,242.17,123.77Z" style="fill: rgb(38, 50, 56); transform-origin: 243.794px 123.618px;" id="elqiieu4qpyhg" class="animable"></path><path d="M243.55,117.69l3.58,1.77a2.1,2.1,0,0,0-.95-2.75A2,2,0,0,0,243.55,117.69Z" style="fill: rgb(38, 50, 56); transform-origin: 245.437px 117.998px;" id="elj45328m2gx" class="animable"></path><path d="M243.28,135l-3.67,1.58a2,2,0,0,0,2.6,1.11A2.09,2.09,0,0,0,243.28,135Z" style="fill: rgb(177, 102, 104); transform-origin: 241.522px 136.417px;" id="elq2nlczme3c" class="animable"></path><path d="M227.19,120.11l3.44-2.08a1.93,1.93,0,0,0-2.71-.73A2.1,2.1,0,0,0,227.19,120.11Z" style="fill: rgb(38, 50, 56); transform-origin: 228.777px 118.562px;" id="eldrbm3no2lur" class="animable"></path><path d="M228.8,124.23a1.63,1.63,0,1,0,1.55-1.78A1.66,1.66,0,0,0,228.8,124.23Z" style="fill: rgb(38, 50, 56); transform-origin: 230.424px 124.078px;" id="elh57rizy0ago" class="animable"></path><polygon points="237.59 122.13 238.95 131.95 232.96 131.58 237.59 122.13" style="fill: rgb(177, 102, 104); transform-origin: 235.955px 127.04px;" id="ele3hrbb9k11" class="animable"></polygon></g><path d="M234,198.94c.19,1,1.76,3.31,4.94,4.82s6.69.58,6.44,3.36-2.41,6.38-5.51,7.2-6.07-2-7.42-4-2.43-14.09.86-15.13l.69,3.76" style="fill: rgb(255, 168, 167); transform-origin: 238.266px 204.828px;" id="elnftq6uye6kc" class="animable"></path><path d="M252.51,257.43c.56,0,4.64-.32,6-5.31s3.45-7.09,3.45-7.09,22.56-25.91,24.74-33.22-3.28-48.36-6.08-52.54c-2-3-5.66-5.38-10.5-6.33,0,0-4.77,2.92-5.13,11.35-.4,9.34,2.61,13.61,2.61,13.61l3.4,31.35-21.51,32.36Z" style="fill: rgb(242, 143, 143); transform-origin: 268.346px 205.185px;" id="el7yquxuqkzpy" class="animable"></path><path d="M281.35,198.56c-1.4,1-.88,3.65.8,5.47a26.23,26.23,0,0,0,5,3.75v-2.59Z" style="fill: rgb(242, 143, 143); transform-origin: 283.846px 203.17px;" id="elmjjob4st3dn" class="animable"></path><path d="M269.38,151.43a17.76,17.76,0,0,0-5.44,9.83c-.87,5.9,4.38,32.43,4.38,32.43s11.88,2.71,18.35-2.64c0,0-1.75-19-3.72-26.44S279,152.67,269.38,151.43Z" style="fill: rgb(69, 90, 100); transform-origin: 275.256px 172.903px;" id="elz2j7cuxn9hd" class="animable"></path><path d="M233.91,356.77a45.94,45.94,0,0,1-9.76,4.6c-7.74,2.4-22.27-5.49-22.27-39.62a180.61,180.61,0,0,1,6.83-48.06c2.06-7.29-1-16.07-7.56-19.86L184.06,244c-6.55-3.78-15.42-1.82-18.77,5a136.89,136.89,0,0,0-13.6,62c.28,23.41,7.85,32.43,13.09,37.54,6.17,6,30.07,22.68,54.9,21.42a34.25,34.25,0,0,0,14.26-4.48" style="fill: #1487E6; transform-origin: 192.804px 306.064px;" id="elf7hkpxrh4nc" class="animable"></path><g id="el9mtxqjqxkm"><path d="M196.42,348.51c-5.93-12.11-9.38-21.42-24.22-30-11.39-6.57-17.86-2.74-19,7.87,2.52,12.38,7.69,18.33,11.58,22.12,6.17,6,30.07,22.68,54.9,21.42C209.3,369.93,202.35,360.62,196.42,348.51Z" style="opacity: 0.2; transform-origin: 186.44px 342.63px;" class="animable" id="el1gzyxm4a6zl"></path></g><g id="eluu0d4gizi0h"><path d="M184.55,301.83a5,5,0,0,1-2.18,3.42l-3.47,2a2.29,2.29,0,0,1-3.12-.83l-5.13-8.9a8.16,8.16,0,0,1-.92-4.25c.84-7.56,4.27-32.33,14.62-49.11l14.84,8.54S187.14,275.84,184.55,301.83Z" style="opacity: 0.2; transform-origin: 184.453px 275.858px;" class="animable" id="elsdo69epro7g"></path></g><path d="M183.53,301.25a4.92,4.92,0,0,1-2.18,3.42l-3.46,2a2.28,2.28,0,0,1-3.12-.84l-5.14-8.89a8.18,8.18,0,0,1-.91-4.25c.83-7.56,4.26-32.33,14.61-49.11l14.84,8.54S186.13,275.25,183.53,301.25Z" style="fill: #1487E6; transform-origin: 183.438px 275.278px;" id="elyujup0gbxqm" class="animable"></path><g id="elzazd76krg6s"><path d="M183.53,301.25a4.92,4.92,0,0,1-2.18,3.42l-3.46,2a2.28,2.28,0,0,1-3.12-.84l-5.14-8.89a8.18,8.18,0,0,1-.91-4.25c.83-7.56,4.26-32.33,14.61-49.11l14.84,8.54S186.13,275.25,183.53,301.25Z" style="fill: rgb(255, 255, 255); opacity: 0.2; transform-origin: 183.438px 275.278px;" class="animable" id="ele6u0mpsltuk"></path></g><path d="M181.41,294.35a.47.47,0,0,1-.25-.07L172,289a.51.51,0,0,1-.18-.69.49.49,0,0,1,.68-.18l9.21,5.32a.51.51,0,0,1,.19.68A.52.52,0,0,1,181.41,294.35Z" style="fill: rgb(69, 90, 100); transform-origin: 176.857px 291.207px;" id="el0fha1fnwsb0o" class="animable"></path><path d="M180.79,297.21a.57.57,0,0,1-.25-.06l-8.29-4.79a.49.49,0,0,1-.18-.68.51.51,0,0,1,.68-.19l8.29,4.79a.5.5,0,0,1-.25.93Z" style="fill: rgb(69, 90, 100); transform-origin: 176.642px 294.32px;" id="eldrplijnbum7" class="animable"></path><path d="M180.17,300.08a.55.55,0,0,1-.25-.07l-7.37-4.26a.5.5,0,0,1,.5-.86l7.37,4.25a.51.51,0,0,1,.18.69A.5.5,0,0,1,180.17,300.08Z" style="fill: rgb(69, 90, 100); transform-origin: 176.506px 297.463px;" id="elbxgz7oalzp8" class="animable"></path><path d="M179.55,302.94a.45.45,0,0,1-.25-.07l-6.45-3.72a.5.5,0,0,1,.5-.87L179.8,302a.5.5,0,0,1-.25.93Z" style="fill: rgb(69, 90, 100); transform-origin: 176.322px 300.577px;" id="ellsjwxvjr1up" class="animable"></path><path d="M192.1,304.31l3.44,2a4.26,4.26,0,0,1,2,3.43,49.84,49.84,0,0,1-.48,5.64,8.68,8.68,0,0,1-7.92,7.31H189a1.61,1.61,0,0,1-1.77-1.82,128.73,128.73,0,0,0,2.68-15.41A1.36,1.36,0,0,1,192.1,304.31Z" style="fill: rgb(250, 250, 250); transform-origin: 192.377px 313.363px;" id="elmv860omizv" class="animable"></path><path d="M162.78,287.36l-2.47-1.43a1.64,1.64,0,0,0-2.55,1.07,38.38,38.38,0,0,0-1.11,8c0,5.49,1.84,9.16,3.06,10.46s3.32,2.22,3.29.61a73.13,73.13,0,0,1,1.32-15.29A3.44,3.44,0,0,0,162.78,287.36Z" style="fill: rgb(250, 250, 250); transform-origin: 160.505px 296.283px;" id="elwa766y4vx9" class="animable"></path><path d="M226.48,360.05a43.28,43.28,0,0,0,7.46-3.23,48.92,48.92,0,0,1-9.8,4.55c-7.72,2.4-22.26-5.49-22.26-39.62a180.15,180.15,0,0,1,6.84-48.06c2.05-7.28-1-16.07-7.57-19.86L184.06,244a14.27,14.27,0,0,0-12.64-.79,14.09,14.09,0,0,1,15-.53l17.08,9.86c6.56,3.79,9.63,12.57,7.57,19.86a180.63,180.63,0,0,0-6.83,48.07C204.22,354.56,218.74,362.44,226.48,360.05Z" style="fill: #1487E6; transform-origin: 202.68px 301.27px;" id="eldn7q1vcqg2" class="animable"></path><g id="elm8v82kglqeb"><path d="M226.48,360.05c-7.74,2.39-22.26-5.49-22.26-39.61a180.63,180.63,0,0,1,6.83-48.07,18.25,18.25,0,0,0-.24-10.3l-2.33,1.36a18.29,18.29,0,0,1,.24,10.26,180.15,180.15,0,0,0-6.84,48.06c0,34.13,14.54,42,22.26,39.62a48.92,48.92,0,0,0,9.8-4.55A43.28,43.28,0,0,1,226.48,360.05Z" style="opacity: 0.1; transform-origin: 217.91px 311.916px;" class="animable" id="elx0fwu2xupia"></path></g><g id="elz67bndt25wj"><path d="M203.48,252.51l-17.08-9.86a14.09,14.09,0,0,0-15,.53,14.27,14.27,0,0,1,12.64.79l17.09,9.86a16.67,16.67,0,0,1,7.33,9.6l2.33-1.36A16.71,16.71,0,0,0,203.48,252.51Z" style="fill: rgb(255, 255, 255); opacity: 0.4; transform-origin: 191.095px 252.086px;" class="animable" id="el0z5qi0ediav"></path></g><path d="M186,353.84h0c-3.59-11.75-18.28-21.48-32-17.63h0a26.44,26.44,0,0,0-6.19,2.64c-13.32,7.68-24.12,26.39-24.12,41.77a25.29,25.29,0,0,0,1.08,7.64h0c3.59,11.76,18.28,21.43,32,17.58h0a26.56,26.56,0,0,0,6.18-2.64C176.25,395.5,187,376.8,187,361.42A25.27,25.27,0,0,0,186,353.84Z" style="fill: rgb(69, 90, 100); transform-origin: 155.347px 371.027px;" id="eliw4njhed3r" class="animable"></path><path d="M162.93,403.19C176.25,395.5,187,376.8,187,361.42s-10.8-21.62-24.11-13.94-24.12,26.39-24.12,41.77S149.61,410.88,162.93,403.19Z" style="fill: rgb(55, 71, 79); transform-origin: 162.885px 375.337px;" id="elfwegi7xqbuc" class="animable"></path><path d="M152.16,401.83c-8.15,0-8.78-9.69-8.78-12.66,0-13.67,10-31,21.83-37.81a17.49,17.49,0,0,1,8.48-2.68c8.15,0,8.79,9.69,8.79,12.66,0,13.66-10,31-21.84,37.81a17.52,17.52,0,0,1-8.48,2.68Z" style="fill: rgb(245, 245, 245); transform-origin: 162.93px 375.255px;" id="elh3bly1v8bhl" class="animable"></path><path d="M155.12,395h0c-6.38,0-6.87-7.41-6.87-9.68,0-10.07,7.36-22.83,16.08-27.86a13.19,13.19,0,0,1,6.4-2c6.38,0,6.88,7.41,6.88,9.68,0,10.07-7.37,22.83-16.09,27.86A13.19,13.19,0,0,1,155.12,395Zm15.61-38.55a12.35,12.35,0,0,0-5.9,1.87c-8.45,4.88-15.58,17.24-15.58,27,0,2,.42,8.68,5.87,8.68a12.27,12.27,0,0,0,5.9-1.88c8.45-4.87,15.59-17.23,15.59-27C176.61,363.12,176.18,356.48,170.73,356.48Z" style="fill: rgb(224, 224, 224); transform-origin: 162.93px 375.23px;" id="elek8ue3gyw8n" class="animable"></path><path d="M162.93,364.54c5.12-3,9.27-.56,9.27,5.36S168.05,383,162.93,386s-9.28.56-9.28-5.36S157.8,367.5,162.93,364.54Z" style="fill: rgb(69, 90, 100); transform-origin: 162.925px 375.27px;" id="el39crqxb9qq4" class="animable"></path><path d="M162.93,371.59c1.75-1,3.17-.2,3.17,1.83a7,7,0,0,1-3.17,5.5c-1.76,1-3.18.2-3.18-1.83A7,7,0,0,1,162.93,371.59Z" style="fill: rgb(55, 71, 79); transform-origin: 162.925px 375.255px;" id="eljzx1x93xgg" class="animable"></path><path d="M182.36,338.31c-3.29-1.9-15.52-8.74-18.52-10.68-5.23-3.36-12.61-3.07-20.82,1.67-8,4.58-15.12,12.5-20.3,21.54a2.91,2.91,0,0,0,1.09,4c4.12,2.36,12.19,7,16.56,9.58,5,3,17-4.49,28.71-3.37a20.71,20.71,0,0,1,5.77,1.32c7.91,3.08,10.64,4.13,13.61,3.05a2.82,2.82,0,0,0,1.81-2.25,42.7,42.7,0,0,0,.48-6.31C190.75,347.72,187.55,341.3,182.36,338.31Z" style="fill: #1487E6; transform-origin: 156.538px 345.608px;" id="el5dzqpppn9d7" class="animable"></path><g id="elq1mcyld63s"><path d="M182.36,338.31c-3.29-1.9-15.52-8.74-18.52-10.68-5.23-3.36-12.61-3.07-20.82,1.67a48.74,48.74,0,0,0-11,8.88l40.73,23.52a17.89,17.89,0,0,1,2.08.66c7.91,3.08,10.64,4.13,13.61,3.05a2.82,2.82,0,0,0,1.81-2.25,42.7,42.7,0,0,0,.48-6.31C190.75,347.72,187.55,341.3,182.36,338.31Z" style="fill: rgb(255, 255, 255); opacity: 0.3; transform-origin: 161.375px 345.603px;" class="animable" id="el76sz2rgybi"></path></g><path d="M190.75,356.85a45.06,45.06,0,0,1-.72,7.82c-3.77,2.12-5.92,1.29-15.18-2.31a20.71,20.71,0,0,0-5.77-1.32c-11.74-1.12-23.7,6.34-28.71,3.37a68.92,68.92,0,0,1,10-14.37,50,50,0,0,1,11.78-9.72,30.6,30.6,0,0,1,8.31-3.39c4.57-1,8.65-.52,11.94,1.38C187.55,341.3,190.75,347.72,190.75,356.85Z" style="fill: #1487E6; transform-origin: 165.56px 351.121px;" id="el4j3bjnnrvs" class="animable"></path><g id="elyydd9uad9o"><path d="M190.75,356.85a45.06,45.06,0,0,1-.72,7.82c-3.77,2.12-5.92,1.29-15.18-2.31a20.71,20.71,0,0,0-5.77-1.32c-11.74-1.12-23.7,6.34-28.71,3.37a68.92,68.92,0,0,1,10-14.37,50,50,0,0,1,11.78-9.72,30.6,30.6,0,0,1,8.31-3.39c4.57-1,8.65-.52,11.94,1.38C187.55,341.3,190.75,347.72,190.75,356.85Z" style="opacity: 0.1; transform-origin: 165.56px 351.121px;" class="animable" id="el22fgfwo9ptd"></path></g><path d="M159.44,209.66,162.7,204l-13.81-8h0a1.6,1.6,0,0,0-1.65.14,5.1,5.1,0,0,0-2.3,4,1.63,1.63,0,0,0,.64,1.47h0Z" style="fill: rgb(69, 90, 100); transform-origin: 153.816px 202.747px;" id="elcpvbs86y6kw" class="animable"></path><path d="M158.77,208.17c0,1.47,1,2.06,2.3,1.33a5.11,5.11,0,0,0,2.31-4c0-1.47-1-2.07-2.31-1.33A5.09,5.09,0,0,0,158.77,208.17Z" style="fill: rgb(55, 71, 79); transform-origin: 161.075px 206.833px;" id="elk4a9cdlivmm" class="animable"></path><path d="M161.34,192.8c-2.87,0-8.76-1.12-12.1,1.44s-4.46,9.19-2.82,12,7.9,5.81,10.41,5.15,2.6-1.76,2.6-1.76l-2-1.12s-1.38-6.22,2.6-6l2.64,1.53,3-4.07Z" style="fill: rgb(242, 143, 143); transform-origin: 155.672px 202.019px;" id="elpsmc9mwgghe" class="animable"></path><path d="M169.48,212.58l.89-1.54L161.61,206h0a.44.44,0,0,0-.45,0,1.39,1.39,0,0,0-.63,1.09.44.44,0,0,0,.18.4h0Z" style="fill: rgb(240, 240, 240); transform-origin: 165.449px 209.259px;" id="ellr3xudgfg0i" class="animable"></path><path d="M169.3,212.17c0,.4.28.56.63.36a1.38,1.38,0,0,0,.62-1.08c0-.41-.28-.57-.62-.37A1.39,1.39,0,0,0,169.3,212.17Z" style="fill: rgb(224, 224, 224); transform-origin: 169.925px 211.805px;" id="el41jjw6vb72l" class="animable"></path><path d="M214.4,247c-2.85-.11-8.9,1.44-10.92,5.48l-17.08-9.86s1.82-7.67-9.8-16.64Z" style="fill: #1487E6; transform-origin: 195.5px 239.23px;" id="el26aaxv09jde" class="animable"></path><g id="ela3gr5ipg68w"><path d="M214.4,247c-2.85-.11-8.9,1.44-10.92,5.48l-17.08-9.86s1.82-7.67-9.8-16.64Z" style="opacity: 0.2; transform-origin: 195.5px 239.23px;" class="animable" id="elulrjgjci38"></path></g><polygon points="202.3 242.85 229.07 252.12 229.07 246.02 207.95 233.83 202.3 242.85" style="fill: #1487E6; transform-origin: 215.685px 242.975px;" id="el1oczheox9s6" class="animable"></polygon><polygon points="213.23 230.78 234.35 242.97 229.07 246.02 207.95 233.83 213.23 230.78" style="fill: #1487E6; transform-origin: 221.15px 238.4px;" id="elir70ibhng4r" class="animable"></polygon><g id="elqpnsq6m83h"><polygon points="213.23 230.78 234.35 242.97 229.07 246.02 207.95 233.83 213.23 230.78" style="fill: rgb(255, 255, 255); opacity: 0.4; transform-origin: 221.15px 238.4px;" class="animable" id="eljodnqbc51gp"></polygon></g><polygon points="229.07 252.12 234.35 249.07 234.35 242.97 229.07 246.02 229.07 252.12" style="fill: #1487E6; transform-origin: 231.71px 247.545px;" id="el1mzmgspfgw4" class="animable"></polygon><g id="el0i6db8154jxl"><polygon points="229.07 252.12 234.35 249.07 234.35 242.97 229.07 246.02 229.07 252.12" style="opacity: 0.1; transform-origin: 231.71px 247.545px;" class="animable" id="elvgadephs3dj"></polygon></g><polygon points="185.47 220.89 164.35 208.7 169.63 205.65 190.75 217.84 185.47 220.89" style="fill: #1487E6; transform-origin: 177.55px 213.27px;" id="elbrlvvd7nv3" class="animable"></polygon><g id="elkvyyj4dwsj"><polygon points="185.47 220.89 164.35 208.7 169.63 205.65 190.75 217.84 185.47 220.89" style="fill: rgb(255, 255, 255); opacity: 0.4; transform-origin: 177.55px 213.27px;" class="animable" id="elfl8jf73gjjo"></polygon></g><polygon points="164.35 214.79 180.19 230.03 185.47 220.89 164.35 208.7 164.35 214.79" style="fill: #1487E6; transform-origin: 174.91px 219.365px;" id="eluthgdy4uikb" class="animable"></polygon><path d="M209.44,226.41a15.93,15.93,0,0,0-3.47-2.87l-17.16-9.91a2.89,2.89,0,0,0-3.48.58L183,216.86a14.17,14.17,0,0,0-2.24,3.88L177,231.67a2.86,2.86,0,0,0,1.23,3.3l17.16,9.91a4.38,4.38,0,0,0,4,0l1.32-.77a10,10,0,0,0,3.12-3.12l3-5.19a10,10,0,0,1,3.12-3.12l3.3-1.9Z" style="fill: #1487E6; transform-origin: 195.058px 229.326px;" id="elukbm39len1e" class="animable"></path><g id="ellnsqz0tvsp"><path d="M209.44,226.41a15.93,15.93,0,0,0-3.47-2.87l-17.16-9.91a2.89,2.89,0,0,0-3.48.58L183,216.86a14.17,14.17,0,0,0-2.24,3.88L177,231.67a2.86,2.86,0,0,0,1.23,3.3l17.16,9.91a4.38,4.38,0,0,0,4,0l1.32-.77a10,10,0,0,0,3.12-3.12l3-5.19a10,10,0,0,1,3.12-3.12l3.3-1.9Z" style="opacity: 0.1; transform-origin: 195.058px 229.326px;" class="animable" id="elkvj5d4cpczl"></path></g><path d="M204.16,229.05l2.29-2.64a1.81,1.81,0,0,0-.48-2.87l-17.16-9.91a2.89,2.89,0,0,0-3.48.58L183,216.86a1.82,1.82,0,0,0,.49,2.87l17.16,9.91A2.88,2.88,0,0,0,204.16,229.05Z" style="fill: #1487E6; transform-origin: 194.73px 221.64px;" id="elqvt69u27sp" class="animable"></path><path d="M201.92,232.94l-3.78,10.92a1.82,1.82,0,0,1-2.73,1L178.25,235a2.86,2.86,0,0,1-1.23-3.3l3.78-10.93a1.82,1.82,0,0,1,2.73-1l17.16,9.91A2.88,2.88,0,0,1,201.92,232.94Z" style="fill: rgb(69, 90, 100); transform-origin: 189.463px 232.315px;" id="el7s2u0heogcg" class="animable"></path><path d="M196.32,243.3l-17.16-9.91a1.09,1.09,0,0,1-.42-1.12l3.79-10.93a.25.25,0,0,0,0-.07l17.23,9.95a1.05,1.05,0,0,1,.41,1.12l-3.78,10.92a.16.16,0,0,1,0,.06Z" style="fill: rgb(235, 235, 235); transform-origin: 189.458px 232.295px;" id="elbikcjv4j2pj" class="animable"></path><path d="M183.33,223.09l-3.17,9.35,15.34,9,.65-1.74s-8.35-4.23-10.68-7.37S183.33,223.09,183.33,223.09Z" style="fill: rgb(250, 250, 250); transform-origin: 188.155px 232.265px;" id="elgd6ug83s31b" class="animable"></path><path d="M175.91,212.33a.91.91,0,0,1-.87-.65L172.36,203l-12.67-7.31a.91.91,0,0,1-.42-.52L156,184.54a.92.92,0,0,1,1.75-.54l3.19,10.29,12.67,7.31a.91.91,0,0,1,.42.52l2.78,9a.91.91,0,0,1-.6,1.14A.84.84,0,0,1,175.91,212.33Z" style="fill: rgb(224, 224, 224); transform-origin: 166.416px 197.882px;" id="elgy2atj822au" class="animable"></path><path d="M162.41,177.92,156,174.24a1.65,1.65,0,0,0-1.69-.16c-.31.19-1.57.88-1.9,1.1a1.7,1.7,0,0,0-.64,1.5v3.09a5.26,5.26,0,0,0,2.38,4.11l6.38,3.68a1.66,1.66,0,0,0,1.66.18l1.87-1.08a1.67,1.67,0,0,0,.7-1.54V182A5.25,5.25,0,0,0,162.41,177.92Z" style="fill: rgb(224, 224, 224); transform-origin: 158.266px 180.901px;" id="elkqtndllzy6" class="animable"></path><path d="M154.17,183.88l6.38,3.68c1.31.76,2.37.15,2.37-1.37v-3.08a5.22,5.22,0,0,0-2.37-4.11l-6.38-3.69c-1.31-.76-2.38-.14-2.38,1.37v3.09A5.26,5.26,0,0,0,154.17,183.88Z" style="fill: rgb(240, 240, 240); transform-origin: 157.355px 181.436px;" id="elh750xdypkxt" class="animable"></path><path d="M190.89,233.12a1.34,1.34,0,0,1-2,.82,2.12,2.12,0,0,1-.86-2.46,1.35,1.35,0,0,1,2-.82A2.12,2.12,0,0,1,190.89,233.12Z" style="fill: rgb(224, 224, 224); transform-origin: 189.46px 232.303px;" id="elatf05f5glz" class="animable"></path><path d="M240.33,253.42l.89-1.53-8.76-5.07h0a.44.44,0,0,0-.45,0,1.39,1.39,0,0,0-.63,1.09.45.45,0,0,0,.18.4h0Z" style="fill: rgb(240, 240, 240); transform-origin: 236.299px 250.089px;" id="el5zvvdyc0cvs" class="animable"></path><path d="M240.15,253c0,.4.28.56.63.36a1.41,1.41,0,0,0,.63-1.09c0-.4-.29-.56-.63-.36A1.39,1.39,0,0,0,240.15,253Z" style="fill: rgb(224, 224, 224); transform-origin: 240.78px 252.635px;" id="el3e7wcm1jlmy" class="animable"></path><path d="M250.13,261.81l3.27-5.64-13.81-8h0a1.61,1.61,0,0,0-1.66.14,5.12,5.12,0,0,0-2.3,4,1.64,1.64,0,0,0,.64,1.46h0Z" style="fill: rgb(69, 90, 100); transform-origin: 244.511px 254.906px;" id="elge80st42t7a" class="animable"></path><path d="M249.46,260.32c0,1.47,1,2.07,2.31,1.33a5.09,5.09,0,0,0,2.3-4c0-1.47-1-2.07-2.3-1.33A5.07,5.07,0,0,0,249.46,260.32Z" style="fill: rgb(38, 50, 56); transform-origin: 251.765px 258.985px;" id="elg889t5y5aju" class="animable"></path><path d="M249.46,241.61c-1.47,1.36-6.17,2.25-9.51,4.81s-4.46,9.19-2.83,12,7.9,5.81,10.42,5.16,2.59-1.76,2.59-1.76l-2-1.12s-1.4-6.26,2.58-6.06l2.67,1.54,3-4.05Z" style="fill: rgb(242, 143, 143); transform-origin: 246.38px 252.64px;" id="elpugvmp0u0cl" class="animable"></path><path d="M249.19,247a.93.93,0,0,1-.46-.12l-21.41-12.36L225,239.46a.91.91,0,1,1-1.65-.79l2.78-5.82a.88.88,0,0,1,.56-.47.87.87,0,0,1,.72.08l21.41,12.36,2.36-4.93a.91.91,0,0,1,1.65.79L250,246.5a.92.92,0,0,1-.55.47A.84.84,0,0,1,249.19,247Z" style="fill: rgb(224, 224, 224); transform-origin: 238.089px 239.668px;" id="elgejpyhltr7" class="animable"></path><path d="M257,232.54l-6.38-3.69a1.68,1.68,0,0,0-1.69-.16c-.32.19-1.58.88-1.91,1.1a1.72,1.72,0,0,0-.63,1.5v3.09a5.25,5.25,0,0,0,2.37,4.11l6.38,3.69a1.69,1.69,0,0,0,1.67.17c.33-.18,1.54-.89,1.86-1.08a1.62,1.62,0,0,0,.7-1.53v-3.09A5.22,5.22,0,0,0,257,232.54Z" style="fill: rgb(224, 224, 224); transform-origin: 252.882px 235.515px;" id="elemap15gsh1g" class="animable"></path><path d="M248.78,238.49l6.38,3.69c1.32.75,2.38.14,2.38-1.37v-3.09a5.24,5.24,0,0,0-2.38-4.11l-6.38-3.69c-1.31-.75-2.37-.14-2.37,1.37v3.09A5.25,5.25,0,0,0,248.78,238.49Z" style="fill: rgb(240, 240, 240); transform-origin: 251.975px 236.05px;" id="elgd15oogh4h" class="animable"></path><g id="freepik--Armq--inject-7" class="animable" style="transform-origin: 334.875px 191.3px;"><path d="M349.19,194.37c0-.46-.2-26.55,3.86-38.56s10-14.91,13.73-7.45,3.91,30.55,2.14,40.82S349.19,194.37,349.19,194.37Z" style="fill: rgb(240, 153, 122); transform-origin: 359.597px 169.949px;" id="elqxdwwxlazdo" class="animable"></path><g id="elm3le7k4xoc"><g style="opacity: 0.8; transform-origin: 359.11px 154.04px;" class="animable" id="elj33dn4goa8j"><path d="M364.87,149.9l-.5.39c-.33.24-.79.58-1.34,1l-.89.61c-.32.2-.63.45-1,.66L359.07,154l-1.05.75c-.34.25-.69.49-1,.74l-.95.7c-.29.23-.58.44-.86.64-.52.41-1,.72-1.32,1s-.54.35-.54.35l.26-.58a10.25,10.25,0,0,1,.84-1.46c.2-.28.42-.59.68-.9s.52-.63.84-.93.62-.63,1-.91.72-.57,1.09-.85.77-.53,1.17-.75.8-.42,1.19-.61a14.77,14.77,0,0,1,2.22-.83A10.31,10.31,0,0,1,364.87,149.9Z" style="fill: rgb(255, 189, 167); transform-origin: 359.11px 154.04px;" id="elj3dhon7rpy" class="animable"></path></g></g><g id="ellyd5sznstle"><g style="opacity: 0.8; transform-origin: 358.97px 161.86px;" class="animable" id="elhsatfipeoyt"><path d="M366.24,156.73s-.22.2-.63.5-.94.74-1.62,1.25c-1.33,1-3.13,2.28-4.93,3.53l-5,3.4-1.69,1.14c-.41.29-.67.44-.67.44a7.46,7.46,0,0,1,.33-.74,5.7,5.7,0,0,1,.45-.8,10.85,10.85,0,0,1,.67-1,19.91,19.91,0,0,1,4.6-4.33,22.13,22.13,0,0,1,5.64-2.82,13.37,13.37,0,0,1,2-.5C366,156.74,366.24,156.73,366.24,156.73Z" style="fill: rgb(255, 189, 167); transform-origin: 358.97px 161.86px;" id="elfx4ems55i9r" class="animable"></path></g></g><g id="ellghnnvkwt1"><g style="opacity: 0.8; transform-origin: 358.61px 170.53px;" class="animable" id="el20z19dkmcsx"><path d="M365.88,165.4s-.22.21-.61.54-.92.79-1.58,1.33c-1.3,1.06-3.07,2.36-4.86,3.6l-1.35.91c-.43.31-.89.58-1.31.87l-2.37,1.53-1.75,1.07c-.43.27-.71.41-.71.41a8.24,8.24,0,0,1,.3-.77,6.49,6.49,0,0,1,.42-.83,10.45,10.45,0,0,1,.64-1,18.43,18.43,0,0,1,4.57-4.42,20.11,20.11,0,0,1,5.7-2.75,12.31,12.31,0,0,1,2.09-.42A7.06,7.06,0,0,1,365.88,165.4Z" style="fill: rgb(255, 189, 167); transform-origin: 358.61px 170.53px;" id="elb54pvht9o8o" class="animable"></path></g></g><g id="elawt0w9x2wlf"><g style="opacity: 0.8; transform-origin: 358.61px 179.275px;" class="animable" id="elrhx6jbxrz3"><path d="M365.88,174.15s-.22.22-.61.55-.92.79-1.58,1.32c-1.3,1.06-3.07,2.36-4.86,3.6l-1.35.91c-.43.32-.89.59-1.31.88l-2.37,1.52L352.05,184c-.43.26-.71.4-.71.4s.09-.28.3-.76a7.27,7.27,0,0,1,.42-.84,10.38,10.38,0,0,1,.64-1,18.26,18.26,0,0,1,4.57-4.42,20.11,20.11,0,0,1,5.7-2.75,13.62,13.62,0,0,1,2.09-.43C365.58,174.15,365.88,174.15,365.88,174.15Z" style="fill: rgb(255, 189, 167); transform-origin: 358.61px 179.275px;" id="el70tmzyv1oyd" class="animable"></path></g></g><path d="M347.39,227.35l1.21-1L353,248.57a10.14,10.14,0,0,1-5.1-.21l-9.5-3.25a15.17,15.17,0,0,1-7.78-7.07l-9.11-19.39Z" style="fill: rgb(177, 102, 104); transform-origin: 337.255px 233.725px;" id="elibx4804e2wf" class="animable"></path><g id="elppzqcqfh0o"><path d="M347.39,227.35l1.21-1L353,248.57a10.14,10.14,0,0,1-5.1-.21l-9.5-3.25a15.17,15.17,0,0,1-7.78-7.07l-9.11-19.39Z" style="fill: rgb(154, 74, 77); opacity: 0.5; transform-origin: 337.255px 233.725px;" class="animable" id="elgzm9rfeue39"></path></g><path d="M348.53,227.54l4.14,21.09a10.18,10.18,0,0,0,4.64-2.12l27.79-24.27a12,12,0,0,0,3.63-9.44l-2.23-18.24h0a3.52,3.52,0,0,1-1.48,3.07l-31.85,27.79A10.18,10.18,0,0,1,348.53,227.54Z" style="fill: rgb(177, 102, 104); transform-origin: 368.644px 221.595px;" id="eltl18kkgpcib" class="animable"></path><path d="M385.9,191.48l-2.24.44-19.41-6.64a10.93,10.93,0,0,0-9.73,1.92l-31.41,27.56-2.35.46.59,3h0a3.48,3.48,0,0,0,2.57,2.42l19.51,6.68a11,11,0,0,0,9.74-1.91L385,197.63a3.52,3.52,0,0,0,1.48-3.07.25.25,0,0,1,0-.07h0Z" style="fill: rgb(154, 74, 77); transform-origin: 353.623px 206.299px;" id="elkl2rn99fm9h" class="animable"></path><path d="M338.83,197.49l-3.05,2.67-13.55,11.9c-2.38,2.09-1.88,4.6,1.11,5.62l19.51,6.69a10.24,10.24,0,0,0,5.1.21,10.39,10.39,0,0,0,4.64-2.12l13.61-11.88,3.06-2.68Z" style="fill: rgb(177, 102, 104); transform-origin: 344.993px 211.148px;" id="elseynefymxne" class="animable"></path><path d="M385.92,191.6a3.49,3.49,0,0,1-1.48,3.06L369.26,207.9l-30.43-10.41,15.11-13.26a10.88,10.88,0,0,1,9.72-1.91L383.34,189A3.41,3.41,0,0,1,385.92,191.6Z" style="fill: rgb(154, 74, 77); transform-origin: 362.378px 194.9px;" id="elrit30hrj6g" class="animable"></path><path d="M381.94,196.84c.18-.15,1.73-6.88,3-11.45,2.42-8.44-3.08-11.32-2.51-13.78.9-3.83,2.51-10.25,2.51-10.25l-6.27-1.86s-1.88,7.55-2.69,10.38c-.66,2.35-7,.88-9.46,10s-5.13,16.47-5.13,16.47l7.83,11.51Z" style="fill: #1487E6; transform-origin: 373.474px 183.68px;" id="el7z1mmc6m8ev" class="animable"></path><g id="elfwrtjnvcjg7"><path d="M381.94,196.84c.18-.15,1.73-6.88,3-11.45,2.42-8.44-3.08-11.32-2.51-13.78.9-3.83,2.51-10.25,2.51-10.25l-6.27-1.86s-1.88,7.55-2.69,10.38c-.66,2.35-7,.88-9.46,10s-5.13,16.47-5.13,16.47l7.83,11.51Z" style="opacity: 0.45; transform-origin: 373.474px 183.68px;" class="animable" id="el9w94xzerxh"></path></g><path d="M385,185.39a16,16,0,0,0,.39-1.72c-.93-1.9-4.74-4.18-10.18-5.24l-3.59,12.46a20.77,20.77,0,0,1,10.71,4.73C383.18,192.38,384.23,188,385,185.39Z" style="fill: rgb(235, 235, 235); transform-origin: 378.505px 187.025px;" id="eltoppag6zpbc" class="animable"></path><path d="M378.24,161.36c.26-1,6.58.71,6.32,1.68,0,0,1-4.29,1-4.29.51-1.77-5.85-3.6-6.36-1.83Z" style="fill: rgb(55, 71, 79); transform-origin: 381.915px 159.62px;" id="elck17ch5jzjr" class="animable"></path><path d="M379.77,187.48a4.36,4.36,0,0,1-.69,3.29l-9.33,19.63L339.33,200l9.25-19.64a5.23,5.23,0,0,1,6.85-2.93L379.28,185S379.55,186.33,379.77,187.48Z" style="fill: rgb(154, 74, 77); transform-origin: 359.589px 193.72px;" id="elvizuje4sikc" class="animable"></path><path d="M379.28,185a4.36,4.36,0,0,1-.69,3.29l-9.33,19.63-30.43-10.41,9.26-19.64a5.23,5.23,0,0,1,6.85-2.93l21.77,7.5A3.41,3.41,0,0,1,379.28,185Z" style="fill: rgb(177, 102, 104); transform-origin: 359.094px 191.235px;" id="elxq48dlopmyq" class="animable"></path><polygon points="369.28 207.91 366.21 210.58 366.2 210.58 335.78 200.16 338.83 197.49 369.26 207.9 369.28 207.91" style="fill: rgb(154, 74, 77); transform-origin: 352.53px 204.035px;" id="elkkju09psmqa" class="animable"></polygon><polygon points="327.96 179.28 335.78 200.16 338.83 197.49 331.33 176.86 327.96 179.28" style="fill: rgb(154, 74, 77); transform-origin: 333.395px 188.51px;" id="elc56sood4d6t" class="animable"></polygon><path d="M345.47,178.35l-14.13-1.49s-19.16,13.91-24,16.52c-1.2.36-2.74-.71-3.92-1.15-3.28-1.22-5.51-1-8.73-1.35-2.51-.26-3.78-1.17-4.1-.63A2.89,2.89,0,0,0,291.8,194a20.54,20.54,0,0,0,4.37,1.94,41.6,41.6,0,0,1-7.74.38c-6.57-.18-10.68,3.07-4.11,8.27,4.09,3.24,9.15,4.72,19.15,2.33,4.64-1.11,27.95-13.56,27.95-13.56h0c5-2.48,9.74-5.31,12.31-8.22S346.51,179.64,345.47,178.35Z" style="fill: rgb(255, 168, 167); transform-origin: 313.524px 192.479px;" id="el8l0op2pp012" class="animable"></path><path d="M325.77,133.8c4.86.11,8.44,1.56,10.67,6.57s9.51,35.57,10.33,39.71-7.14,8.39-7.14,8.39l-8.29-11.61L325,155.58S319.22,138.94,325.77,133.8Z" style="fill: rgb(255, 168, 167); transform-origin: 334.737px 161.135px;" id="elvqbpoeo7uwl" class="animable"></path><path d="M369.26,207.9S358.31,189.14,354,182.28s-13.21-15.63-23.4-9.09a5.75,5.75,0,0,0-2.65,6.09l3.38-2.42c4.66-1.86,12.09-3,19.32,8.46,7.78,12.27,15.54,25.26,15.54,25.26Z" style="fill: rgb(154, 74, 77); transform-origin: 348.545px 190.733px;" id="elqbj4wxf0bse" class="animable"></path></g></g><defs>     <filter id="active" height="200%">         <feMorphology in="SourceAlpha" result="DILATED" operator="dilate" radius="2"></feMorphology>                <feFlood flood-color="#32DFEC" flood-opacity="1" result="PINK"></feFlood>        <feComposite in="PINK" in2="DILATED" operator="in" result="OUTLINE"></feComposite>        <feMerge>            <feMergeNode in="OUTLINE"></feMergeNode>            <feMergeNode in="SourceGraphic"></feMergeNode>        </feMerge>    </filter>    <filter id="hover" height="200%">        <feMorphology in="SourceAlpha" result="DILATED" operator="dilate" radius="2"></feMorphology>                <feFlood flood-color="#ff0000" flood-opacity="0.5" result="PINK"></feFlood>        <feComposite in="PINK" in2="DILATED" operator="in" result="OUTLINE"></feComposite>        <feMerge>            <feMergeNode in="OUTLINE"></feMergeNode>            <feMergeNode in="SourceGraphic"></feMergeNode>        </feMerge>            <feColorMatrix type="matrix" values="0   0   0   0   0                0   1   0   0   0                0   0   0   0   0                0   0   0   1   0 "></feColorMatrix>    </filter></defs></svg>