<svg class="animated" id="freepik_stories-train" xmlns="http://www.w3.org/2000/svg" viewBox="0 0 500 500" version="1.1" xmlns:xlink="http://www.w3.org/1999/xlink" xmlns:svgjs="http://svgjs.com/svgjs"><style>svg#freepik_stories-train:not(.animated) .animable {opacity: 0;}svg#freepik_stories-train.animated #freepik--City--inject-4 {animation: 1.5s Infinite  linear floating;animation-delay: 0s;}svg#freepik_stories-train.animated #freepik--Bridge--inject-4 {animation: 6s Infinite  linear floating;animation-delay: 0s;}svg#freepik_stories-train.animated #freepik--Sun--inject-4 {animation: 1s 1 forwards cubic-bezier(.36,-0.01,.5,1.38) zoomOut;animation-delay: 0s;}svg#freepik_stories-train.animated #freepik--birds--inject-4 {animation: 1s 1 forwards cubic-bezier(.36,-0.01,.5,1.38) slideLeft;animation-delay: 0s;}svg#freepik_stories-train.animated #freepik--Birds--inject-4 {animation: 1s 1 forwards cubic-bezier(.36,-0.01,.5,1.38) slideLeft,1.5s Infinite  linear wind;animation-delay: 0s,1s;}svg#freepik_stories-train.animated #freepik--Clouds--inject-4 {animation: 1.5s Infinite  linear wind;animation-delay: 0s;}svg#freepik_stories-train.animated #freepik--train--inject-4 {animation: 1s 1 forwards ease-in slideLeft;animation-delay: 0s;}svg#freepik_stories-train.animated #freepik--Train--inject-4 {animation: 1s 1 forwards ease-in slideLeft,1.5s Infinite  linear floating;animation-delay: 0s,1s;}            @keyframes floating {                0% {                    opacity: 1;                    transform: translateY(0px);                }                50% {                    transform: translateY(-10px);                }                100% {                    opacity: 1;                    transform: translateY(0px);                }            }                    @keyframes zoomOut {                0% {                    opacity: 0;                    transform: scale(1.5);                }                100% {                    opacity: 1;                    transform: scale(1);                }            }                    @keyframes slideLeft {                0% {                    opacity: 0;                    transform: translateX(-30px);                }                100% {                    opacity: 1;                    transform: translateX(0);                }            }                    @keyframes wind {                0% {                    transform: rotate( 0deg );                }                25% {                    transform: rotate( 1deg );                }                75% {                    transform: rotate( -1deg );                }            }        </style><g id="freepik--City--inject-4" class="animable" style="transform-origin: 337.335px 230.67px;"><polygon id="freepik--city--inject-4" points="469.35 191.29 461.22 195.98 461.22 229.23 453.1 224.54 453.1 158.87 440.91 151.84 428.73 158.87 428.73 177.63 416.54 170.6 408.42 175.29 408.42 130.5 392.17 121.12 384.05 125.81 384.05 142.45 371.86 149.49 371.86 163.56 359.67 156.53 347.49 163.56 347.49 177.63 335.3 170.6 335.3 87.34 323.11 80.31 310.93 87.34 310.93 121.85 302.8 126.54 302.8 108.31 290.62 101.28 278.43 108.31 278.43 138.3 266.25 131.27 258.12 135.96 258.12 150.03 245.94 142.99 245.94 86.71 233.75 79.67 221.56 86.71 221.56 123.69 205.31 114.31 193.13 121.35 193.13 215.16 481.54 381.67 481.54 198.33 469.35 191.29" style="fill: rgb(240, 240, 240); transform-origin: 337.335px 230.67px;" class="animable"></polygon></g><g id="freepik--Bridge--inject-4" class="animable" style="transform-origin: 250px 302.284px;"><g id="freepik--train-tracks--inject-4" class="animable" style="transform-origin: 250px 302.284px;"><g id="elh9fop91iyj"><rect x="267.78" y="7.6" width="1" height="501.88" style="fill: rgb(224, 224, 224); transform-origin: 268.28px 258.54px; transform: rotate(-60deg);" class="animable"></rect></g><polygon points="436.86 414.5 473.41 393.39 469.34 391.05 432.83 412.18 436.86 414.5" style="fill: rgb(224, 224, 224); transform-origin: 453.12px 402.775px;" id="elyrozro50jib" class="animable"></polygon><polygon points="424.67 407.46 461.22 386.36 457.16 384.01 420.64 405.14 424.67 407.46" style="fill: rgb(224, 224, 224); transform-origin: 440.93px 395.735px;" id="elmqgizzev1i" class="animable"></polygon><polygon points="412.48 400.43 449.03 379.32 444.97 376.98 408.46 398.11 412.48 400.43" style="fill: rgb(224, 224, 224); transform-origin: 428.745px 388.705px;" id="el9ieaiaciiuh" class="animable"></polygon><polygon points="400.3 393.39 436.85 372.29 432.78 369.94 396.27 391.07 400.3 393.39" style="fill: rgb(224, 224, 224); transform-origin: 416.56px 381.665px;" id="el63032upmzqg" class="animable"></polygon><polygon points="388.11 386.36 424.66 365.25 420.6 362.9 384.08 384.03 388.11 386.36" style="fill: rgb(224, 224, 224); transform-origin: 404.37px 374.63px;" id="elb8yss58fk4o" class="animable"></polygon><polygon points="375.92 379.32 412.47 358.21 408.41 355.87 371.9 377 375.92 379.32" style="fill: rgb(224, 224, 224); transform-origin: 392.185px 367.595px;" id="el8y6m0ky4zea" class="animable"></polygon><polygon points="363.74 372.29 400.29 351.18 396.22 348.83 359.71 369.96 363.74 372.29" style="fill: rgb(224, 224, 224); transform-origin: 380px 360.56px;" id="elhe6g42jwbai" class="animable"></polygon><polygon points="351.55 365.25 388.1 344.14 384.04 341.8 347.52 362.93 351.55 365.25" style="fill: rgb(224, 224, 224); transform-origin: 367.81px 353.525px;" id="el9cnu43e57bk" class="animable"></polygon><polygon points="339.36 358.21 375.91 337.11 371.85 334.76 335.34 355.89 339.36 358.21" style="fill: rgb(224, 224, 224); transform-origin: 355.625px 346.485px;" id="elsxrr6e5sca" class="animable"></polygon><polygon points="327.18 351.18 363.73 330.07 359.67 327.73 323.15 348.86 327.18 351.18" style="fill: rgb(224, 224, 224); transform-origin: 343.44px 339.455px;" id="elmascvdimblb" class="animable"></polygon><polygon points="314.99 344.14 351.54 323.04 347.48 320.69 310.96 341.82 314.99 344.14" style="fill: rgb(224, 224, 224); transform-origin: 331.25px 332.415px;" id="elaqliq3ulho" class="animable"></polygon><polygon points="302.8 337.11 339.35 316 335.29 313.65 298.78 334.78 302.8 337.11" style="fill: rgb(224, 224, 224); transform-origin: 319.065px 325.38px;" id="el9biu5n80dfk" class="animable"></polygon><polygon points="290.62 330.07 327.17 308.96 323.11 306.62 286.59 327.75 290.62 330.07" style="fill: rgb(224, 224, 224); transform-origin: 306.88px 318.345px;" id="el1ogiz9adplw" class="animable"></polygon><polygon points="278.43 323.04 314.98 301.93 310.92 299.58 274.4 320.71 278.43 323.04" style="fill: rgb(224, 224, 224); transform-origin: 294.69px 311.31px;" id="elaiwd1sv7tob" class="animable"></polygon><polygon points="266.24 316 302.79 294.89 298.73 292.55 262.22 313.68 266.24 316" style="fill: rgb(224, 224, 224); transform-origin: 282.505px 304.275px;" id="elllt9pxwt32" class="animable"></polygon><polygon points="254.06 308.96 290.61 287.86 286.55 285.51 250.03 306.64 254.06 308.96" style="fill: rgb(224, 224, 224); transform-origin: 270.32px 297.235px;" id="eloakqhq3t4mq" class="animable"></polygon><polygon points="241.87 301.93 278.42 280.82 274.36 278.48 237.84 299.61 241.87 301.93" style="fill: rgb(224, 224, 224); transform-origin: 258.13px 290.205px;" id="eld6z6rpp6t2n" class="animable"></polygon><polygon points="229.68 294.89 266.23 273.79 262.17 271.44 225.66 292.57 229.68 294.89" style="fill: rgb(224, 224, 224); transform-origin: 245.945px 283.165px;" id="ellq6a7l6ggca" class="animable"></polygon><polygon points="217.5 287.86 254.05 266.75 249.99 264.4 213.47 285.53 217.5 287.86" style="fill: rgb(224, 224, 224); transform-origin: 233.76px 276.13px;" id="el9bp9lx6ipk7" class="animable"></polygon><polygon points="205.31 280.82 241.86 259.71 237.8 257.37 201.28 278.5 205.31 280.82" style="fill: rgb(224, 224, 224); transform-origin: 221.57px 269.095px;" id="elxdnt575iorj" class="animable"></polygon><polygon points="193.12 273.79 229.67 252.68 225.61 250.33 189.1 271.46 193.12 273.79" style="fill: rgb(224, 224, 224); transform-origin: 209.385px 262.06px;" id="elvnaj73raoht" class="animable"></polygon><polygon points="180.94 266.75 217.49 245.64 213.43 243.3 176.91 264.43 180.94 266.75" style="fill: rgb(224, 224, 224); transform-origin: 197.2px 255.025px;" id="el3bpb710szvq" class="animable"></polygon><polygon points="168.75 259.71 205.3 238.61 201.24 236.26 164.72 257.39 168.75 259.71" style="fill: rgb(224, 224, 224); transform-origin: 185.01px 247.985px;" id="elb4m34sjdgve" class="animable"></polygon><polygon points="156.56 252.68 193.11 231.57 189.05 229.23 152.54 250.36 156.56 252.68" style="fill: rgb(224, 224, 224); transform-origin: 172.825px 240.955px;" id="elm7id7yer8q" class="animable"></polygon><polygon points="144.38 245.64 180.93 224.54 176.87 222.19 140.35 243.32 144.38 245.64" style="fill: rgb(224, 224, 224); transform-origin: 160.64px 233.915px;" id="elyodh7nncvgb" class="animable"></polygon><polygon points="132.19 238.61 168.74 217.5 164.68 215.16 128.16 236.28 132.19 238.61" style="fill: rgb(224, 224, 224); transform-origin: 148.45px 226.885px;" id="eldigpor2o0z9" class="animable"></polygon><polygon points="120 231.57 156.55 210.47 152.49 208.12 115.98 229.25 120 231.57" style="fill: rgb(224, 224, 224); transform-origin: 136.265px 219.845px;" id="elmt0vk09htn" class="animable"></polygon><polygon points="107.82 224.54 144.37 203.43 140.31 201.08 103.79 222.21 107.82 224.54" style="fill: rgb(224, 224, 224); transform-origin: 124.08px 212.81px;" id="el3uh8l6fe1i8" class="animable"></polygon><polygon points="95.63 217.5 132.18 196.39 128.12 194.05 91.6 215.18 95.63 217.5" style="fill: rgb(224, 224, 224); transform-origin: 111.89px 205.775px;" id="ela6vdgddbgy6" class="animable"></polygon><polygon points="83.44 210.47 119.99 189.36 115.93 187.01 79.42 208.14 83.44 210.47" style="fill: rgb(224, 224, 224); transform-origin: 99.705px 198.74px;" id="elpv1ewl8q3vk" class="animable"></polygon><polygon points="71.26 203.43 107.81 182.32 103.75 179.98 67.23 201.11 71.26 203.43" style="fill: rgb(224, 224, 224); transform-origin: 87.52px 191.705px;" id="elc8ucbo4rkrs" class="animable"></polygon><polygon points="59.07 196.39 95.62 175.29 91.56 172.94 55.04 194.07 59.07 196.39" style="fill: rgb(224, 224, 224); transform-origin: 75.33px 184.665px;" id="elazp0c1v5qql" class="animable"></polygon><polygon points="46.88 189.36 83.43 168.25 79.37 165.91 42.86 187.03 46.88 189.36" style="fill: rgb(224, 224, 224); transform-origin: 63.145px 177.635px;" id="elr9xt3ikkm4" class="animable"></polygon><polygon points="34.7 182.32 71.25 161.22 67.19 158.87 30.67 180 34.7 182.32" style="fill: rgb(224, 224, 224); transform-origin: 50.96px 170.595px;" id="elouo5td846wq" class="animable"></polygon><polygon points="22.51 175.29 59.06 154.18 55 151.83 18.48 172.96 22.51 175.29" style="fill: rgb(224, 224, 224); transform-origin: 38.77px 163.56px;" id="el7e9p9nnfnjl" class="animable"></polygon><polygon points="440.92 416.85 14.4 170.6 16.29 169.49 442.82 415.75 440.92 416.85" style="fill: rgb(55, 71, 79); transform-origin: 228.61px 293.17px;" id="eln327esid08" class="animable"></polygon><polygon points="475.57 396.84 49.07 150.6 50.96 149.49 477.47 395.74 475.57 396.84" style="fill: rgb(55, 71, 79); transform-origin: 263.27px 273.165px;" id="elboqx66sgg44" class="animable"></polygon><g id="eldstsxzayrzl"><rect x="231.22" y="61.56" width="1" height="501.88" style="fill: rgb(224, 224, 224); transform-origin: 231.72px 312.5px; transform: rotate(-60deg);" class="animable"></rect></g><path d="M107.83,263.74V471.91H34.72V273.51c0-33.14,21.83-47.4,48.75-31.86C92.34,246.77,100.66,254.5,107.83,263.74Z" style="fill: rgb(224, 224, 224); transform-origin: 71.275px 353.637px;" id="elz6u2q7eiqbc" class="animable"></path><path d="M241.87,471.92V341.14c-7.17-9.24-15.49-17-24.36-22.09-26.92-15.54-48.75-1.28-48.75,31.86v121Z" style="fill: rgb(224, 224, 224); transform-origin: 205.315px 392.342px;" id="elbscjfvtx3u" class="animable"></path><path d="M375.92,471.92V418.56c-7.17-9.24-15.49-17-24.36-22.09-26.92-15.54-48.75-1.28-48.75,31.86v43.59Z" style="fill: rgb(224, 224, 224); transform-origin: 339.365px 431.052px;" id="elop9l2jk1f6" class="animable"></path><path d="M169.21,471.92v-121c0-16.35,5.54-28.92,15.18-34.49,8.92-5.15,20.61-4.08,32.9,3,26.75,15.44,48.52,54.81,48.52,87.75v64.73h.89V407.19c0-33.22-22-72.94-49-88.53-12.59-7.26-24.58-8.33-33.79-3-10.08,5.81-15.63,18.33-15.63,35.26v121Z" style="fill: rgb(224, 224, 224); transform-origin: 217.49px 392.118px;" id="el8bfjn6bb1zj" class="animable"></path><path d="M303.25,471.92V428.29c0-16.34,5.54-28.91,15.18-34.48,8.93-5.16,20.61-4.08,32.9,3,23.39,13.51,43,45.3,47.52,75.1h.9c-4.56-30.09-24.34-62.22-48-75.87-12.58-7.26-24.59-8.33-33.79-3-10.08,5.82-15.63,18.34-15.63,35.26v43.63Z" style="fill: rgb(224, 224, 224); transform-origin: 351.04px 430.813px;" id="elhbjdtx340gm" class="animable"></path><path d="M132.66,329.79V471.91h-.89V329.79c0-21.9-9.62-46.64-23.94-65.3-7.21-9.41-15.61-17.28-24.58-22.45-12.3-7.1-24-8.17-32.9-3-9.65,5.57-15.18,18.14-15.18,34.49v198.4h-.89V273.51c0-16.92,5.55-29.44,15.62-35.26,9.21-5.32,21.21-4.25,33.79,3C110.69,256.86,132.66,296.57,132.66,329.79Z" style="fill: rgb(224, 224, 224); transform-origin: 83.47px 353.421px;" id="el45j21lido3c" class="animable"></path><rect x="265.81" y="407.19" width="0.89" height="64.72" style="fill: rgb(224, 224, 224); transform-origin: 266.255px 439.55px;" id="eleef4e1bw1fd" class="animable"></rect><rect x="168.33" y="350.91" width="0.89" height="121.01" style="fill: rgb(224, 224, 224); transform-origin: 168.775px 411.415px;" id="elkfsfiajrntl" class="animable"></rect></g></g><g id="freepik--Sun--inject-4" class="animable animator-active" style="transform-origin: 160.63px 55.74px;"><circle id="freepik--sun--inject-4" cx="160.63" cy="55.74" r="14.59" style="fill: rgb(255, 189, 167); transform-origin: 160.63px 55.74px;" class="animable"></circle></g><g id="freepik--Birds--inject-4" class="animable" style="transform-origin: 59.78px 65.3192px;"><g id="freepik--birds--inject-4" class="animable" style="transform-origin: 59.78px 65.3192px;"><path d="M83.28,50c-5.33-.89-10,4.29-12.41,10.56-4-3.33-12.78-6.37-16.19-1.64,5.29-3,11.7-.66,15.89,3.17.29.23,1.06.43,1.25-.18C74,55,78.63,50.75,83.28,50Z" style="fill: rgb(69, 90, 100); transform-origin: 68.98px 56.1076px;" id="elyo8u73kh8f" class="animable"></path><path d="M56.59,71.34c-4.07-1-7.88,4-8.94,8-2.89-2.82-7.53-5.9-11.37-3.34,4.72-1.15,8,1.29,11,4.51.21.2.86.42,1-.06C49.41,75.78,53,71.63,56.59,71.34Z" style="fill: rgb(69, 90, 100); transform-origin: 46.435px 75.9745px;" id="elj0k5g5szwif" class="animable"></path></g></g><g id="freepik--Clouds--inject-4" class="animable" style="transform-origin: 379.983px 57.2083px;"><path id="freepik--Cloud--inject-4" d="M325,42.17c0-3.68,4-6.24,8.61-6.67,5.38-.51,9.2,1.89,9.33,6.13,3.52-1.44,7.24-.51,7,3.36.91-1.06,4.34-1,5.57-.73a4.82,4.82,0,0,1,3.07,2.61,3.64,3.64,0,0,1,.32,2c2.05-.67,6.72-1.08,7.89.8,2.08,3.36-6.23,3.46-7.9,2.45-.35,2.61-9.28,3-11.44.63-1.69,1.7-4.11,2.07-6.73,2.23-4.42.26-7.12-1.24-10.57-3-3.74,3.17-10.22,3.23-13.6-.4-.86.81-3.23,1.06-5.13.61-1.25-.3-1.54-.83-1.54-.83a11,11,0,0,1-2.29.69c-2.45.51-7,0-5.09-2.24.65-.75,3-1.22,4-1,1.07-2.1,5.36-4.09,7.82-2.32.09-2.54,2.42-4.53,5.69-5C321.15,41.28,323.79,41.13,325,42.17Z" style="fill: rgb(245, 245, 245); transform-origin: 334.583px 45.2208px;" class="animable"></path><path id="freepik--cloud--inject-4" d="M373.88,70.85a10,10,0,0,1,3.32-.55c1.08-.06,1.42-.27,1.63-.49a7.92,7.92,0,0,1,9.56-2.63,6.07,6.07,0,0,1,7.24-3.9c-.05-3.35,4.29-6.85,8.13-7.59s6.89-.32,8.94,2.14c2.33-4.34,11.15-5.4,15.86-3,2.71,1.39,5,2.8,6.1,5.33a10.55,10.55,0,0,1,.93,5c1.89-1.6,5.61-2,8.07-1,2.65,1.08,2.81,3.1,2.9,5.15a9.27,9.27,0,0,1,4.87,0c1.67.53,2.62,1.87,2.37,2.94,1.33,0,4.48,1.09,4.09,2.49-.44,1.57-4.06,1.33-5.42,1.26a25.84,25.84,0,0,1-3.77-.67,5.93,5.93,0,0,1-2,.33c-2.31-.06-3.26-1.07-3.62-1.93-1.17,2.35-5.21,4.07-8.06,4.74-5.36,1.26-12.89.28-16.1-3.77a5.85,5.85,0,0,1-1.62,1.91,9.24,9.24,0,0,1-5,1.9c-2.19.16-8.08.33-9.66-3.19-1.22,2.29-6.48,3.25-10.44,2.6a16.31,16.31,0,0,1-4.43-1.43A26.15,26.15,0,0,1,385.27,75a2.15,2.15,0,0,0-2.18-.19,13,13,0,0,1-8.69-.18C372.2,73.63,371.77,71.75,373.88,70.85Z" style="fill: rgb(245, 245, 245); transform-origin: 415.214px 66.2791px;" class="animable"></path></g><g id="freepik--Train--inject-4" class="animable" style="transform-origin: 254.065px 244.842px;"><g id="freepik--train--inject-4" class="animable" style="transform-origin: 254.065px 244.842px;"><path d="M47.92,193.31c.27-25.34,3.37-61.48,3.94-68l49.22-28.41c.92,9.72,3.66,40.47,3.75,63.57Z" style="fill: rgb(69, 90, 100); transform-origin: 76.375px 145.105px;" id="ela2icgydqnf" class="animable"></path><path d="M204.32,152.22,102.77,93.59,50,124.08s-4.06,44.56-4.06,72.7l101.55,58.63,60.93-35.18C208.38,192.09,204.32,152.22,204.32,152.22Z" style="fill: rgb(224, 224, 224); transform-origin: 127.18px 174.5px;" id="elrhl0i7b46i" class="animable"></path><path d="M147.71,241.5c-.16,4.88-.26,9.59-.26,13.91L45.9,196.78c0-4.32.1-9,.26-13.92Z" style="fill: rgb(64, 123, 255); transform-origin: 96.805px 219.135px;" id="eltcmfrfpqyrj" class="animable"></path><g id="elzt4yr6h5jc"><path d="M147.71,241.5c-.16,4.88-.26,9.59-.26,13.91L45.9,196.78c0-4.32.1-9,.26-13.92Z" style="opacity: 0.2; transform-origin: 96.805px 219.135px;" class="animable"></path></g><path d="M151.51,182.71l52.81-30.49s4.06,39.87,4.06,68l-60.93,35.18C147.45,227.27,151.51,182.71,151.51,182.71Z" style="fill: rgb(224, 224, 224); transform-origin: 177.915px 203.81px;" id="elpezveaor3b" class="animable"></path><g id="elqeybf9vrnj"><path d="M151.51,182.71l52.81-30.49s4.06,39.87,4.06,68l-60.93,35.18C147.45,227.27,151.51,182.71,151.51,182.71Z" style="opacity: 0.2; transform-origin: 177.915px 203.81px;" class="animable"></path></g><polygon points="151.51 182.71 151.51 180.36 204.32 149.88 204.32 152.22 151.51 182.71" style="fill: rgb(64, 123, 255); transform-origin: 177.915px 166.295px;" id="ely7bxvb14l6" class="animable"></polygon><polygon points="49.96 124.08 49.96 121.73 102.77 91.25 102.77 93.59 49.96 124.08" style="fill: rgb(64, 123, 255); transform-origin: 76.365px 107.665px;" id="eljad04a24c1" class="animable"></polygon><polygon points="151.51 180.36 49.96 121.73 102.77 91.25 204.32 149.88 151.51 180.36" style="fill: rgb(64, 123, 255); transform-origin: 127.14px 135.805px;" id="elfgnz42mobqf" class="animable"></polygon><g id="eljrwavqza0dg"><polygon points="151.51 180.36 49.96 121.73 102.77 91.25 204.32 149.88 151.51 180.36" style="fill: rgb(255, 255, 255); opacity: 0.3; transform-origin: 127.14px 135.805px;" class="animable"></polygon></g><polygon points="151.51 180.36 151.51 182.71 49.96 124.08 49.96 121.73 151.51 180.36" style="fill: rgb(64, 123, 255); transform-origin: 100.735px 152.22px;" id="elofku5ybsp1" class="animable"></polygon><g id="eloyjp57jljvo"><polygon points="151.51 180.36 151.51 182.71 49.96 124.08 49.96 121.73 151.51 180.36" style="fill: rgb(255, 255, 255); opacity: 0.15; transform-origin: 100.735px 152.22px;" class="animable"></polygon></g><path d="M146,184.23c-.77,9-2.46,30.1-3.25,49.72L51.08,181c.82-19.84,2.53-41.12,3.26-49.72Z" style="fill: rgb(55, 71, 79); transform-origin: 98.54px 182.615px;" id="elp0jo37xfzdo" class="animable"></path><path d="M55.18,178.77c.68-15.23,1.84-31,2.63-40.85l84,48.5c-.7,8.42-2,24.46-2.75,40.77Z" style="fill: rgb(69, 90, 100); transform-origin: 98.495px 182.555px;" id="el9ut0oo2ixiw" class="animable"></path><path d="M76.55,195.72l5.1,2.94c.81-19.76,2.51-41,3.25-49.71L79.81,146C79.07,154.71,77.36,175.94,76.55,195.72Z" style="fill: rgb(55, 71, 79); transform-origin: 80.725px 172.33px;" id="ell3pt6ciyh3" class="animable"></path><path d="M107.65,213.68l5.09,2.94c.81-19.77,2.52-41,3.26-49.72L110.91,164C110.17,172.67,108.46,193.9,107.65,213.68Z" style="fill: rgb(55, 71, 79); transform-origin: 111.825px 190.31px;" id="elcgqs1qpofgm" class="animable"></path><polygon points="82.46 161.6 82.46 163.6 143.39 198.78 143.39 196.78 82.46 161.6" style="fill: rgb(55, 71, 79); transform-origin: 112.925px 180.19px;" id="el2ycyfvh025i" class="animable"></polygon><path d="M57.38,137.09l-.07.79c-.67,8.43-1.92,25-2.63,40.87-.69,12.9-.67,16-.65,19.3,0,.58,0,1.16,0,1.81v.28l22.45,13v-.85c0-.1.14-9.87.75-21,.7-14.91,1.85-30.41,2.69-40.79l0-.31Zm-2.35,61c0-3.28,0-6.37.65-19.25h0c.69-15.41,1.88-31.4,2.57-40l9.38,5.42C67,152.69,65.72,169,65,184.72c-.69,12.91-.67,16-.65,19.3,0,.31,0,.63,0,.95L55,199.57C55,199,55,198.54,55,198.05Zm21.22-6.86c-.5,9.29-.68,17.61-.73,20.23l-10.14-5.87c0-.53,0-1,0-1.53,0-3.28,0-6.37.65-19.26.69-15.43,1.88-31.41,2.57-40l10.33,6C78.08,161.07,76.94,176.42,76.25,191.19Z" style="fill: rgb(38, 50, 56); transform-origin: 66.9716px 175.115px;" id="el24xc3hn2ib6" class="animable"></path><polygon points="167.76 137.71 123.08 111.91 110.89 118.95 110.89 119.83 155.57 145.63 167.76 138.59 167.76 137.71" style="fill: rgb(64, 123, 255); transform-origin: 139.325px 128.77px;" id="el4lev8g4dl7r" class="animable"></polygon><polygon points="110.89 118.95 155.57 144.75 167.76 137.71 123.08 111.91 110.89 118.95" style="fill: rgb(64, 123, 255); transform-origin: 139.325px 128.33px;" id="elc8wwe2321md" class="animable"></polygon><g id="el0tuzxrr0q85"><polygon points="110.89 118.95 155.57 144.75 167.76 137.71 123.08 112.23 110.89 118.95" style="fill: rgb(255, 255, 255); opacity: 0.3; transform-origin: 139.325px 128.49px;" class="animable"></polygon></g><g id="elik95dgqgoae"><polygon points="110.89 118.95 155.57 144.75 155.57 145.63 110.89 119.83 110.89 118.95" style="opacity: 0.15; transform-origin: 133.23px 132.29px;" class="animable"></polygon></g><polygon points="155.57 144.75 167.76 137.71 167.76 138.59 155.57 145.63 155.57 144.75" style="fill: rgb(64, 123, 255); transform-origin: 161.665px 141.67px;" id="elt07u83ktv67" class="animable"></polygon><polygon points="155.57 144.76 110.89 118.96 98.71 126 98.71 128.34 143.39 152.67 155.57 145.64 155.57 144.76" style="fill: rgb(235, 235, 235); transform-origin: 127.14px 135.815px;" id="elsb2yq2arj1" class="animable"></polygon><polygon points="98.71 126 143.39 151.8 155.57 144.76 110.89 118.96 98.71 126" style="fill: rgb(64, 123, 255); transform-origin: 127.14px 135.38px;" id="el4znm1bfiq8x" class="animable"></polygon><g id="elik8lnzs2hyk"><polygon points="98.71 126 143.39 151.8 155.57 144.76 110.89 118.96 98.71 126" style="fill: rgb(255, 255, 255); opacity: 0.6; transform-origin: 127.14px 135.38px;" class="animable"></polygon></g><polygon points="143.39 151.8 155.57 144.76 155.57 145.64 143.39 152.67 143.39 151.8" style="fill: rgb(64, 123, 255); transform-origin: 149.48px 148.715px;" id="elx4n6s3g5a4a" class="animable"></polygon><g id="elblbrnwffpkb"><polygon points="143.39 151.8 155.57 144.76 155.57 145.64 143.39 152.67 143.39 151.8" style="fill: rgb(255, 255, 255); opacity: 0.3; transform-origin: 149.48px 148.715px;" class="animable"></polygon></g><polygon points="143.39 151.78 98.7 125.99 86.52 133.02 86.52 133.9 131.2 159.7 143.39 152.66 143.39 151.78" style="fill: rgb(64, 123, 255); transform-origin: 114.955px 142.845px;" id="elfepde674g5w" class="animable"></polygon><polygon points="86.52 133.02 131.2 158.82 143.39 151.78 98.7 125.99 86.52 133.02" style="fill: rgb(64, 123, 255); transform-origin: 114.955px 142.405px;" id="eltcu06uru58" class="animable"></polygon><g id="el3faijqu1kne"><polygon points="87.15 133.02 131.2 158.82 143.39 151.78 98.7 125.99 87.15 133.02" style="fill: rgb(255, 255, 255); opacity: 0.3; transform-origin: 115.27px 142.405px;" class="animable"></polygon></g><g id="eljv4eywoxt1"><polygon points="86.52 133.02 131.2 158.82 131.2 159.7 86.52 133.9 86.52 133.02" style="fill: rgb(255, 255, 255); opacity: 0.15; transform-origin: 108.86px 146.36px;" class="animable"></polygon></g><polygon points="131.2 158.82 143.39 151.78 143.39 152.66 131.2 159.7 131.2 158.82" style="fill: rgb(64, 123, 255); transform-origin: 137.295px 155.74px;" id="el10dk34p2wff" class="animable"></polygon><path d="M142.55,148.84l7.95-4.58c.48-.28.73-.58.56-.68a1.77,1.77,0,0,0-1.18.33l-7.95,4.58c-.48.28-.73.58-.55.68S142.08,149.12,142.55,148.84Z" style="fill: rgb(69, 90, 100); transform-origin: 146.217px 146.388px;" id="el210dfa3jvtd" class="animable"></path><path d="M139.08,146.84l7.95-4.58c.48-.28.73-.58.56-.68a1.74,1.74,0,0,0-1.18.32l-7.95,4.59c-.48.27-.73.57-.56.67A1.69,1.69,0,0,0,139.08,146.84Z" style="fill: rgb(69, 90, 100); transform-origin: 142.745px 144.371px;" id="eln7jxvy6zlw" class="animable"></path><path d="M135.61,144.83l7.95-4.58c.48-.28.73-.58.55-.68a1.78,1.78,0,0,0-1.18.33L135,144.48c-.48.28-.73.58-.56.68A1.77,1.77,0,0,0,135.61,144.83Z" style="fill: rgb(69, 90, 100); transform-origin: 139.278px 142.365px;" id="elhcwk7bc2zlw" class="animable"></path><path d="M132.14,142.83l8-4.59c.48-.27.73-.57.55-.67a1.7,1.7,0,0,0-1.18.32l-8,4.58c-.47.28-.72.58-.55.68S131.66,143.1,132.14,142.83Z" style="fill: rgb(69, 90, 100); transform-origin: 135.828px 140.371px;" id="eldfksre32lyc" class="animable"></path><path d="M128.67,140.82l8-4.58c.48-.28.72-.58.55-.68s-.7.05-1.18.33l-8,4.58c-.48.28-.72.58-.55.68A1.78,1.78,0,0,0,128.67,140.82Z" style="fill: rgb(69, 90, 100); transform-origin: 132.355px 138.342px;" id="elyd5wre6szpa" class="animable"></path><path d="M125.2,138.82l8-4.59c.48-.27.72-.58.55-.67a1.7,1.7,0,0,0-1.18.32l-8,4.58c-.48.28-.73.58-.55.68S124.72,139.09,125.2,138.82Z" style="fill: rgb(69, 90, 100); transform-origin: 128.883px 136.361px;" id="eltw4nwpoo1gl" class="animable"></path><path d="M121.73,136.81l8-4.58c.47-.28.72-.58.55-.68a1.75,1.75,0,0,0-1.18.32l-8,4.59c-.48.27-.73.58-.55.67A1.7,1.7,0,0,0,121.73,136.81Z" style="fill: rgb(69, 90, 100); transform-origin: 125.412px 134.341px;" id="elbbqk388b379" class="animable"></path><path d="M118.25,134.81l8-4.59c.48-.27.73-.58.56-.67a1.69,1.69,0,0,0-1.18.32l-8,4.58c-.48.28-.73.58-.56.68A1.74,1.74,0,0,0,118.25,134.81Z" style="fill: rgb(69, 90, 100); transform-origin: 121.94px 132.339px;" id="el9lb5hz2d66d" class="animable"></path><path d="M114.78,132.8l8-4.58c.48-.28.73-.58.55-.68s-.7,0-1.17.32l-8,4.59c-.48.27-.73.58-.56.67A1.69,1.69,0,0,0,114.78,132.8Z" style="fill: rgb(69, 90, 100); transform-origin: 118.468px 130.316px;" id="el1kl1c2ziv14" class="animable"></path><path d="M111.31,130.8l8-4.59c.48-.27.73-.58.55-.67a1.7,1.7,0,0,0-1.18.32l-7.95,4.58c-.47.28-.72.58-.55.68S110.83,131.07,111.31,130.8Z" style="fill: rgb(69, 90, 100); transform-origin: 115.023px 128.341px;" id="elj20hisq2r5" class="animable"></path><path d="M107.84,128.79l8-4.58c.48-.28.72-.58.55-.68s-.7,0-1.18.32l-8,4.59c-.48.27-.72.58-.55.67A1.7,1.7,0,0,0,107.84,128.79Z" style="fill: rgb(69, 90, 100); transform-origin: 111.525px 126.306px;" id="el1ia792zp334" class="animable"></path><path d="M104.37,126.78l7.95-4.58c.48-.28.72-.58.55-.68a1.78,1.78,0,0,0-1.18.33l-8,4.58c-.48.28-.73.58-.55.68S103.89,127.06,104.37,126.78Z" style="fill: rgb(69, 90, 100); transform-origin: 108.003px 124.328px;" id="elmhufdzct9b" class="animable"></path><path d="M216.5,224.93c-.09-23.1-2.83-53.85-3.75-63.57l-10.12-5.85-49.22,28.41c-.57,6.54-3.67,42.68-3.94,68l10.12,5.84Z" style="fill: rgb(55, 71, 79); transform-origin: 182.985px 206.635px;" id="el88eizyh64rm" class="animable"></path><polygon points="153.41 183.92 163.53 189.77 212.75 161.36 202.63 155.51 153.41 183.92" style="fill: rgb(69, 90, 100); transform-origin: 183.08px 172.64px;" id="elw5fhp7ghfg7" class="animable"></polygon><path d="M159.59,257.78c.28-25.33,3.37-61.47,3.95-68l49.21-28.41c.92,9.72,3.66,40.47,3.75,63.57Z" style="fill: rgb(38, 50, 56); transform-origin: 188.045px 209.575px;" id="el6wt9a78nrkl" class="animable"></path><path d="M159.59,257.78c.28-25.33,3.37-61.47,3.95-68l49.21-28.42c.92,9.73,3.66,40.48,3.75,63.58Z" style="fill: rgb(69, 90, 100); transform-origin: 188.045px 209.57px;" id="elqa1kjnecqc" class="animable"></path><path d="M316,216.7,214.44,158.07l-52.8,30.49s-4.07,44.56-4.07,72.7l101.55,58.63,60.93-35.18C320.05,256.57,316,216.7,316,216.7Z" style="fill: rgb(224, 224, 224); transform-origin: 238.81px 238.98px;" id="elote3xxxd7kk" class="animable"></path><path d="M259.38,306c-.16,4.88-.26,9.59-.26,13.91L157.57,261.26c0-4.32.1-9,.26-13.92Z" style="fill: rgb(64, 123, 255); transform-origin: 208.475px 283.625px;" id="elmhq4prvenh" class="animable"></path><g id="elj7mlavlhrno"><path d="M259.38,306c-.16,4.88-.26,9.59-.26,13.91L157.57,261.26c0-4.32.1-9,.26-13.92Z" style="opacity: 0.2; transform-origin: 208.475px 283.625px;" class="animable"></path></g><path d="M263.18,247.19,316,216.7s4.06,39.87,4.06,68l-60.93,35.18C259.12,291.75,263.18,247.19,263.18,247.19Z" style="fill: rgb(224, 224, 224); transform-origin: 289.595px 268.29px;" id="el1brl8tfyb7o" class="animable"></path><g id="elej43fhu11na"><path d="M263.18,247.19,316,216.7s4.06,39.87,4.06,68l-60.93,35.18C259.12,291.75,263.18,247.19,263.18,247.19Z" style="opacity: 0.2; transform-origin: 289.595px 268.29px;" class="animable"></path></g><polygon points="263.19 247.19 263.19 244.84 315.99 214.35 315.99 216.7 263.19 247.19" style="fill: rgb(64, 123, 255); transform-origin: 289.59px 230.77px;" id="ela2smc8yvijb" class="animable"></polygon><polygon points="161.63 188.56 161.63 186.21 214.44 155.72 214.44 158.07 161.63 188.56" style="fill: rgb(64, 123, 255); transform-origin: 188.035px 172.14px;" id="el1xh5e2ov9te" class="animable"></polygon><polygon points="263.19 244.84 161.63 186.21 214.44 155.72 315.99 214.35 263.19 244.84" style="fill: rgb(64, 123, 255); transform-origin: 238.81px 200.28px;" id="elhafd21wxqnk" class="animable"></polygon><g id="eltip5i94c7b"><polygon points="263.19 244.84 161.63 186.21 214.44 155.72 315.99 214.35 263.19 244.84" style="fill: rgb(255, 255, 255); opacity: 0.3; transform-origin: 238.81px 200.28px;" class="animable"></polygon></g><polygon points="263.19 244.84 263.19 247.19 161.63 188.56 161.63 186.21 263.19 244.84" style="fill: rgb(64, 123, 255); transform-origin: 212.41px 216.7px;" id="elp365t6ue1e" class="animable"></polygon><g id="el5qqmgewfs9d"><polygon points="263.19 244.84 263.19 247.19 161.63 188.56 161.63 186.21 263.19 244.84" style="fill: rgb(255, 255, 255); opacity: 0.15; transform-origin: 212.41px 216.7px;" class="animable"></polygon></g><path d="M257.69,248.71c-.77,9-2.46,30.1-3.25,49.72L162.75,245.5c.82-19.84,2.53-41.12,3.26-49.72Z" style="fill: rgb(55, 71, 79); transform-origin: 210.22px 247.105px;" id="elr4thij1acuk" class="animable"></path><path d="M166.85,243.25c.68-15.23,1.85-31,2.63-40.85l84,48.5c-.7,8.42-2,24.46-2.75,40.77Z" style="fill: rgb(69, 90, 100); transform-origin: 210.165px 247.035px;" id="elcerbz7t8am" class="animable"></path><path d="M188.22,260.2l5.1,2.94c.81-19.77,2.51-41,3.26-49.72l-5.1-2.94C190.74,219.19,189,240.42,188.22,260.2Z" style="fill: rgb(55, 71, 79); transform-origin: 192.4px 236.81px;" id="el4d1egcu1ur1" class="animable"></path><path d="M219.32,278.16l5.1,2.94c.81-19.77,2.51-41,3.26-49.72l-5.1-2.94C221.84,237.14,220.13,258.37,219.32,278.16Z" style="fill: rgb(55, 71, 79); transform-origin: 223.5px 254.77px;" id="elj8war5p9msj" class="animable"></path><polygon points="194.13 226.08 194.13 228.08 255.06 263.25 255.06 261.26 194.13 226.08" style="fill: rgb(55, 71, 79); transform-origin: 224.595px 244.665px;" id="elvhfuwcu80ug" class="animable"></polygon><path d="M169.05,201.57l-.06.79c-.68,8.43-1.92,24.95-2.64,40.86-.68,12.91-.66,16-.64,19.31v2.09l22.45,13,0-.86c0-.09.14-9.86.74-21,.7-14.91,1.85-30.41,2.69-40.79l0-.32Zm-2.34,60.95c0-3.27,0-6.37.64-19.25h0c.69-15.41,1.88-31.4,2.57-40l9.38,5.41c-.68,8.52-1.9,24.83-2.61,40.55-.68,12.91-.66,16-.64,19.31v.95l-9.34-5.4Zm21.22-6.85c-.51,9.29-.69,17.61-.74,20.23L177.05,270V268.5c0-3.28,0-6.37.64-19.26.69-15.43,1.88-31.41,2.57-40l10.33,6C189.75,225.55,188.62,240.9,187.93,255.67Z" style="fill: rgb(38, 50, 56); transform-origin: 178.647px 239.595px;" id="elbavm5fy4jvg" class="animable"></path><polygon points="279.43 202.19 234.75 176.39 222.56 183.43 222.56 184.31 267.25 210.1 279.43 203.07 279.43 202.19" style="fill: rgb(64, 123, 255); transform-origin: 250.995px 193.245px;" id="el2r34rdd2onf" class="animable"></polygon><polygon points="222.56 183.43 267.25 209.23 279.43 202.19 234.75 176.39 222.56 183.43" style="fill: rgb(64, 123, 255); transform-origin: 250.995px 192.81px;" id="eld85htui4ew" class="animable"></polygon><g id="elvgfu8f4s27h"><polygon points="222.56 183.43 267.25 209.23 279.43 202.19 234.75 176.71 222.56 183.43" style="fill: rgb(255, 255, 255); opacity: 0.3; transform-origin: 250.995px 192.97px;" class="animable"></polygon></g><g id="elbt4hkx3d44q"><polygon points="222.56 183.43 267.25 209.23 267.25 210.1 222.56 184.31 222.56 183.43" style="opacity: 0.15; transform-origin: 244.905px 196.765px;" class="animable"></polygon></g><polygon points="267.25 209.23 279.43 202.19 279.43 203.07 267.25 210.1 267.25 209.23" style="fill: rgb(64, 123, 255); transform-origin: 273.34px 206.145px;" id="el2mv7sl88pdd" class="animable"></polygon><polygon points="267.25 209.24 222.56 183.44 210.38 190.48 210.38 192.82 255.06 217.15 267.25 210.12 267.25 209.24" style="fill: rgb(235, 235, 235); transform-origin: 238.815px 200.295px;" id="elxr1jsunp8c" class="animable"></polygon><polygon points="210.38 190.48 255.06 216.27 267.25 209.24 222.56 183.44 210.38 190.48" style="fill: rgb(64, 123, 255); transform-origin: 238.815px 199.855px;" id="elce0hwace8nn" class="animable"></polygon><g id="el2snmvnokwjy"><polygon points="210.38 190.48 255.06 216.27 267.25 209.24 222.56 183.44 210.38 190.48" style="fill: rgb(255, 255, 255); opacity: 0.6; transform-origin: 238.815px 199.855px;" class="animable"></polygon></g><polygon points="255.06 216.27 267.25 209.24 267.25 210.12 255.06 217.15 255.06 216.27" style="fill: rgb(64, 123, 255); transform-origin: 261.155px 213.195px;" id="elp40mf7piwb" class="animable"></polygon><g id="el07r8nwgkirlg"><polygon points="255.06 216.27 267.25 209.24 267.25 210.12 255.06 217.15 255.06 216.27" style="fill: rgb(255, 255, 255); opacity: 0.3; transform-origin: 261.155px 213.195px;" class="animable"></polygon></g><polygon points="255.06 216.26 210.38 190.46 198.19 197.5 198.19 198.38 242.87 224.18 255.06 217.14 255.06 216.26" style="fill: rgb(64, 123, 255); transform-origin: 226.625px 207.32px;" id="elmc1fx9gdv1d" class="animable"></polygon><polygon points="198.19 197.5 242.87 223.3 255.06 216.26 210.38 190.46 198.19 197.5" style="fill: rgb(64, 123, 255); transform-origin: 226.625px 206.88px;" id="el8g69jpfw3v" class="animable"></polygon><g id="elxd15g0rabsl"><polygon points="198.82 197.5 242.87 223.3 255.06 216.26 210.38 190.46 198.82 197.5" style="fill: rgb(255, 255, 255); opacity: 0.3; transform-origin: 226.94px 206.88px;" class="animable"></polygon></g><g id="elkau2xmttur"><polygon points="198.19 197.5 242.87 223.3 242.87 224.18 198.19 198.38 198.19 197.5" style="fill: rgb(255, 255, 255); opacity: 0.15; transform-origin: 220.53px 210.84px;" class="animable"></polygon></g><polygon points="242.87 223.3 255.06 216.26 255.06 217.14 242.87 224.18 242.87 223.3" style="fill: rgb(64, 123, 255); transform-origin: 248.965px 220.22px;" id="elnvpyn7ye48" class="animable"></polygon><path d="M254.23,213.32l8-4.58c.48-.28.72-.58.55-.68s-.7.05-1.18.32l-8,4.59c-.48.27-.72.58-.55.68A1.78,1.78,0,0,0,254.23,213.32Z" style="fill: rgb(69, 90, 100); transform-origin: 257.915px 210.842px;" id="elv59r67j1tn" class="animable"></path><path d="M250.76,211.32l7.95-4.59c.47-.27.72-.58.55-.67a1.7,1.7,0,0,0-1.18.32L250.13,211c-.48.28-.73.58-.55.68S250.28,211.59,250.76,211.32Z" style="fill: rgb(69, 90, 100); transform-origin: 254.417px 208.879px;" id="elwclh1dneb7f" class="animable"></path><path d="M247.28,209.31l7.95-4.58c.48-.28.73-.58.56-.68a1.75,1.75,0,0,0-1.18.32l-8,4.59c-.48.27-.73.58-.56.67A1.68,1.68,0,0,0,247.28,209.31Z" style="fill: rgb(69, 90, 100); transform-origin: 250.92px 206.844px;" id="elz2c5qvoct4" class="animable"></path><path d="M243.81,207.31l7.95-4.59c.48-.27.73-.58.56-.67a1.68,1.68,0,0,0-1.18.32L243.19,207c-.48.28-.73.58-.56.68A1.75,1.75,0,0,0,243.81,207.31Z" style="fill: rgb(69, 90, 100); transform-origin: 247.475px 204.862px;" id="elzg9sjgn5qym" class="animable"></path><path d="M240.34,205.3l7.95-4.58c.48-.28.73-.58.55-.68s-.7.05-1.18.32L239.71,205c-.47.27-.72.58-.55.67A1.7,1.7,0,0,0,240.34,205.3Z" style="fill: rgb(69, 90, 100); transform-origin: 244.003px 202.841px;" id="elq2hu67kegor" class="animable"></path><path d="M236.87,203.29l7.95-4.58c.48-.28.73-.58.55-.68a1.78,1.78,0,0,0-1.18.33l-7.95,4.58c-.48.28-.72.58-.55.68S236.39,203.57,236.87,203.29Z" style="fill: rgb(69, 90, 100); transform-origin: 240.532px 200.838px;" id="elmicnhqw11z" class="animable"></path><path d="M233.4,201.29l7.95-4.58c.48-.28.72-.58.55-.68s-.7.05-1.18.32l-7.95,4.59c-.48.27-.72.57-.55.67A1.7,1.7,0,0,0,233.4,201.29Z" style="fill: rgb(69, 90, 100); transform-origin: 237.06px 198.809px;" id="el4kxaiqiv0gd" class="animable"></path><path d="M229.93,199.28l7.95-4.58c.47-.28.72-.58.55-.68a1.78,1.78,0,0,0-1.18.33l-7.95,4.58c-.48.28-.73.58-.55.68A1.78,1.78,0,0,0,229.93,199.28Z" style="fill: rgb(69, 90, 100); transform-origin: 233.587px 196.815px;" id="elrkkyqm95ceq" class="animable"></path><path d="M226.45,197.28l8-4.59c.48-.27.73-.57.56-.67a1.75,1.75,0,0,0-1.18.32l-7.95,4.59c-.48.27-.73.57-.55.67S226,197.55,226.45,197.28Z" style="fill: rgb(69, 90, 100); transform-origin: 230.167px 194.822px;" id="elkvh655x6wko" class="animable"></path><path d="M223,195.27l8-4.58c.48-.28.73-.58.56-.68a1.76,1.76,0,0,0-1.18.33l-7.95,4.58c-.48.28-.73.58-.56.68A1.77,1.77,0,0,0,223,195.27Z" style="fill: rgb(69, 90, 100); transform-origin: 226.715px 192.803px;" id="ell1tvhurw0h" class="animable"></path><path d="M219.51,193.27l8-4.59c.48-.27.73-.58.55-.67a1.7,1.7,0,0,0-1.18.32l-7.94,4.58c-.48.28-.73.58-.56.68A1.75,1.75,0,0,0,219.51,193.27Z" style="fill: rgb(69, 90, 100); transform-origin: 223.223px 190.797px;" id="el6xfi8kbdk" class="animable"></path><path d="M216,191.26l8-4.58c.48-.28.73-.58.55-.68s-.7.05-1.18.32l-8,4.59c-.47.27-.72.58-.55.68A1.78,1.78,0,0,0,216,191.26Z" style="fill: rgb(69, 90, 100); transform-origin: 219.688px 188.782px;" id="elw4j5sb7u3u" class="animable"></path><path d="M328.17,289.41c-.09-23.1-2.82-53.85-3.75-63.58L314.3,220,265.09,248.4c-.58,6.54-3.67,42.68-3.95,68l10.12,5.85Z" style="fill: rgb(55, 71, 79); transform-origin: 294.655px 271.125px;" id="elc2tuwig54a" class="animable"></path><polygon points="265.09 248.4 275.21 254.25 324.42 225.83 314.3 219.99 265.09 248.4" style="fill: rgb(69, 90, 100); transform-origin: 294.755px 237.12px;" id="elfisye828qnr" class="animable"></polygon><path d="M271.26,322.26c.28-25.33,3.37-61.47,3.95-68l49.21-28.42c.93,9.73,3.66,40.48,3.75,63.58Z" style="fill: rgb(38, 50, 56); transform-origin: 299.715px 274.05px;" id="ela1mi3ff4ll6" class="animable"></path><path d="M271.27,322.26c.27-25.33,3.36-61.47,3.94-68l49.21-28.42c.93,9.73,3.66,40.48,3.75,63.58Z" style="fill: rgb(69, 90, 100); transform-origin: 299.72px 274.05px;" id="elm4g7j96v0h8" class="animable"></path><path d="M462.23,372.35h0a69.22,69.22,0,0,0-6.17-28.54L442.11,313a108.91,108.91,0,0,0-44.75-49.36l-71.25-41.13L273.31,253s-4.06,44.56-4.06,72.7L347.61,371a212,212,0,0,0,49,20.59l18.31,5.12a46.65,46.65,0,0,0,35.9-4.53h0A22.88,22.88,0,0,0,462.23,372.35Z" style="fill: rgb(224, 224, 224); transform-origin: 365.74px 310.472px;" id="el2233uys9hkd" class="animable"></path><path d="M461.38,361.63a69.67,69.67,0,0,0-1.8-8.17l-8.32,14.06-33.72,2.33s4.07,6.63,5.11,8.67C446,378.7,458.3,373.92,461.38,361.63Z" style="fill: rgb(38, 50, 56); transform-origin: 439.46px 365.992px;" id="elmwqhz8676h" class="animable"></path><path d="M421.93,372.77a2.66,2.66,0,0,0,1.09,2,9,9,0,0,0,6.83,1.34c1-.17,2.13-.73,2.23-1.74.21-2.19-3.91-3-5.41-3.27S422.18,370.74,421.93,372.77Z" style="fill: rgb(250, 250, 250); transform-origin: 427.009px 373.627px;" id="eldx5rbkc8yan" class="animable"></path><path d="M435.68,376.2c.46-.08.67-.22.77-.4a.94.94,0,0,0-.2-1,2.61,2.61,0,0,0-2.51-1,1.11,1.11,0,0,0-.9,1.29C433,376.27,434.68,376.38,435.68,376.2Z" style="fill: rgb(250, 250, 250); transform-origin: 434.669px 375.017px;" id="elk7rsv8mqnj" class="animable"></path><path d="M461.29,361a1.92,1.92,0,0,1-2.16-.05c-1.76-1.3-.6-4-.12-4.93a4.7,4.7,0,0,1,.95-1.25C461.3,356.69,461.38,359.4,461.29,361Z" style="fill: rgb(250, 250, 250); transform-origin: 459.753px 358.039px;" id="elul1w2wfhb7k" class="animable"></path><path d="M459.54,364.28a.81.81,0,0,1-1.08.27,1.36,1.36,0,0,1-.58-.81c-.2-.83-.18-1.57.36-1.95a1.19,1.19,0,0,1,1.38.12C460.45,362.49,460,363.75,459.54,364.28Z" style="fill: rgb(250, 250, 250); transform-origin: 458.923px 363.139px;" id="eli605qtvaamf" class="animable"></path><path d="M461.86,376.39c-.86,5.86-11.23,18-30.48,17.59s-35.53-9.61-60.32-23.52L269.51,311.82s0,0,0,0c-.16,4.87-.25,9.57-.25,13.89L347.61,371a212,212,0,0,0,49,20.59l18.31,5.12a46.69,46.69,0,0,0,35.9-4.53h0a22.89,22.89,0,0,0,11.07-15.77Z" style="fill: rgb(64, 123, 255); transform-origin: 365.575px 355.126px;" id="eljxae1qmeyyk" class="animable"></path><g id="elmgnpjyc99t"><path d="M461.86,376.39c-.86,5.86-11.23,18-30.48,17.59s-35.53-9.61-60.32-23.52L269.51,311.82s0,0,0,0c-.16,4.87-.25,9.57-.25,13.89L347.61,371a212,212,0,0,0,49,20.59l18.31,5.12a46.69,46.69,0,0,0,35.9-4.53h0a22.89,22.89,0,0,0,11.07-15.77Z" style="opacity: 0.2; transform-origin: 365.575px 355.126px;" class="animable"></path></g><polygon points="273.31 253.04 273.31 250.69 326.11 220.2 326.11 222.55 273.31 253.04" style="fill: rgb(64, 123, 255); transform-origin: 299.71px 236.62px;" id="elk9feiz0mye" class="animable"></polygon><path d="M399.61,262.66l-73.5-42.46-52.8,30.49,73.5,42.46c18.72,10.77,42.3,23.78,74.8,78.33l29.65-4,8.33-14.07C434.45,282.74,415.28,272,399.61,262.66Z" style="fill: rgb(64, 123, 255); transform-origin: 366.45px 295.84px;" id="elg7x1ts5q7ti" class="animable"></path><g id="el62a3f8i5r5"><path d="M399.61,262.66l-73.5-42.46-52.8,30.49,73.5,42.46c18.72,10.77,42.3,23.78,74.8,78.33l29.65-4,8.33-14.07C434.45,282.74,415.28,272,399.61,262.66Z" style="fill: rgb(255, 255, 255); opacity: 0.3; transform-origin: 366.45px 295.84px;" class="animable"></path></g><path d="M455.18,353l-6.37,10.79-26,1.71c-18.23-30.19-32.84-45.86-46.25-57.17,21.13-7.22,35.11-15.54,43-24.82C429.88,295.3,441.61,315.24,455.18,353Z" style="fill: rgb(55, 71, 79); transform-origin: 415.87px 324.505px;" id="elwxqsz4t7yg9" class="animable"></path><path d="M453,352.82l-5.4,9.15-23.71,1.4a270.48,270.48,0,0,0-27.62-38.22c13.69-5.56,25.81-12.2,35.49-20.49C438.85,317.19,445.88,333.15,453,352.82Z" style="fill: rgb(69, 90, 100); transform-origin: 424.635px 334.015px;" id="elaijdfga1qg9" class="animable"></path><path d="M346.81,293.15v2.35c18.72,10.77,45.29,30.81,70.73,74.35l4.07,1.63C389.11,316.93,365.53,303.92,346.81,293.15Z" style="fill: rgb(64, 123, 255); transform-origin: 384.21px 332.315px;" id="elwzdm2yyjlkd" class="animable"></path><g id="elvdoseb1zfth"><path d="M346.81,293.15v2.35c18.72,10.77,45.29,30.81,70.73,74.35l4.07,1.63C389.11,316.93,365.53,303.92,346.81,293.15Z" style="fill: rgb(255, 255, 255); opacity: 0.15; transform-origin: 384.21px 332.315px;" class="animable"></path></g><polygon points="346.81 293.15 346.81 295.5 273.31 253.04 273.31 250.69 346.81 293.15" style="fill: rgb(64, 123, 255); transform-origin: 310.06px 273.095px;" id="elh0splq1u29" class="animable"></polygon><g id="eld9msd3inyx7"><polygon points="346.81 293.15 346.81 295.5 273.31 253.04 273.31 250.69 346.81 293.15" style="fill: rgb(255, 255, 255); opacity: 0.15; transform-origin: 310.06px 273.095px;" class="animable"></polygon></g><path d="M366.27,363,274.58,310c.82-19.84,2.53-41.12,3.26-49.72l71,41c14.54,8.4,27.75,18.58,38.39,31.58a297.05,297.05,0,0,1,24.12,34.06l-24,8.28Z" style="fill: rgb(55, 71, 79); transform-origin: 342.965px 317.74px;" id="elmsexq7g1cyi" class="animable"></path><path d="M382.58,331.62s1.12,8,5.36,39.86l18.7-6.36S393.17,344.25,382.58,331.62Z" style="fill: rgb(69, 90, 100); transform-origin: 394.61px 351.55px;" id="elj4scplsxdp" class="animable"></path><g id="el04jfo3rd4mj2"><path d="M382.58,331.62s1.12,8,5.36,39.86l18.7-6.36S393.17,344.25,382.58,331.62Z" style="fill: rgb(255, 255, 255); opacity: 0.1; transform-origin: 394.61px 351.55px;" class="animable"></path></g><path d="M382.58,331.62c-3.38-3.38-13-11.73-13-11.73s-2.52,29.46-2.83,38.68l21.21,12.91Z" style="fill: rgb(69, 90, 100); transform-origin: 377.355px 345.685px;" id="ell4ep4ub3mc" class="animable"></path><path d="M278.89,308.08c.68-15.23,1.84-31,2.62-40.85l84,48.51c-.71,8.42-2,24.45-2.76,40.77Z" style="fill: rgb(69, 90, 100); transform-origin: 322.2px 311.87px;" id="elkfjqdla0vb" class="animable"></path><path d="M335.47,345.18l5.09,2.94c.81-19.77,2.52-41,3.26-49.72l-5.09-2.94C338,304.17,336.28,325.4,335.47,345.18Z" style="fill: rgb(55, 71, 79); transform-origin: 339.645px 321.79px;" id="el2h4z43e98vc" class="animable"></path><path d="M304.49,327.31l5.1,2.94c.81-19.76,2.52-41,3.26-49.71l-5.09-3C307,286.3,305.31,307.53,304.49,327.31Z" style="fill: rgb(55, 71, 79); transform-origin: 308.67px 303.895px;" id="eloqig4gz65bd" class="animable"></path><polygon points="280.1 275.68 280.1 277.68 341.03 312.86 341.03 310.86 280.1 275.68" style="fill: rgb(55, 71, 79); transform-origin: 310.565px 294.27px;" id="eli85eyouygde" class="animable"></polygon><path d="M343,302l-.06.78c-.68,8.44-1.92,25-2.63,40.87-.69,12.91-.67,16-.65,19.31,0,.57,0,1.16,0,1.8V365l22.45,13v-.86c0-.1.14-9.86.75-21,.7-14.92,1.85-30.42,2.69-40.8l0-.31Zm-2.34,60.95c0-3.28,0-6.37.65-19.25h0c.69-15.42,1.88-31.41,2.56-40.05l9.39,5.42c-.69,8.52-1.91,24.83-2.61,40.55-.69,12.91-.67,16-.65,19.31,0,.31,0,.62,0,1l-9.34-5.41C340.66,363.91,340.66,363.41,340.65,362.92Zm21.22-6.85c-.51,9.29-.69,17.61-.73,20.23L351,370.43c0-.54,0-1.05,0-1.54,0-3.27,0-6.37.65-19.25.69-15.43,1.88-31.41,2.56-40.05l10.34,6C363.7,325.94,362.56,341.29,361.87,356.07Z" style="fill: rgb(38, 50, 56); transform-origin: 352.602px 340px;" id="elv0xynoa401" class="animable"></path><polygon points="384.66 262.92 339.97 237.13 327.79 244.16 327.79 245.04 372.47 270.84 384.66 263.8 384.66 262.92" style="fill: rgb(64, 123, 255); transform-origin: 356.225px 253.985px;" id="elwckx1pi83x8" class="animable"></polygon><polygon points="327.79 244.16 372.47 269.96 384.66 262.92 339.97 237.13 327.79 244.16" style="fill: rgb(64, 123, 255); transform-origin: 356.225px 253.545px;" id="els3i0qj8tqp" class="animable"></polygon><g id="elo4qzdtlfzx8"><polygon points="327.79 244.16 372.47 269.96 384.66 262.92 339.97 237.45 327.79 244.16" style="fill: rgb(255, 255, 255); opacity: 0.3; transform-origin: 356.225px 253.705px;" class="animable"></polygon></g><g id="el5ev9avz4hoq"><polygon points="327.79 244.16 372.47 269.96 372.47 270.84 327.79 245.04 327.79 244.16" style="opacity: 0.15; transform-origin: 350.13px 257.5px;" class="animable"></polygon></g><polygon points="372.47 269.96 384.66 262.92 384.66 263.8 372.47 270.84 372.47 269.96" style="fill: rgb(64, 123, 255); transform-origin: 378.565px 266.88px;" id="elmh3h3vc6h5c" class="animable"></polygon><polygon points="372.47 269.97 327.79 244.17 315.6 251.21 315.6 253.56 360.28 277.88 372.47 270.85 372.47 269.97" style="fill: rgb(235, 235, 235); transform-origin: 344.035px 261.025px;" id="ellkoduykqyy" class="animable"></polygon><polygon points="315.6 251.21 360.28 277.01 372.47 269.97 327.79 244.17 315.6 251.21" style="fill: rgb(64, 123, 255); transform-origin: 344.035px 260.59px;" id="elr9onwuwa1mn" class="animable"></polygon><g id="eln7wi9elelr8"><polygon points="315.6 251.21 360.28 277.01 372.47 269.97 327.79 244.17 315.6 251.21" style="fill: rgb(255, 255, 255); opacity: 0.6; transform-origin: 344.035px 260.59px;" class="animable"></polygon></g><polygon points="360.28 277.01 372.47 269.97 372.47 270.85 360.28 277.88 360.28 277.01" style="fill: rgb(64, 123, 255); transform-origin: 366.375px 273.925px;" id="elaxqqkrxss9" class="animable"></polygon><g id="elznptgndk6y"><polygon points="360.28 277.01 372.47 269.97 372.47 270.85 360.28 277.88 360.28 277.01" style="fill: rgb(255, 255, 255); opacity: 0.3; transform-origin: 366.375px 273.925px;" class="animable"></polygon></g><polygon points="360.29 277 315.6 251.2 303.42 258.23 303.42 259.11 348.1 284.91 360.29 277.87 360.29 277" style="fill: rgb(64, 123, 255); transform-origin: 331.855px 268.055px;" id="eltnvgthciq2i" class="animable"></polygon><polygon points="303.42 258.23 348.1 284.03 360.29 277 315.6 251.2 303.42 258.23" style="fill: rgb(64, 123, 255); transform-origin: 331.855px 267.615px;" id="el42yo24y6kd" class="animable"></polygon><g id="eltgxw15c1x3"><polygon points="304.04 258.23 348.1 284.03 360.29 277 315.6 251.2 304.04 258.23" style="fill: rgb(255, 255, 255); opacity: 0.3; transform-origin: 332.165px 267.615px;" class="animable"></polygon></g><g id="el994lni2d8g"><polygon points="303.42 258.23 348.1 284.03 348.1 284.91 303.42 259.11 303.42 258.23" style="fill: rgb(255, 255, 255); opacity: 0.15; transform-origin: 325.76px 271.57px;" class="animable"></polygon></g><polygon points="348.1 284.03 360.29 277 360.29 277.87 348.1 284.91 348.1 284.03" style="fill: rgb(64, 123, 255); transform-origin: 354.195px 280.955px;" id="el0upn7kv380s" class="animable"></polygon><path d="M359.45,274.06l7.95-4.59c.48-.28.73-.58.55-.68a1.78,1.78,0,0,0-1.18.33l-7.94,4.58c-.48.28-.73.58-.56.68A1.75,1.75,0,0,0,359.45,274.06Z" style="fill: rgb(69, 90, 100); transform-origin: 363.113px 271.586px;" id="elw0c04kdb3tk" class="animable"></path><path d="M356,272.05l7.95-4.58c.48-.28.73-.58.55-.68s-.7,0-1.18.32l-7.95,4.59c-.47.27-.72.57-.55.67A1.7,1.7,0,0,0,356,272.05Z" style="fill: rgb(69, 90, 100); transform-origin: 359.663px 269.566px;" id="eluceon58j2o" class="animable"></path><path d="M352.51,270l7.95-4.58c.48-.28.72-.58.55-.68a1.78,1.78,0,0,0-1.18.33l-7.95,4.58c-.48.28-.72.58-.55.68A1.78,1.78,0,0,0,352.51,270Z" style="fill: rgb(69, 90, 100); transform-origin: 356.17px 267.535px;" id="elqy0vmdd5q5i" class="animable"></path><path d="M349,268l7.95-4.59c.48-.27.72-.57.55-.67s-.7.05-1.18.32l-7.95,4.59c-.48.27-.73.57-.55.67S348.56,268.31,349,268Z" style="fill: rgb(69, 90, 100); transform-origin: 352.658px 265.532px;" id="elzpzg2sobvlp" class="animable"></path><path d="M345.57,266l7.95-4.58c.47-.28.72-.58.55-.68a1.78,1.78,0,0,0-1.18.33l-7.95,4.58c-.48.28-.73.58-.55.68A1.78,1.78,0,0,0,345.57,266Z" style="fill: rgb(69, 90, 100); transform-origin: 349.227px 263.535px;" id="eln7t1wg6kulj" class="animable"></path><path d="M342.09,264l8-4.59c.48-.27.73-.58.56-.67a1.69,1.69,0,0,0-1.18.32l-7.95,4.58c-.48.28-.73.58-.56.68A1.74,1.74,0,0,0,342.09,264Z" style="fill: rgb(69, 90, 100); transform-origin: 345.805px 261.527px;" id="el46j3oubr2ef" class="animable"></path><path d="M338.62,262l7.95-4.58c.48-.28.73-.58.55-.68s-.7.05-1.17.32L338,261.67c-.48.27-.73.58-.56.68A1.77,1.77,0,0,0,338.62,262Z" style="fill: rgb(69, 90, 100); transform-origin: 342.283px 259.531px;" id="el6omlump1l62" class="animable"></path><path d="M335.15,260l8-4.59c.48-.27.73-.58.55-.67a1.7,1.7,0,0,0-1.18.32l-8,4.58c-.47.28-.72.58-.55.68S334.67,260.29,335.15,260Z" style="fill: rgb(69, 90, 100); transform-origin: 338.838px 257.542px;" id="el4fn4sfme353" class="animable"></path><path d="M331.68,258l7.95-4.58c.48-.28.72-.58.55-.68s-.7.05-1.18.32l-7.95,4.59c-.48.27-.72.58-.55.67A1.7,1.7,0,0,0,331.68,258Z" style="fill: rgb(69, 90, 100); transform-origin: 335.34px 255.519px;" id="el2jn8scvwprn" class="animable"></path><path d="M328.21,256l8-4.59c.48-.27.72-.58.55-.67a1.7,1.7,0,0,0-1.18.32l-7.95,4.58c-.48.28-.73.58-.55.68S327.73,256.28,328.21,256Z" style="fill: rgb(69, 90, 100); transform-origin: 331.918px 253.542px;" id="elmh2ijyuqwui" class="animable"></path><path d="M324.74,254l7.95-4.58c.47-.28.72-.58.55-.68s-.7,0-1.18.32l-7.95,4.59c-.48.27-.73.58-.55.67A1.7,1.7,0,0,0,324.74,254Z" style="fill: rgb(69, 90, 100); transform-origin: 328.397px 251.516px;" id="el15h1bs6cmb3" class="animable"></path><path d="M321.26,252l7.95-4.59c.48-.27.73-.58.56-.68a1.77,1.77,0,0,0-1.18.33l-7.95,4.58c-.48.28-.73.58-.56.68A1.74,1.74,0,0,0,321.26,252Z" style="fill: rgb(69, 90, 100); transform-origin: 324.925px 249.526px;" id="el2f7akl4zt57" class="animable"></path></g></g><defs>     <filter id="active" height="200%">         <feMorphology in="SourceAlpha" result="DILATED" operator="dilate" radius="2"></feMorphology>                <feFlood flood-color="#32DFEC" flood-opacity="1" result="PINK"></feFlood>        <feComposite in="PINK" in2="DILATED" operator="in" result="OUTLINE"></feComposite>        <feMerge>            <feMergeNode in="OUTLINE"></feMergeNode>            <feMergeNode in="SourceGraphic"></feMergeNode>        </feMerge>    </filter>    <filter id="hover" height="200%">        <feMorphology in="SourceAlpha" result="DILATED" operator="dilate" radius="2"></feMorphology>                <feFlood flood-color="#ff0000" flood-opacity="0.5" result="PINK"></feFlood>        <feComposite in="PINK" in2="DILATED" operator="in" result="OUTLINE"></feComposite>        <feMerge>            <feMergeNode in="OUTLINE"></feMergeNode>            <feMergeNode in="SourceGraphic"></feMergeNode>        </feMerge>            <feColorMatrix type="matrix" values="0   0   0   0   0                0   1   0   0   0                0   0   0   0   0                0   0   0   1   0 "></feColorMatrix>    </filter></defs></svg>